<?xml version="1.0" standalone="no"?><!DOCTYPE svg PUBLIC "-//W3C//DTD SVG 1.1//EN" "http://www.w3.org/Graphics/SVG/1.1/DTD/svg11.dtd"><svg t="1753153202112" class="icon" viewBox="0 0 1024 1024" version="1.1" xmlns="http://www.w3.org/2000/svg" p-id="24153" xmlns:xlink="http://www.w3.org/1999/xlink" width="256" height="256"><path d="M511.983978 763.716143c-82.080219 0-148.627201-130.041792-148.627201-212.138032-0.016022-82.08823 66.546982-148.643223 148.643223-148.643223s148.643223 66.546982 148.643223 148.643223c0 82.104252-66.546982 212.138032-148.659245 212.138032z" fill="#FF8F8F" p-id="24154"></path><path d="M512 473.142875c-70.672623 0-129.705332 49.355478-144.789955 115.445836 15.204788 79.124178 74.229486 175.127432 144.773933 175.127432 70.56848 0 129.585167-96.003254 144.805977-175.119421-15.092634-66.098369-74.109321-115.453847-144.789955-115.453847z" fill="#FF1A1A" p-id="24155"></path><path d="M511.983978 775.732572c-88.673233 0-160.64363-135.633436-160.64363-224.14645-0.008011-42.906661 16.702836-83.257829 47.048324-113.603317s70.688645-47.056335 113.611328-47.056335c88.593123 0 160.659652 72.074539 160.659652 160.659652 0 88.513014-71.978408 224.14645-160.675674 224.14645z m0.016022-360.773245a135.737579 135.737579 0 0 0-96.620098 40.022719 135.657469 135.657469 0 0 0-40.006696 96.604076c0 77.201549 62.517473 200.113593 136.610772 200.113592 74.109321 0 136.642816-122.920055 136.642816-200.113592 0-75.334997-61.283786-136.626794-136.626794-136.626795z" fill="#33363A" p-id="24156"></path><path d="M577.874062 716.771962l-65.874062 295.123489-65.866051-295.123489 65.866051-72.707405z" fill="#FFE6D4" p-id="24157"></path><path d="M460.369411 780.603231l51.630589 231.29222 51.622578-231.29222-51.622578-56.973894z" fill="#F9D2B2" p-id="24158"></path><path d="M512 1023.91188a12.016429 12.016429 0 0 1-11.728034-9.396848L434.397903 719.383532a11.992396 11.992396 0 0 1 2.827867-10.68661l65.874062-72.699394c4.550221-5.038889 13.250115-5.038889 17.808347 0l65.874062 72.699394a12.016429 12.016429 0 0 1 2.827867 10.68661l-65.874063 295.1315a12.032451 12.032451 0 0 1-11.736045 9.396848z m-52.792177-303.687198l52.792177 236.50735 52.792177-236.50735-52.792177-58.255646-52.792177 58.255646z" fill="#33363A" p-id="24159"></path><path d="M389.865019 578.014254c-17.696194 0-26.508242-79.660911-26.508242-97.357106V326.069799c0-33.197387 27.004921-60.210319 60.210319-60.210319a32.04381 32.04381 0 0 1 3.877301 63.855302v218.939331c0.008011 17.696194-19.883184 29.360141-37.579378 29.360141zM498.012877 370.162081a32.04381 32.04381 0 0 1-3.861279-63.855302v-118.802425a32.04381 32.04381 0 0 1 64.08762 0v122.447408c0 33.205398-27.020943 60.210319-60.226341 60.210319zM526.195408 124.169763a32.04381 32.04381 0 0 1-32.04381-32.04381v-48.065714a32.04381 32.04381 0 0 1 64.08762 0v48.065714a32.04381 32.04381 0 0 1-32.04381 32.04381z" fill="#FF1A1A" p-id="24160"></path><path d="M427.452408 524.060489a12.016429 12.016429 0 0 1-12.016429-12.016429v-182.329278a12.016429 12.016429 0 1 1 24.032857 0v182.329278a12.016429 12.016429 0 0 1-12.016428 12.016429z" fill="#33363A" p-id="24161"></path><path d="M363.364788 560.670542a12.016429 12.016429 0 0 1-12.016429-12.016429V326.069799c0-39.822445 32.396292-72.226748 72.226748-72.226748 24.289208 0 44.060239 19.76302 44.060238 44.060239a12.016429 12.016429 0 1 1-24.032857 0c0-11.039093-8.980278-20.027381-20.027381-20.027382a48.249967 48.249967 0 0 0-48.19389 48.193891v222.584314a12.016429 12.016429 0 0 1-12.016429 12.016429z" fill="#33363A" p-id="24162"></path><path d="M498.012877 382.17851a44.108304 44.108304 0 0 1-44.060239-44.060239 12.016429 12.016429 0 1 1 24.032858 0c0 11.039093 8.980278 20.027381 20.027381 20.027381a48.257978 48.257978 0 0 0 48.209912-48.19389V187.504354c0-11.039093-8.980278-20.027381-20.027381-20.027382s-20.027381 8.988289-20.027381 20.027382v118.802425a12.016429 12.016429 0 1 1-24.032858 0v-118.802425c0-24.297219 19.771031-44.060239 44.060239-44.060239s44.060239 19.76302 44.060238 44.060239v122.447408c0 39.830456-32.404303 72.226748-72.242769 72.226748zM558.239218 104.142382a12.016429 12.016429 0 0 1-12.016429-12.016429v-48.065714c0-11.039093-8.980278-20.027381-20.027381-20.027382s-20.027381 8.988289-20.027381 20.027382v48.065714a12.016429 12.016429 0 1 1-24.032858 0v-48.065714c0-24.297219 19.771031-44.060239 44.060239-44.060239s44.060239 19.76302 44.060238 44.060239v48.065714a12.016429 12.016429 0 0 1-12.016428 12.016429zM920.558576 560.694575h-7.498251a12.016429 12.016429 0 0 1 0-24.032858h7.498251a12.016429 12.016429 0 0 1 0 24.032858zM844.879108 560.694575l-43.932063-0.008011a12.016429 12.016429 0 1 1 0-24.032858l43.932063 0.008011a12.016429 12.016429 0 1 1 0 24.032858z" fill="#33363A" p-id="24163"></path><path d="M872.837332 354.316417a12.016429 12.016429 0 0 1-8.547686-20.459973l5.287229-5.351316a12.016429 12.016429 0 1 1 17.087361 16.887088l-5.287228 5.351316a11.912286 11.912286 0 0 1-8.539676 3.572885zM793.528903 433.608825a12.016429 12.016429 0 0 1-8.499621-20.51605l31.122551-31.090506a12.016429 12.016429 0 0 1 16.99123 16.999241l-31.122551 31.090506a11.992396 11.992396 0 0 1-8.491609 3.516809z" fill="#33363A" p-id="24164"></path><path d="M878.124561 772.375983c-3.076206 0-6.144401-1.169599-8.49161-3.508797l-5.319272-5.311262a12.016429 12.016429 0 1 1 16.975208-17.007252l5.319273 5.311262a12.016429 12.016429 0 0 1-8.483599 20.516049zM824.635431 718.86282c-3.076206 0-6.152412-1.169599-8.491609-3.508797l-31.122551-31.082496a12.016429 12.016429 0 1 1 16.975209-17.007252l31.12255 31.082496a12.016429 12.016429 0 0 1-8.483599 20.516049z" fill="#33363A" p-id="24165"></path><path d="M110.923653 560.646509h-7.482229a12.016429 12.016429 0 0 1 0-24.032858h7.482229a12.016429 12.016429 0 0 1 0 24.032858zM223.060966 560.65452l-43.932063-0.008011a12.016429 12.016429 0 1 1 0-24.032858l43.932063 0.008011a12.016429 12.016429 0 1 1 0 24.032858z" fill="#33363A" p-id="24166"></path><path d="M145.875439 772.375983a12.016429 12.016429 0 0 1-8.547686-20.467984l5.287228-5.351316a12.016429 12.016429 0 1 1 17.087362 16.895099l-5.287229 5.351316a11.912286 11.912286 0 0 1-8.539675 3.572885zM199.356558 718.830776a12.02444 12.02444 0 0 1-8.499621-20.516049l31.122551-31.098517a12.02444 12.02444 0 0 1 16.99123 17.007252l-31.122551 31.098517a11.984385 11.984385 0 0 1-8.491609 3.508797z" fill="#33363A" p-id="24167"></path><path d="M151.194712 354.308406c-3.084217 0-6.168433-1.17761-8.515643-3.53283l-5.319272-5.335294a12.016429 12.016429 0 0 1 17.023274-16.967198l5.319272 5.335295a12.016429 12.016429 0 0 1-8.507631 20.500027zM230.49513 433.56877c-3.076206 0-6.144401-1.169599-8.49161-3.508797l-31.12255-31.074485a12.016429 12.016429 0 1 1 16.975208-17.007252l31.122551 31.074485a12.016429 12.016429 0 0 1-8.483599 20.516049z" fill="#33363A" p-id="24168"></path></svg>