<?xml version="1.0" standalone="no"?><!DOCTYPE svg PUBLIC "-//W3C//DTD SVG 1.1//EN" "http://www.w3.org/Graphics/SVG/1.1/DTD/svg11.dtd"><svg t="1753153177691" class="icon" viewBox="0 0 1024 1024" version="1.1" xmlns="http://www.w3.org/2000/svg" p-id="23754" xmlns:xlink="http://www.w3.org/1999/xlink" width="256" height="256"><path d="M952.370232 270.510242l-394.982688 732.577177-394.998608-607.650976-22.576353-149.015074 78.014196-115.970489L384.418928 50.311195l198.227702-27.408456 177.124066 27.408456 145.520357 84.350859z" fill="#AFD7DD" p-id="23755"></path><path d="M952.370232 270.510242l-394.982688 732.577177-394.998608-607.650976-22.576353-149.015074 78.014196-115.970489L384.418928 50.311195l198.227702-27.408456 177.124066 27.408456 145.520357 84.350859z" fill="#D8E5EA" p-id="23756"></path><path d="M952.370232 270.510242L588.855923 794.69399 162.388936 395.436443l-22.576353-149.015074 78.014196-115.970489L384.418928 50.311195l198.227702-27.408456 177.124066 27.408456 145.520357 84.350859z" fill="#F0FBFC" p-id="23757"></path><path d="M952.370232 270.510242L717.62711 611.177536 162.388936 395.436443l-22.576353-149.015074 78.014196-115.970489L384.418928 50.311195l198.227702-27.408456 177.124066 27.408456 145.520357 84.350859z" fill="#D8E5EA" p-id="23758"></path><path d="M557.387544 1015.028368a11.940948 11.940948 0 0 1-10.014475-5.437112L152.382421 401.94028a12.100161 12.100161 0 0 1-1.799103-4.720655L127.999005 248.212512a11.940948 11.940948 0 0 1 10.022436-13.59676 12.020555 12.020555 0 0 1 13.59676 10.022436l22.194242 146.45175 382.611865 588.609144 385.429928-714.86477a11.940948 11.940948 0 1 1 21.016069 11.33594l-394.982687 732.577177a11.925027 11.925027 0 0 1-10.022436 6.265017c-0.151252 0.015921-0.318425 0.015921-0.477638 0.015922z" fill="#33363A" p-id="23759"></path><path d="M847.950619 75.411069C780.078269 36.228837 686.294061 11.893184 583.132229 11.940948c-127.465643 0-242.926652 29.852371-326.155061 78.221172-83.395583 48.464329-135.004361 115.492852-134.582448 189.423243 0.50948 91.579113 65.165735 174.544821 169.020142 234.496342 103.854408 59.967442 247.289078 97.143595 405.275785 97.095831 11.58272-0.015921 20.992187-5.476915 20.944423-12.171807-0.015921-3.359387-2.364308-6.392388-6.153568-8.56564-3.797222-2.189174-9.035318-3.542481-14.814737-3.542481-146.618924-0.047764-279.251016-34.389931-375.614469-90.026789-96.363453-55.628898-156.163722-132.409195-156.64932-217.285456-0.38211-67.323066 46.458249-128.070651 122.410641-172.196435 75.769297-44.030257 180.467532-71.160091 296.366376-71.160091 91.873656 0 174.77568 21.565353 235.133193 56.40904 60.277907 34.795923 97.581429 82.742811 97.875972 135.856149 0.24678 41.872925-28.825449 79.670007-76.031998 107.094384-47.206549 27.424378-112.260835 44.3248-184.447847 44.284997-56.799111 0-108.0417-13.357941-145.385026-34.907372-37.15227-21.437982-59.927639-51.043574-60.110734-83.729929-0.238819-25.625275 17.529312-48.679266 46.354762-65.428436 28.84137-16.757131 68.660453-27.066149 112.818079-27.06615 34.174994 0 65.022444 7.92879 87.51919 20.928502s36.324365 30.831528 36.427853 50.637582c0.095528 15.157044-10.340861 28.761764-27.551748 38.760318-17.13128 9.95079-40.599224 16.048634-66.765822 16.048634-19.853817-0.063685-37.598066-4.649009-50.717188-12.132003-12.951949-7.570561-21.02403-17.87958-21.079754-29.326969 0.047764-8.517876 5.78738-16.088438 15.451587-21.724565 9.576641-5.564482 22.727605-8.971632 37.422932-9.019397 11.566799 0 20.880738-5.41323 20.848896-12.108121-0.015921-3.359387-2.364308-6.376466-6.153569-8.581562-3.805182-2.173253-9.051239-3.52656-14.830658-3.52656-26.262126-0.063685-50.080337 6.129687-67.108129 16.032714-17.13128 9.95079-27.734843 23.770448-27.655236 38.935452 0.103488 18.142281 13.023594 34.644671 33.562025 46.506013 20.538431 11.845421 49.069337 19.280651 80.306858 19.216966 37.733397 0 71.876548-8.860184 96.443059-23.149518 24.67796-14.337099 39.866846-34.111309 39.739475-55.987127-0.143291-26.397456-18.795053-50.422644-48.806635-67.74498-29.995662-17.338257-71.534241-28.156756-117.204388-28.108992-55.628898-0.047764-106.123188 13.047476-142.41571 34.238679-36.372128 21.055872-58.829072 50.327117-58.638017 82.60748 0.214937 39.29368 27.838331 75.068762 72.577084 100.908974 44.842241 25.872055 106.799841 42.008256 175.070223 42.05602 83.666244 0 159.475345-19.63888 214.141006-51.385881 54.633819-31.778844 88.482427-75.753376 88.219726-124.321193-0.318425-59.712702-42.454051-113.940528-110.238835-153.090917" fill="#F0FBFC" p-id="23760"></path><path d="M655.852604 416.142048c-68.039523-0.047764-132.329589-15.547115-181.040697-43.656107-50.414684-29.119993-78.316699-68.604728-78.547558-111.178189-0.206976-35.751199 22.735566-68.787823 64.60053-93.012027 39.572303-23.109715 92.168199-35.846727 148.099601-35.846727h0.612969c46.076139 0 89.700403 10.547838 122.864397 29.70908 35.154152 20.299612 54.609937 48.002612 54.76915 78.022156 0.151252 25.601393-16.080477 49.180786-45.678108 66.375751-27.559709 16.024753-64.274144 24.717763-102.867289 24.765527-32.089308 0-62.570569-7.387467-85.847457-20.809093-25.378495-14.663484-39.41309-34.827766-39.540461-56.783189-0.111449-18.89058 12.132003-36.865688 33.601829-49.324077 19.567234-11.383704 45.375603-17.648722 72.704454-17.648722h0.429874c7.594443 0 14.965989 1.815024 20.729486 5.102765 7.737734 4.497757 12.139964 11.375743 12.171807 18.898541a11.940948 11.940948 0 0 1-11.885224 11.996673h-0.055725a11.940948 11.940948 0 0 1-11.773775-9.966712c-0.111449-0.071646-0.230858-0.151252-0.390071-0.230858-2.133449-1.225937-5.421191-2.022001-9.178609-1.910552-22.878857 0-44.985532 5.246057-60.747584 14.416705-13.859461 8.048199-21.764368 18.444785-21.716604 28.538867 0.071646 12.943988 10.125924 26.142716 27.591551 36.236797 19.415982 11.200609 46.354761 17.616879 73.954273 17.616879h0.358228c34.469537 0 66.590688-7.650168 90.464624-21.53351 21.891739-12.72109 33.896372-28.913016 33.800845-45.598501-0.111449-21.183242-15.324217-41.594303-42.836162-57.475764-29.58967-17.091477-68.970917-26.508905-110.93937-26.508905H608.988362c-51.775952 0-100.096989 11.574759-136.110889 32.606749-34.167033 19.77421-52.88248 45.415407-52.723267 72.226816 0.183095 33.74512 23.842093 65.929956 66.60661 90.639758 45.144745 26.039228 105.199754 40.408169 169.107709 40.455933 78.95355 0 152.875981-17.680564 208.138689-49.769873 53.280511-30.998702 82.503992-71.462595 82.273134-113.940528-0.302504-53.423803-37.343326-104.14099-104.300203-142.805781a11.940948 11.940948 0 1 1 11.940948-20.681723c74.599084 43.082941 115.882923 101.092068 116.241152 163.360134 0.278622 51.393841-33.156033 99.237241-94.158358 134.717778-58.868875 34.174994-137.042283 52.993928-220.151283 52.993929z" fill="#33363A" p-id="23761"></path><path d="M696.404064 623.118484c-154.802453 0-300.720841-35.042703-410.959676-98.695917-112.32452-64.839349-174.473176-151.761492-174.990616-244.765558-0.429874-75.93647 49.475329-146.905506 140.521079-199.819829C339.568727 28.355772 457.529374 0 583.132229 0h0.302504c101.74484 0 197.797828 23.101755 270.48636 65.070207a11.940948 11.940948 0 1 1-11.940948 20.681723C772.794291 45.813438 680.793265 23.969464 583.14019 23.881897c-121.463326 0-235.157075 27.209441-320.160706 76.605163-83.339858 48.432486-129.025926 112.014055-128.643816 179.026657 0.477638 84.167764 58.375316 163.797968 163.049669 224.227127 106.648589 61.583451 248.347842 95.495744 399.002806 95.495744 1.225937 0.007961 2.372268-0.071646 3.39919-0.199016a23.571432 23.571432 0 0 0-3.128528-0.199016 11.940948 11.940948 0 0 1 0-23.881896c7.666089 0 15.053555 1.822985 20.793171 5.142568 7.658128 4.394269 12.08424 11.272255 12.116082 18.850777 0.039803 5.269939-2.173253 10.444349-6.225214 14.520193-5.978435 6.026199-15.937186 9.632365-26.644236 9.648286h-0.294544zM392.276072 725.93801c-43.95065 0-85.521072-10.030397-117.084978-28.252284-33.601828-19.3921-52.189905-45.893045-52.349117-74.607045-0.143291-24.072952 15.093359-46.227391 42.875965-62.387474a11.940948 11.940948 0 1 1 12.004633 20.64988c-20.068754 11.678247-31.078308 26.44522-30.998702 41.602263 0.111449 19.885659 14.456508 39.086704 40.408169 54.068614 27.989583 16.152123 65.324948 25.044149 105.14403 25.044149h0.103488a11.940948 11.940948 0 0 1 0.007961 23.881897h-0.111449zM517.66399 930.072501c-27.153716 0-52.922283-6.233175-72.569123-17.561155-21.692723-12.522074-33.681435-29.884213-33.792884-48.870321-0.095528-16.231729 9.879145-31.006662 28.085111-41.586342a11.940948 11.940948 0 0 1 12.004633 20.64988c-10.340861 6.010277-16.24765 13.588799-16.207847 20.793171 0.055724 10.014475 8.024317 20.339415 21.843974 28.323929 15.833697 9.122884 37.940373 14.368941 60.644096 14.368941h0.095528a11.940948 11.940948 0 0 1 0.007961 23.881897h-0.111449z" fill="#33363A" p-id="23762"></path><path d="M665.492929 522.5757a11.940948 11.940948 0 0 1 0-23.881897c62.387474 0 120.746869-13.939067 164.315409-39.261838 41.602264-24.17644 64.417436-55.605016 64.242302-88.498348a11.940948 11.940948 0 0 1 11.877263-12.004633h0.063685a11.940948 11.940948 0 0 1 11.940949 11.877263c0.214937 41.80924-26.811409 80.617322-76.127526 109.275598-47.166746 27.400496-109.777118 42.493855-176.312082 42.493855zM595.6145 796.843361a11.940948 11.940948 0 0 1 0-23.881897c30.624552 0 59.1873-6.79838 80.426267-19.121439 19.193084-11.152846 29.71704-25.282968 29.645394-39.763357a11.940948 11.940948 0 0 1 11.869303-12.012594h0.071646a11.940948 11.940948 0 0 1 11.940948 11.869302c0.135331 23.404259-14.623681 44.913887-41.530618 60.548569-24.829212 14.424666-57.650898 22.361416-92.42294 22.361416z" fill="#33363A" p-id="23763"></path><path d="M153.99843 547.962156m-22.632078 0a22.632077 22.632077 0 1 0 45.264155 0 22.632077 22.632077 0 1 0-45.264155 0Z" fill="#D8E5EA" p-id="23764"></path><path d="M846.239083 621.725374m-10.539877 0a10.539877 10.539877 0 1 0 21.079754 0 10.539877 10.539877 0 1 0-21.079754 0Z" fill="#D8E5EA" p-id="23765"></path><path d="M912.662598 578.546905m-30.576788 0a30.576788 30.576788 0 1 0 61.153576 0 30.576788 30.576788 0 1 0-61.153576 0Z" fill="#D8E5EA" p-id="23766"></path><path d="M88.299332 433.217604m-7.538718 0a7.538719 7.538719 0 1 0 15.077437 0 7.538719 7.538719 0 1 0-15.077437 0Z" fill="#D8E5EA" p-id="23767"></path><path d="M67.052405 152.589398m-13.708209 0a13.708209 13.708209 0 1 0 27.416418 0 13.708209 13.708209 0 1 0-27.416418 0Z" fill="#D8E5EA" p-id="23768"></path><path d="M956.947595 504.990663m-13.708209 0a13.708209 13.708209 0 1 0 27.416418 0 13.708209 13.708209 0 1 0-27.416418 0Z" fill="#D8E5EA" p-id="23769"></path><path d="M142.328143 55.493567m-19.933423 0a19.933423 19.933423 0 1 0 39.866846 0 19.933423 19.933423 0 1 0-39.866846 0Z" fill="#D8E5EA" p-id="23770"></path><path d="M153.831256 339.942876c49.188746 34.174994 109.641787 39.739476 161.855574 20.458825-0.12737-55.676662-26.437259-110.390087-75.626006-144.565081-49.172825-34.174994-109.633826-39.755397-161.855573-20.458824 0.135331 55.676662 26.453181 110.390087 75.626005 144.56508z" fill="#91EA57" p-id="23771"></path><path d="M78.205251 195.377796c0.135331 55.676662 26.44522 110.390087 75.626005 144.56508 49.188746 34.174994 109.641787 39.739476 161.855574 20.458825" fill="#34C166" p-id="23772"></path><path d="M339.74386 362.574954l-12.323058-8.55768c-2.133449-59.195261-31.866411-114.155466-80.537716-147.980192-50.422644-35.034742-115.023174-43.210312-172.809404-21.859896a11.932988 11.932988 0 0 0-7.801419 11.232452c0.151252 61.607332 30.337969 119.305995 80.752653 154.340737h0.00796a188.030132 188.030132 0 0 0 107.341165 33.562025c19.949344 0 39.970334-3.335505 59.346513-9.751774l12.410625 8.621365a11.901145 11.901145 0 0 0 16.605879-2.993198 11.940948 11.940948 0 0 0-2.993198-16.613839zM233.254484 225.644119c37.343326 25.951661 61.909837 66.160814 68.604728 110.612985L105.65351 199.931277c43.990453-9.242294 90.257648-0.238819 127.600974 25.712842zM160.645558 330.143338c-37.335365-25.9437-61.901876-66.152853-68.596768-110.597063l196.18182 136.309905c-43.990453 9.218412-90.249687 0.214937-127.585052-25.712842z" fill="#33363A" p-id="23773"></path><path d="M523.156826 126.605894c-21.294691 52.070495-14.082358 108.622826 14.249532 152.573477 51.027652-11.471271 95.82213-46.752793 117.124781-98.807367 21.318573-52.070495 14.09828-108.638747-14.22565-152.589398-51.035613 11.479232-95.838051 46.768714-117.148663 98.823288z" fill="#91EA57" p-id="23774"></path><path d="M640.305489 27.782606c-51.027652 11.471271-95.838051 46.768714-117.148663 98.823288-21.294691 52.070495-14.082358 108.622826 14.249532 152.573477" fill="#34C166" p-id="23775"></path><path d="M650.335886 21.318573a11.980751 11.980751 0 0 0-12.657405-5.182372c-56.695622 12.752933-103.63947 52.357078-125.578973 105.956015v0.00796c-21.103636 51.6247-16.510351 110.222913 11.988712 158.114077l-5.198293 12.705169a11.95687 11.95687 0 0 0 11.041397 16.462587c4.712694 0 9.162688-2.802143 11.065279-7.419309l5.198293-12.71313c53.901441-14.161965 98.258083-52.731228 119.37764-104.347966 21.939502-53.590976 16.23969-114.744552-15.23665-163.583031zM534.206183 131.127533A153.727768 153.727768 0 0 1 619.639688 46.681147L535.933641 251.245512a153.839217 153.839217 0 0 1-1.727458-120.117979z m109.267638 44.722832a153.687965 153.687965 0 0 1-85.425544 84.446386l83.714008-204.588247a153.759611 153.759611 0 0 1 1.711536 120.141861z" fill="#33363A" p-id="23776"></path><path d="M709.348052 515.251918c-52.524251 36.491538-117.077018 42.446091-172.849206 21.843975 0.143291-59.457962 28.236362-117.889002 80.760613-154.38054 52.524251-36.507459 117.092939-42.446091 172.865128-21.843975-0.159213 59.457962-28.252284 117.889002-80.776535 154.38054z" fill="#91EA57" p-id="23777"></path><path d="M790.124587 360.871378c-0.159213 59.457962-28.252284 117.889002-80.768574 154.38054-52.524251 36.491538-117.077018 42.446091-172.849207 21.843975" fill="#34C166" p-id="23778"></path><path d="M794.256155 349.670769c-61.487923-22.703723-130.2041-14.034595-183.810997 23.245046-51.887401 36.045743-83.530914 94.675799-85.680284 157.795651l-13.493272 9.377625a11.925027 11.925027 0 0 0 6.814301 21.748447c2.356347 0 4.728616-0.692575 6.79838-2.14141l13.588799-9.44131a200.942278 200.942278 0 0 0 63.517885 10.500074 199.987002 199.987002 0 0 0 114.163426-35.695475c53.614858-37.247798 85.736009-98.616312 85.903182-164.148236a11.925027 11.925027 0 0 0-7.80142-11.240412z m-170.174434 42.852083c40.575342-28.196559 90.966144-37.733397 138.714016-27.185559L550.222975 513.030902c6.766537-48.424526 33.275443-92.319451 73.858746-120.50805z m78.459991 112.921567c-40.591264 28.188599-90.974105 37.733397-138.698095 27.185559L776.400457 384.94433c-6.782459 48.424526-33.291364 92.311491-73.858745 120.500089z" fill="#33363A" p-id="23779"></path><path d="M598.305194 793.205352c-16.215808 61.862073-61.432199 108.336243-117.212348 128.906517-38.521499-45.288037-55.127378-107.970054-38.911571-169.832127 16.215808-61.862073 61.44812-108.336243 117.220309-128.906517 38.52946 45.288037 55.135339 107.962094 38.90361 169.832127z" fill="#91EA57" p-id="23780"></path><path d="M559.409545 623.373225c38.52946 45.295997 55.135339 107.970054 38.903609 169.832127-16.215808 61.862073-61.432199 108.336243-117.212348 128.906517" fill="#34C166" p-id="23781"></path><path d="M568.500587 615.63549a11.972791 11.972791 0 0 0-13.230571-3.470836c-61.487923 22.679841-108.073543 73.92243-124.631657 137.090047-16.016792 61.105813-1.982197 126.239705 37.391089 175.611546l-4.171371 15.897383a11.948909 11.948909 0 0 0 23.101754 6.066002l4.171372-15.905344c58.534528-23.714723 102.708076-73.588084 118.732829-134.701857v0.007961c16.558115-63.159656 1.106528-130.673777-41.363445-180.594902zM453.740113 755.304782c12.522074-47.787675 44.635265-87.77393 87.781891-110.780158l-65.643373 250.369843c-26.309889-41.204232-34.668553-91.79405-22.138518-139.589685z m133.014204 34.867569c-12.522074 47.795636-44.627304 87.789852-87.76597 110.788118l65.643373-250.361882c26.309889 41.204232 34.660593 91.786089 22.122597 139.573764z" fill="#33363A" p-id="23782"></path><path d="M717.619149 1024h-232.45046a11.940948 11.940948 0 0 1 0-23.881897h232.45046a11.940948 11.940948 0 0 1 0 23.881897z" fill="#33363A" p-id="23783"></path><path d="M829.386425 1024h-43.640186a11.940948 11.940948 0 0 1 0-23.881897h43.640186a11.940948 11.940948 0 0 1 0 23.881897z" fill="#33363A" p-id="23784"></path><path d="M927.819642 1024h-43.656107a11.940948 11.940948 0 0 1 0-23.881897h43.656107a11.940948 11.940948 0 0 1 0 23.881897z" fill="#33363A" p-id="23785"></path></svg>