<?xml version="1.0" standalone="no"?><!DOCTYPE svg PUBLIC "-//W3C//DTD SVG 1.1//EN" "http://www.w3.org/Graphics/SVG/1.1/DTD/svg11.dtd"><svg t="1753152127647" class="icon" viewBox="0 0 1024 1024" version="1.1" xmlns="http://www.w3.org/2000/svg" p-id="6553" xmlns:xlink="http://www.w3.org/1999/xlink" width="256" height="256"><path d="M766.975622 947.322563c-68.804415 47.80164-153.379024 55.594161-226.441955 28.618193 0.185153-77.893006 36.998373-154.449691 105.802787-202.24328 68.804415-47.80969 153.395124-55.610261 226.441955-28.618193-0.177103 77.876905-36.998373 154.42554-105.802787 202.24328z" fill="#91EA57" p-id="6554"></path><path d="M872.778409 745.079283c-0.169053 77.876905-36.998373 154.43359-105.802787 202.24328-68.804415 47.80164-153.379024 55.594161-226.441955 28.618193" fill="#34C166" p-id="6555"></path><path d="M876.964474 733.744707c-79.422529-29.350754-168.223454-18.136931-237.510876 30.026965-67.532495 46.916126-108.53983 123.448661-110.777765 205.704834l-19.143196 13.298806a12.059087 12.059087 0 0 0 6.890906 21.99294c2.382837 0 4.781774-0.700361 6.874807-2.165483l19.094895-13.266606a259.632619 259.632619 0 0 0 83.93865 14.007217 258.41705 258.41705 0 0 0 147.526583-46.119164h0.00805c69.303523-48.155845 110.793865-127.465673 110.979018-212.136883a12.075187 12.075187 0 0 0-7.881072-11.342626z m-223.729063 49.862472c56.21402-39.059205 126.588209-51.263193 192.373828-34.333781L553.945174 951.927234c7.09216-67.580796 43.076217-129.268901 99.290237-168.320055z m106.849304 153.797631c-56.19792 39.035054-126.539909 51.247093-192.357727 34.333781l291.647964-202.645787c-7.08411 67.556646-43.068167 129.244751-99.290237 168.312006z" fill="#33363A" p-id="6556"></path><path d="M257.024378 947.322563c68.820515 47.80164 153.395124 55.594161 226.441955 28.618193-0.169053-77.893006-36.998373-154.449691-105.802787-202.24328-68.804415-47.80969-153.395124-55.610261-226.441955-28.618193 0.193203 77.876905 36.998373 154.42554 105.802787 202.24328z" fill="#91EA57" p-id="6557"></path><path d="M151.221591 745.079283c0.185153 77.876905 36.998373 154.43359 105.802787 202.24328 68.820515 47.80164 153.395124 55.594161 226.441955 28.618193" fill="#34C166" p-id="6558"></path><path d="M514.467363 982.783362l-19.143196-13.298806c-2.221834-82.248123-43.229169-158.788708-110.769715-205.704834-69.303523-48.155845-158.096397-59.385769-237.518926-30.026965a12.067137 12.067137 0 0 0-7.889122 11.358726c0.201253 84.679261 41.699645 163.972988 110.979018 212.128834l0.00805 0.00805a258.594153 258.594153 0 0 0 147.534633 46.111114c28.215687 0 56.584326-4.661022 83.930599-14.007217l19.094896 13.266605a12.034936 12.034936 0 0 0 16.79256-3.026847 12.059087 12.059087 0 0 0-3.018797-16.80866zM370.780689 783.607179c56.22207 39.059205 92.206127 100.75536 99.282187 168.320055L178.390761 749.265348c65.785618-16.937462 136.167858-4.733473 192.389928 34.341831z m-106.873454 153.789581c-56.19792-39.051154-92.181977-100.739259-99.282187-168.295905l291.647964 202.645786c-65.769518 16.905262-136.143707 4.709323-192.365777-34.349881z" fill="#33363A" p-id="6559"></path><path d="M480.189933 1011.924813V642.295292a31.814092 31.814092 0 0 1 63.628184 0v369.629521" fill="#663C17" p-id="6560"></path><path d="M543.826168 1024a12.075187 12.075187 0 0 1-12.075187-12.075187V642.295292a19.763056 19.763056 0 0 0-19.746956-19.730856 19.755006 19.755006 0 0 0-19.730855 19.730856v369.629521a12.075187 12.075187 0 0 1-24.150374 0V642.295292a43.92953 43.92953 0 0 1 43.881229-43.881229 43.93758 43.93758 0 0 1 43.89733 43.881229v369.629521a12.075187 12.075187 0 0 1-12.075187 12.075187z" fill="#33363A" p-id="6561"></path><path d="M908.142607 378.025801c0 166.444376-177.352295 301.404715-396.138582 301.404716S115.865443 544.470178 115.865443 378.025801c0-166.476577 177.352295-365.950614 396.138582-365.950614s396.138582 199.474038 396.138582 365.950614z" fill="#FFFCC0" p-id="6562"></path><path d="M908.142607 378.025801c0 166.444376-177.352295 301.404715-396.138582 301.404716S115.865443 544.470178 115.865443 378.025801c0-166.476577 177.352295-281.174752 396.138582-281.174752s396.138582 114.698175 396.138582 281.174752z" fill="#FFF800" p-id="6563"></path><path d="M596.353231 511.875223c0 11.213824-37.763135 13.226355-84.341156 13.226355-46.586071 0-84.357256-2.012531-84.357256-13.226355 0-11.229924 37.763135-40.548478 84.357256-40.548478 46.578021 0 84.341155 29.318554 84.341156 40.548478z" fill="#FFFCC0" p-id="6564"></path><path d="M908.142607 378.025801c0 166.444376-177.352295 301.404715-396.138582 301.404716S115.865443 544.470178 115.865443 378.025801c0-166.492677 50.40988 147.639285 396.138582 147.639286s396.138582-314.131962 396.138582-147.639286z" fill="#EADF11" p-id="6565"></path><path d="M512.004025 691.505703c-225.089534 0-408.213769-140.627627-408.213768-313.479902C103.790257 206.799651 285.876025 0 512.004025 0s408.213769 206.799651 408.213769 378.025801c0 172.860326-183.124234 313.479902-408.213769 313.479902z m0-667.355329C299.255332 24.150374 127.94063 217.73977 127.94063 378.025801c0 159.537369 172.288767 289.329528 384.063395 289.329529s384.063395-129.792159 384.063395-289.329529C896.06742 217.73977 724.744668 24.150374 512.004025 24.150374z" fill="#33363A" p-id="6566"></path><path d="M381.889861 409.155633a64.803503 64.803503 0 0 1-64.827653 64.811553 64.803503 64.803503 0 1 1 0-129.623106 64.811553 64.811553 0 0 1 64.827653 64.811553z" fill="#6D5C4D" p-id="6567"></path><path d="M284.845609 388.088457m-26.404409 0a26.404409 26.404409 0 1 0 52.808818 0 26.404409 26.404409 0 1 0-52.808818 0Z" fill="#FFFFFF" p-id="6568"></path><path d="M317.070258 332.268893c-26.106554 0-49.186261 13.105603-63.088827 33.061862a39.252408 39.252408 0 0 0-2.318436 3.606456 76.347382 76.347382 0 0 0-11.479477 40.218422c0 42.400006 34.486734 76.88674 76.88674 76.88674 42.408056 0 76.90284-34.486734 76.90284-76.88674s-34.502834-76.88674-76.90284-76.88674z m0 129.623106a52.792717 52.792717 0 0 1-48.671054-32.474202c5.538486-0.144902 12.27644-1.610025 19.875758-3.18785a37.433079 37.433079 0 0 0 7.816671-1.529523c6.593052-1.191418 13.628861-2.149383 20.978625-2.149384 19.424951 0 36.80517 6.544751 48.687153 6.866757a52.824918 52.824918 0 0 1-48.687153 32.474202z" fill="#33363A" p-id="6569"></path><path d="M284.837559 388.096507m-14.329222 0a14.329222 14.329222 0 1 0 28.658444 0 14.329222 14.329222 0 1 0-28.658444 0Z" fill="#FFFFFF" p-id="6570"></path><path d="M771.741295 409.155633a64.803503 64.803503 0 0 1-64.811553 64.811553 64.803503 64.803503 0 1 1 0-129.623106 64.803503 64.803503 0 0 1 64.811553 64.811553z" fill="#6D5C4D" p-id="6571"></path><path d="M674.697043 388.088457m-26.404408 0a26.404409 26.404409 0 1 0 52.808817 0 26.404409 26.404409 0 1 0-52.808817 0Z" fill="#FFFFFF" p-id="6572"></path><path d="M706.929742 332.268893c-26.098504 0-49.170161 13.089503-63.072726 33.021611a39.751515 39.751515 0 0 0-2.366737 3.678907 76.315181 76.315181 0 0 0-11.463377 40.186222c0 42.400006 34.494784 76.88674 76.90284 76.88674 42.400006 0 76.88674-34.486734 76.88674-76.88674s-34.486734-76.88674-76.88674-76.88674z m0 129.623106a52.824918 52.824918 0 0 1-48.687153-32.474202c5.546536-0.144902 12.28449-1.610025 19.883807-3.18785 2.696792-0.241504 5.288932-0.748662 7.792521-1.521473 6.601102-1.191418 13.644961-2.157433 21.010825-2.157434 19.416901 0 36.79712 6.544751 48.671054 6.866757a52.792717 52.792717 0 0 1-48.671054 32.474202z" fill="#33363A" p-id="6573"></path><path d="M674.688993 388.096507m-14.329222 0a14.329222 14.329222 0 1 0 28.658444 0 14.329222 14.329222 0 1 0-28.658444 0Z" fill="#FFFFFF" p-id="6574"></path><path d="M688.100501 697.454746c0 17.782725-14.401673 32.200498-32.200499 32.200498h-287.791954a32.200498 32.200498 0 0 1-32.200499-32.200498V543.914719a32.200498 32.200498 0 0 1 32.200499-32.200498h287.791954c17.798825 0 32.200498 14.417773 32.200499 32.200498v153.540027z" fill="#E8A113" p-id="6575"></path><path d="M655.900002 557.55163h-287.791954a32.200498 32.200498 0 0 0-32.200499 32.200498v107.702618a32.200498 32.200498 0 0 0 32.200499 32.200498h287.791954c17.798825 0 32.200498-14.417773 32.200499-32.200498V589.752128a32.200498 32.200498 0 0 0-32.200499-32.200498z" fill="#C68510" p-id="6576"></path><path d="M655.900002 741.730431h-287.791954a44.332036 44.332036 0 0 1-44.275686-44.275685V543.914719c0-24.407978 19.867708-44.275685 44.275686-44.275685h287.791954c24.407978 0 44.275685 19.867708 44.275686 44.275685v153.531976a44.332036 44.332036 0 0 1-44.275686 44.283736z m-287.791954-217.941024a20.141412 20.141412 0 0 0-20.125312 20.125312v153.531976c0 11.101122 9.02419 20.125312 20.125312 20.125312h287.791954c11.101122 0 20.125312-9.02419 20.125312-20.125312V543.914719c0-11.101122-9.02419-20.125312-20.125312-20.125312h-287.791954z" fill="#33363A" p-id="6577"></path><path d="M613.363144 662.654057a16.889161 16.889161 0 0 1-16.889161 16.889161H427.517967a16.889161 16.889161 0 0 1-16.889161-16.889161V582.11256c0-9.322044 7.559067-16.889161 16.889161-16.889161h168.956016c9.338145 0 16.889161 7.559067 16.889161 16.889161v80.541497z" fill="#965514" p-id="6578"></path><path d="M596.482033 565.223399H427.517967a16.889161 16.889161 0 0 0-16.889161 16.889161v28.585993c0 9.322044 7.559067 16.889161 16.889161 16.889161h168.956016c9.338145 0 16.889161-7.559067 16.889161-16.889161v-28.585993a16.873061 16.873061 0 0 0-16.881111-16.889161z" fill="#663C17" p-id="6579"></path><path d="M596.482033 691.618405H427.517967a29.004599 29.004599 0 0 1-28.964348-28.964348V582.11256a29.004599 29.004599 0 0 1 28.964348-28.964348h168.956016a29.004599 29.004599 0 0 1 28.964348 28.964348v80.549547a28.996549 28.996549 0 0 1-28.956298 28.956298zM427.517967 577.298586a4.830075 4.830075 0 0 0-4.813974 4.813974v80.549547a4.830075 4.830075 0 0 0 4.813974 4.813975h168.956016a4.830075 4.830075 0 0 0 4.813974-4.813975V582.11256a4.830075 4.830075 0 0 0-4.813974-4.813974H427.517967z" fill="#33363A" p-id="6580"></path></svg>