<?xml version="1.0" standalone="no"?><!DOCTYPE svg PUBLIC "-//W3C//DTD SVG 1.1//EN" "http://www.w3.org/Graphics/SVG/1.1/DTD/svg11.dtd"><svg t="1753152113497" class="icon" viewBox="0 0 1024 1024" version="1.1" xmlns="http://www.w3.org/2000/svg" p-id="6153" xmlns:xlink="http://www.w3.org/1999/xlink" width="256" height="256"><path d="M74.314925 915.14411h777.785942c23.556459 0 42.629772-4.172038 42.629772 16.967352v79.930823H31.709084v-58.631891c0-21.147367 19.065336-38.266283 42.605841-38.266284z" fill="#899BA3" p-id="6154"></path><path d="M599.10625 797.353837l-2.632452-72.336597a691.672844 691.672844 0 0 1-0.686033-4.562918l45.182453-36.710743a68.363988 68.363988 0 0 0 25.287496-53.111719V456.842148c0-1.483746-0.143588-2.94356-0.231337-4.411352v-0.031908c-0.079771-0.997141-0.079771-2.026191-0.167519-3.023332 0.263245-3.366348 0.406834-78.199787 0.406833-81.502318 0-80.241931-72.200986-145.51877-160.96249-145.51877s-160.96249 65.284816-160.96249 145.51877c0 3.302531 0.191451 78.13597 0.422787 81.502318-0.095726 0.997141-0.095726 2.026191-0.175496 3.023332v0.031908c-0.095726 1.467792-0.239314 2.927606-0.239314 4.411352v173.781735l-0.015955 166.721977c-125.57595 37.58025-312.615672 54.332219-312.615672 142.120514v72.559957h863.029533V942.098826c-0.015954-70.581629-163.674714-105.266182-295.640344-144.744989z" fill="#7C8D96" p-id="6155"></path><path d="M660.570022 802.658627c-16.783877-4.770323-33.503938-9.516714-49.809188-14.326922l-2.265504-62.18969 11.479087-9.317286c0.845576-0.686033 1.531609-1.4997 2.145848-2.345276l26.396316-21.44252a80.010595 80.010595 0 0 0 29.714802-62.405073V456.850125c0-1.403975-0.087748-2.791995-0.191451-4.172038l-0.039885-0.263245c0-0.311108-0.007977-0.622216-0.031909-0.933324l-0.047863-0.941301a43.236034 43.236034 0 0 0-0.071794-1.435883c0.295154-10.824963 0.390879-80.481245 0.39088-81.215141 0-86.839016-77.577571-157.484463-172.928183-157.484463s-172.928182 70.645446-172.928182 157.484463c0 0.725919 0.143588 70.765103 0.406833 81.207164-0.031909 0.446719-0.047863 0.893438-0.071794 1.348134l-0.143588 2.297413a54.268402 54.268402 0 0 0-0.191451 4.116198l-0.015955 331.545397c-27.002579 7.713883-57.004557 14.725778-86.121074 21.514315-111.352731 26.005438-226.502575 52.888359-226.502575 129.572491v72.559957a11.965692 11.965692 0 1 0 23.931384 0v-72.559957c0-57.69059 105.74481-82.387779 208.011592-106.263323 32.570614-7.602203 66.250049-15.467651 96.076531-24.394058a11.965692 11.965692 0 0 0 8.535527-11.47111l0.015954-340.511689c0-0.789736 0.071794-1.571494 0.127634-2.353253l0.05584-1.068935 0.015954 0.007977a52.010875 52.010875 0 0 0 0.119657-1.946419l0.05584-0.989164c0.047863-0.550422 0.05584-1.260386 0.031908-1.818785-0.207405-4.459215-0.398856-75.192409-0.398856-80.80033 0-73.636869 66.840356-133.553078 148.996798-133.553079s148.996798 59.916209 148.996798 133.553079c0 6.150366-0.151565 76.085848-0.366947 80.561016-0.047863 0.686033-0.047863 1.380043 0.015954 2.058099l0.223359 3.884861c0.05584 0.821644 0.127634 1.635311 0.127634 2.464933v173.781735a56.158982 56.158982 0 0 1-20.868167 43.826342l-45.182453 36.710743a11.941761 11.941761 0 0 0-2.201687 2.377184l-26.348454 21.394658a11.965692 11.965692 0 0 0 15.084749 18.586708l10.458015-8.487664 1.922488 52.760725a11.965692 11.965692 0 0 0 8.527549 11.032368c18.985565 5.679715 38.625254 11.255728 58.344715 16.855672 107.220578 30.464652 228.744148 64.99764 228.744148 116.418207v69.943459a11.965692 11.965692 0 1 0 23.931384 0V942.098826c-0.031909-69.488763-119.585127-103.463351-246.158218-139.440199z" fill="#33363A" p-id="6156"></path><path d="M541.511385 594.447607c-25.518833 0-46.626314-4.626734-58.903113-13.449438-8.63923-6.198229-11.423247-13.393598-12.228938-18.33144a11.981646 11.981646 0 0 1 9.875685-13.744592 11.957715 11.957715 0 0 1 13.744591 9.875685c0.05584 0.358971 0.670079 1.395997 2.568636 2.760086 10.840917 7.793654 42.52607 12.2768 82.13251 5.735555a11.965692 11.965692 0 0 1 3.892839 23.620277 255.539321 255.539321 0 0 1-41.08221 3.533867z" fill="#33363A" p-id="6157"></path><path d="M398.72877 420.05961a40.978507 40.978507 0 0 0 40.994461 40.994462h250.154759a40.986484 40.986484 0 0 0 41.010416-40.994462v-66.983944a41.002438 41.002438 0 0 0-41.010416-41.010416H439.723231a40.986484 40.986484 0 0 0-40.994461 41.010416v66.983944z" fill="#B2C4CC" p-id="6158"></path><path d="M476.960465 420.05961c0 22.655044 14.023791 40.994461 31.334159 40.994462h191.251646c17.326322 0 31.350113-18.339417 31.350113-40.994462v-66.983944c0-22.655044-14.023791-41.010415-31.350113-41.010416H508.294624c-17.310368 0-31.334159 18.355372-31.334159 41.010416v66.983944z" fill="#FFFFFF" p-id="6159"></path><path d="M508.294624 366.405447h191.251646c17.326322 0 31.350113 18.355372 31.350113 41.010415v12.651725c0 22.655044-14.023791 40.994461-31.350113 40.994462H508.294624c-17.310368 0-31.334159-18.339417-31.334159-40.994462v-12.651725c0-22.663021 14.023791-41.010415 31.334159-41.010415z" fill="#D8E2EA" p-id="6160"></path><path d="M540.243022 194.091503a11.965692 11.965692 0 0 0 12.899016-10.952597c0.662102-8.136671 1.356112-16.042005 2.08203-23.708024a11.965692 11.965692 0 1 0-23.819704-2.241573c-0.733896 7.761746-1.44386 15.778759-2.113939 24.003178a11.957715 11.957715 0 0 0 10.952597 12.899016zM546.521022 127.107559a11.965692 11.965692 0 0 0 13.369666-10.378244c1.978328-15.683034 4.124175-29.882322 6.357771-42.199007a11.965692 11.965692 0 1 0-23.540504-4.283718 817.56788 817.56788 0 0 0-6.565177 43.491302 11.981646 11.981646 0 0 0 10.378244 13.369667z" fill="#33363A" p-id="6161"></path><path d="M1004.264585 425.835051c-0.007977-14.430625-10.210724-30.951257-131.885858-44.49642-37.875404-4.219901-81.797471-7.506478-129.524629-9.803891v-18.451097c0-29.212243-19.432284-52.976108-43.315805-52.976108h-65.213022c-2.209664-62.772021-6.070594-120.327-11.407294-168.237631C609.372814 10.186793 592.844205 0 578.421557 0c-1.132752 0-2.209664 0.207405-3.254668 0.502559-13.058559 2.504818-19.200947 19.129153-21.594086 25.782078a11.965692 11.965692 0 0 0 22.52741 8.104762c0.957255-2.664361 1.794854-4.594826 2.544704-6.198228 12.157143 24.60944 26.484065 120.630131 31.796832 271.916364H439.723231a53.02397 53.02397 0 0 0-52.960153 52.976108v18.945679c-53.24733 2.289436-104.819463 5.432424-150.751767 9.285377-180.913288 15.204406-180.913288 32.16378-180.913287 44.544283v0.039886c0 1.204546 0.239314 2.345276 0.574353 3.438142 2.791995 11.846035 20.134271 16.959374 53.741912 22.535387a11.973669 11.973669 0 0 0 3.924747-23.604322 377.405907 377.405907 0 0 1-19.926866-3.789136c41.999579-11.160002 155.362546-22.631112 293.366862-28.590027v24.178675c0 11.47111 3.709365 22.080691 9.939502 30.759806l-59.908232 48.652504a11.965692 11.965692 0 1 0 15.092726 18.570755l63.059197-51.213163a52.649045 52.649045 0 0 0 24.77696 6.190252H591.336527l5.871167 14.207265-27.768383 20.022591a11.965692 11.965692 0 0 0 13.983905 19.41633l35.44238-25.550741a11.965692 11.965692 0 0 0 4.068336-14.271082l-5.703647-13.816386h82.331939c23.883521 0 43.315805-23.763865 43.315805-52.960153v-24.625395c128.982184 6.214183 210.827518 19.105222 233.235271 30.19343-1.603403 0.757827-3.541845 1.595426-6.206205 2.552681a11.965692 11.965692 0 0 0 8.104762 22.511455c6.644948-2.393138 23.285237-8.535527 25.7741-21.61004a13.002719 13.002719 0 0 0 0.478628-3.262645zM689.87799 324.03892a29.076632 29.076632 0 0 1 29.044724 29.044723v17.390139a3345.089003 3345.089003 0 0 0-82.882361-2.24955 3688.943108 3688.943108 0 0 0-0.941301-44.185312h54.778938z m-78.694368 0c0.390879 14.183334 0.701987 28.837318 0.933324 43.898135a3926.470074 3926.470074 0 0 0-123.190789 0.813668v-15.66708c0-15.746851 8.870566-29.044723 19.368467-29.044723h102.888998z m-200.48916 29.044723a29.068655 29.068655 0 0 1 29.028769-29.044723h32.403094a61.360069 61.360069 0 0 0-7.131552 29.044723v16.233456c-18.132012 0.478628-36.272001 1.060958-54.300311 1.739014v-17.97247z m0 66.975967v-25.143907c17.788996-0.670079 35.897076-1.260386 54.300311-1.731037v26.874944c0 10.713283 2.632452 20.684693 7.123575 29.028769h-32.395117a29.060678 29.060678 0 0 1-29.028769-29.028769z m308.228252 0a29.068655 29.068655 0 0 1-29.044724 29.028769H607.330669l-3.310508-8.02499a11.925806 11.925806 0 1 0-22.455616 8.02499h-73.269921c-10.497901 0-19.368467-13.289895-19.368467-29.028769v-27.433343a4408.639604 4408.639604 0 0 1 89.479446-0.925347c11.566836 0 22.854472 0.063817 33.990542 0.159543 0.095726 11.128094 0.159543 22.407753 0.159543 33.974588a11.965692 11.965692 0 1 0 23.931384 0c0-11.311568-0.063817-22.535387-0.159542-33.695389 29.172357 0.438742 56.757266 1.196569 82.595184 2.233596v25.686352z" fill="#33363A" p-id="6162"></path><path d="M844.817749 449.040517c-7.66602 0.725919-15.571354 1.419929-23.700047 2.08203a11.965692 11.965692 0 1 0 1.954396 23.851613c8.232396-0.678056 16.24941-1.372066 24.003178-2.113939a11.965692 11.965692 0 0 0-2.257527-23.819704zM929.7263 438.008149a789.472435 789.472435 0 0 1-42.19103 6.365748 11.973669 11.973669 0 0 0 2.983446 23.74791c16.073913-2.026191 30.703966-4.235855 43.491302-6.565176a11.965692 11.965692 0 0 0-4.283718-23.548482zM207.68453 439.906705a2495.628565 2495.628565 0 0 1-47.41605-5.145248 11.965692 11.965692 0 1 0-2.83188 23.763865c15.100703 1.802831 31.262365 3.525891 47.862768 5.185133a11.965692 11.965692 0 0 0 2.385162-23.80375zM302.939416 448.434255c-15.363949-1.27634-31.445839-2.632452-47.679295-4.076313a11.965692 11.965692 0 1 0-2.105961 23.835659c16.281318 1.44386 32.403094 2.815926 47.814905 4.092267a11.965692 11.965692 0 0 0 1.970351-23.851613z" fill="#33363A" p-id="6163"></path><path d="M611.853701 379.735228m-98.206424 0a98.206424 98.206424 0 1 0 196.412847 0 98.206424 98.206424 0 1 0-196.412847 0Z" fill="#FF8F8F" p-id="6164"></path><path d="M710.060124 379.735228c0 41.55286-43.96993 75.224318-98.206423 75.224318-54.22054 0-98.206424-33.671458-98.206424-75.224318 0-41.504997 43.985884-75.224318 98.206424-75.224318 54.236494 0.007977 98.206424 33.71932 98.206423 75.224318z" fill="#FF1A1A" p-id="6165"></path><path d="M513.655254 379.735228c0 54.236494 43.985884 98.206424 98.206424 98.206424 54.236494 0 98.206424-43.96993 98.206424-98.206424H513.655254z" fill="#FFFFFF" p-id="6166"></path><path d="M611.853701 454.959546c54.236494 0 98.206424-33.671458 98.206423-75.224318H513.655254c0 41.55286 43.977907 75.224318 98.198447 75.224318z" fill="#DCE6EA" p-id="6167"></path><path d="M611.853701 269.571089c-60.74583 0-110.172116 49.418308-110.172116 110.172116s49.418308 110.172116 110.172116 110.172116 110.172116-49.418308 110.172116-110.172116-49.426286-110.172116-110.172116-110.172116z m0 23.931384c43.483325 0 79.452196 32.379163 85.307407 74.27504H526.546293c5.855212-41.895877 41.824083-74.27504 85.307408-74.27504z m0 172.473487c-43.483325 0-79.452196-32.379163-85.307408-74.27504h170.614815c-5.855212 41.895877-41.824083 74.27504-85.307407 74.27504z" fill="#33363A" p-id="6168"></path><path d="M665.43607 368.040758a32.44298 32.44298 0 0 1 0 45.900395 32.435003 32.435003 0 0 1-45.916349 0 32.466911 32.466911 0 1 1 45.916349-45.900395z" fill="#A7BBC1" p-id="6169"></path><path d="M642.477895 379.95061m-32.466911 0a32.466911 32.466911 0 1 0 64.933823 0 32.466911 32.466911 0 1 0-64.933823 0Z" fill="#FFFFFF" p-id="6170"></path><path d="M619.519721 402.908785a32.466911 32.466911 0 0 1 0-45.916349 32.466911 32.466911 0 0 1 45.916349 0" fill="#D8E5EA" p-id="6171"></path><path d="M642.477895 424.359282a44.273061 44.273061 0 0 1-31.41393-12.994741 44.113518 44.113518 0 0 1-13.018673-31.413931c0-11.877944 4.626734-23.037946 13.018673-31.421907a44.504398 44.504398 0 0 1 62.827861 0c8.399916 8.391939 13.018673 19.543964 13.018673 31.421907s-4.626734 23.037946-13.018673 31.421908a44.296992 44.296992 0 0 1-31.413931 12.986764z m0-64.893937c-5.24895 0-10.497901 1.994282-14.494441 5.990824-3.876884 3.868907-6.006777 9.022132-6.006778 14.494441s2.129893 10.625535 5.998801 14.486465a20.517173 20.517173 0 0 0 35.003638-14.486465 20.341677 20.341677 0 0 0-5.998801-14.486464v-0.007977a20.461334 20.461334 0 0 0-14.502419-5.990824z" fill="#33363A" p-id="6172"></path></svg>