<?xml version="1.0" standalone="no"?><!DOCTYPE svg PUBLIC "-//W3C//DTD SVG 1.1//EN" "http://www.w3.org/Graphics/SVG/1.1/DTD/svg11.dtd"><svg t="1753152399199" class="icon" viewBox="0 0 1024 1024" version="1.1" xmlns="http://www.w3.org/2000/svg" p-id="10324" xmlns:xlink="http://www.w3.org/1999/xlink" width="256" height="256"><path d="M239.018733 190.917154h545.97054v731.043127H239.018733z" fill="#ADB8BC" p-id="10325"></path><path d="M401.529695 190.917154h220.94061v731.043127H401.529695z" fill="#93A0A3" p-id="10326"></path><path d="M239.018733 854.011196h545.97054v67.941079H239.018733z" fill="#FF8B00" p-id="10327"></path><path d="M239.018733 854.011196h545.97054v33.97054H239.018733z" fill="#FFB000" p-id="10328"></path><path d="M239.018733 921.952275h545.97054l-69.41423 90.038343H308.416951zM784.989273 192.086067H239.018733L308.416951 12.009382h407.158092z" fill="#EBF4F7" p-id="10329"></path><path d="M401.529695 921.952275h220.94061L594.384363 1011.990618H429.615637zM622.470305 192.086067H401.529695L429.615637 12.009382h164.768726z" fill="#D8E5EA" p-id="10330"></path><path d="M794.70086 183.903675L726.775794 7.686005A12.001376 12.001376 0 0 0 715.575043 0H308.408944c-4.963878 0-9.423362 3.058389-11.20075 7.686005L229.29914 183.903675a11.92932 11.92932 0 0 0-2.289789 7.005473v731.035121c0 0.2562 0.056044 0.496388 0.080063 0.752588a11.448944 11.448944 0 0 0 0.672525 3.290571c0.056044 0.152119 0.080063 0.312244 0.144113 0.464362a12.009382 12.009382 0 0 0 1.457138 2.578015c0.056044 0.080063 0.080063 0.176138 0.144113 0.248193l69.398217 90.038343a12.009382 12.009382 0 0 0 9.511431 4.675653h407.158092c3.722909 0 7.237654-1.729351 9.511431-4.675653l69.41423-90.038343c0.056044-0.072056 0.080063-0.160125 0.136106-0.232181 0.592463-0.800625 1.104863-1.665301 1.481157-2.610039 0.056044-0.136106 0.080063-0.272213 0.1281-0.416325a11.849257 11.849257 0 0 0 0.680532-3.322596c0.016013-0.2562 0.080063-0.496388 0.080062-0.760594V190.917154a11.961345 11.961345 0 0 0-2.305801-7.013479z m-21.720969 20.191775v637.906364H251.028116V204.09545h521.951775z m-521.951775 661.925129h521.951775v43.922314H251.028116v-43.922314zM316.655387 24.018765h390.68122l59.702642 154.889007h-510.078498L316.655387 24.018765zM709.674433 999.981235H314.317561l-50.87975-66.019577h497.132384L709.674433 999.981235z" fill="#33363A" p-id="10331"></path><path d="M619.107678 101.751493a32.02502 32.02502 0 0 1-32.02502 32.02502H436.917342a32.02502 32.02502 0 0 1-32.02502-32.02502v-6.004691a32.02502 32.02502 0 0 1 32.02502-32.025019h150.165316a32.02502 32.02502 0 0 1 32.02502 32.025019v6.004691z" fill="#FF8B00" p-id="10332"></path><path d="M587.082658 145.785895H436.917342a44.082439 44.082439 0 0 1-44.034402-44.034402v-6.004691c0-24.282971 19.759437-44.034402 44.034402-44.034402h150.165316c24.274965 0 44.034402 19.751431 44.034402 44.034402v6.004691c0 24.282971-19.759437 44.034402-44.034402 44.034402z m-150.165316-70.05473a20.039656 20.039656 0 0 0-20.015638 20.015637v6.004691c0 11.032619 8.975012 20.015637 20.015638 20.015638h150.165316c11.040625 0 20.015637-8.983018 20.015638-20.015638v-6.004691c0-11.032619-8.975012-20.015637-20.015638-20.015637H436.917342z" fill="#33363A" p-id="10333"></path><path d="M291.163471 655.335981a12.009382 12.009382 0 0 1-12.009382-12.009382V310.914902a12.009382 12.009382 0 1 1 24.018765 0v332.411697a12.009382 12.009382 0 0 1-12.009383 12.009382zM291.163471 274.886755a12.009382 12.009382 0 0 1-12.009382-12.009382v-22.841845a12.009382 12.009382 0 1 1 24.018765 0v22.841845a12.009382 12.009382 0 0 1-12.009383 12.009382zM291.163471 723.237029a12.009382 12.009382 0 0 1-12.009382-12.009382v-22.841846a12.009382 12.009382 0 1 1 24.018765 0v22.841846a12.009382 12.009382 0 0 1-12.009383 12.009382zM291.163471 793.291759a12.009382 12.009382 0 0 1-12.009382-12.009382v-22.841845a12.009382 12.009382 0 1 1 24.018765 0v22.841845a12.009382 12.009382 0 0 1-12.009383 12.009382z" fill="#FDFEFF" p-id="10334"></path><path d="M415.260422 978.980829h-9.335293a12.009382 12.009382 0 1 1 0-24.018765h9.335293a12.009382 12.009382 0 1 1 0 24.018765zM465.972041 978.980829h-9.351306a12.009382 12.009382 0 1 1 0-24.018765h9.351306a12.009382 12.009382 0 1 1 0 24.018765zM516.667647 978.980829h-9.335294a12.009382 12.009382 0 1 1 0-24.018765h9.335294a12.009382 12.009382 0 1 1 0 24.018765zM567.379265 978.980829h-9.351306a12.009382 12.009382 0 1 1 0-24.018765h9.351306a12.009382 12.009382 0 1 1 0 24.018765zM618.074871 978.980829h-9.335293a12.009382 12.009382 0 1 1 0-24.018765h9.335293a12.009382 12.009382 0 1 1 0 24.018765z" fill="#33363A" p-id="10335"></path><path d="M686.864613 683.81423c0 93.985426-76.203534 170.196966-170.196966 170.196966S346.486693 777.799656 346.486693 683.81423c0-93.993432 76.187522-266.768413 170.180954-266.768413s170.196966 172.77498 170.196966 266.768413z" fill="#FFFFFA" p-id="10336"></path><path d="M516.667647 417.045817v436.965379c93.993432 0 170.196966-76.21154 170.196966-170.196966 0-93.993432-76.203534-266.768413-170.196966-266.768413z" fill="#F9F9E4" p-id="10337"></path><path d="M411.209257 780.369664c15.700266 17.16541 32.993776 25.571978 23.802596 33.978546-9.191181 8.414574-29.382955 1.321032-45.083221-15.844379-15.700266-17.173417-20.968382-37.901611-11.777201-46.316184 9.199187-8.42258 17.357561 11.000594 33.057826 28.182017z" fill="#7BC67B" p-id="10338"></path><path d="M622.126036 780.369664c-15.700266 17.16541-32.993776 25.571978-23.802596 33.978546 9.191181 8.414574 29.382955 1.321032 45.083221-15.844379 15.700266-17.173417 20.984394-37.901611 11.777201-46.316184-9.191181-8.42258-17.357561 11.000594-33.057826 28.182017z" fill="#54AF79" p-id="10339"></path><path d="M516.667647 866.020579c-100.462486 0-182.190336-81.735856-182.190337-182.206349 0-95.426552 76.932103-278.777795 182.190337-278.777795s182.206349 183.351243 182.206348 278.777795c0 100.470493-81.735856 182.206349-182.206348 182.206349z m0-436.96538c-86.563628 0-158.171572 168.675778-158.171572 254.759031 0 87.228147 70.951431 158.187584 158.171572 158.187584 87.228147 0 158.187584-70.959437 158.187584-158.187584 0-86.083253-71.61595-254.75903-158.187584-254.759031z" fill="#33363A" p-id="10340"></path><path d="M616.641751 727.880657c-22.145301 47.957467-67.380641 74.242002-101.014918 58.717873-33.650289-15.524128-18.014073-43.778202 4.131228-91.743675 22.145301-47.957467 42.409132-97.484159 76.059421-81.936012 33.626271 15.524128 42.945551 66.988335 20.824269 114.961814z" fill="#7BC67B" p-id="10341"></path><path d="M595.809476 612.918843c-33.650289-15.540141-53.91412 33.978546-76.059421 81.936012-1.048819 2.26577-2.065614 4.475496-3.082408 6.637186v85.546833c33.530195 14.523346 78.044973-11.689132 99.966098-59.158217 22.129289-47.973479 12.810008-99.437686-20.824269-114.961814z" fill="#54AF79" p-id="10342"></path><path d="M418.807193 547.940078m-10.81645 0a10.81645 10.81645 0 1 0 21.6329 0 10.81645 10.81645 0 1 0-21.6329 0Z" fill="#7BC67B" p-id="10343"></path><path d="M457.829679 496.227678m-4.235308 0a4.235309 4.235309 0 1 0 8.470617 0 4.235309 4.235309 0 1 0-8.470617 0Z" fill="#7BC67B" p-id="10344"></path><path d="M435.732416 610.004566m-6.116779 0a6.116779 6.116779 0 1 0 12.233558 0 6.116779 6.116779 0 1 0-12.233558 0Z" fill="#7BC67B" p-id="10345"></path><path d="M531.006849 811.778202m-6.116779 0a6.116779 6.116779 0 1 0 12.233558 0 6.116779 6.116779 0 1 0-12.233558 0Z" fill="#54AF79" p-id="10346"></path><path d="M502.248382 805.661423m-6.116779 0a6.116779 6.116779 0 1 0 12.233557 0 6.116779 6.116779 0 1 0-12.233557 0Z" fill="#7BC67B" p-id="10347"></path><path d="M589.268366 517.668428m-12.50577 0a12.50577 12.50577 0 1 0 25.01154 0 12.50577 12.50577 0 1 0-25.01154 0Z" fill="#54AF79" p-id="10348"></path><path d="M624.720063 570.974073m-12.225552 0a12.225551 12.225551 0 1 0 24.451103 0 12.225551 12.225551 0 1 0-24.451103 0Z" fill="#54AF79" p-id="10349"></path><path d="M450.720125 734.854105m-12.217545 0a12.217545 12.217545 0 1 0 24.43509 0 12.217545 12.217545 0 1 0-24.43509 0Z" fill="#7BC67B" p-id="10350"></path><path d="M529.837936 555.530008c0 28.64638 12.353651 51.872525-16.292729 51.872525a51.880532 51.880532 0 1 1 0-103.753057c28.64638-0.008006 16.292729 23.234152 16.292729 51.880532z" fill="#7BC67B" p-id="10351"></path><path d="M516.667647 607.290446c24.56319-1.705332 13.170289-24.218921 13.170289-51.760438 0-27.533511 11.400907-50.063112-13.170289-51.776451v103.536889z" fill="#54AF79" p-id="10352"></path></svg>