<?xml version="1.0" standalone="no"?><!DOCTYPE svg PUBLIC "-//W3C//DTD SVG 1.1//EN" "http://www.w3.org/Graphics/SVG/1.1/DTD/svg11.dtd"><svg t="1753152685814" class="icon" viewBox="0 0 1024 1024" version="1.1" xmlns="http://www.w3.org/2000/svg" p-id="13648" xmlns:xlink="http://www.w3.org/1999/xlink" width="256" height="256"><path d="M904.684509 622.487487c0 215.049216-174.328833 389.386134-389.402302 389.386133-215.065385 0-389.394218-174.336918-389.394218-389.386133 0-215.073469 174.328833-610.361107 389.394218-610.361107s389.402302 395.295723 389.402302 610.361107z" fill="#EEDCF4" p-id="13649"></path><path d="M515.282207 12.12638v999.74724c215.073469 0 389.402302-174.336918 389.402302-389.386133 0-215.065385-174.336918-610.361107-389.402302-610.361107z" fill="#A8A3E5" p-id="13650"></path><path d="M515.282207 1024c-221.395355 0-401.520597-180.117159-401.520598-401.512513 0-112.710656 45.376913-266.489318 115.596735-391.762904C312.763583 81.941989 414.301802 0 515.282207 0 616.262612 0 717.808915 81.941989 801.20607 230.724583c70.227906 125.273586 115.596735 279.052248 115.596734 391.762904 0.008084 221.395355-180.117159 401.512513-401.520597 401.512513zM515.282207 24.252759C391.399113 24.252759 296.223201 161.046406 250.514834 242.584182 182.170559 364.502803 138.014368 513.624935 138.014368 622.487487c0 208.024 169.243838 377.259754 377.267839 377.259754 208.032084 0 377.275923-169.235754 377.275922-377.259754 0-108.862552-44.15619-257.984684-112.500466-379.903305C734.341212 161.046406 639.165301 24.252759 515.282207 24.252759z" fill="#33363A" p-id="13651"></path><path d="M606.246222 271.638988m-28.294885 0a28.294886 28.294886 0 1 0 56.589771 0 28.294886 28.294886 0 1 0-56.589771 0Z" fill="#EEDCF4" p-id="13652"></path><path d="M697.856978 263.554734m-20.210632 0a20.210633 20.210633 0 1 0 40.421265 0 20.210633 20.210633 0 1 0-40.421265 0Z" fill="#EEDCF4" p-id="13653"></path><path d="M707.962295 342.376202m-10.105317 0a10.105316 10.105316 0 1 0 20.210633 0 10.105316 10.105316 0 1 0-20.210633 0Z" fill="#EEDCF4" p-id="13654"></path><path d="M633.862031 164.029495m-27.615809 0a27.615809 27.615809 0 1 0 55.231617 0 27.615809 27.615809 0 1 0-55.231617 0Z" fill="#EEDCF4" p-id="13655"></path><path d="M568.791878 91.376313m-12.409329 0a12.409328 12.409328 0 1 0 24.818657 0 12.409328 12.409328 0 1 0-24.818657 0Z" fill="#EEDCF4" p-id="13656"></path><path d="M620.054127 444.78752m-13.807905 0a13.807904 13.807904 0 1 0 27.615809 0 13.807904 13.807904 0 1 0-27.615809 0Z" fill="#EEDCF4" p-id="13657"></path><path d="M620.256233 599.269512m-14.010011 0a14.010011 14.010011 0 1 0 28.020022 0 14.010011 14.010011 0 1 0-28.020022 0Z" fill="#EEDCF4" p-id="13658"></path><path d="M732.886047 526.818436m-14.818436 0a14.818436 14.818436 0 1 0 29.636872 0 14.818436 14.818436 0 1 0-29.636872 0Z" fill="#EEDCF4" p-id="13659"></path><path d="M802.960352 473.41386m-14.818435 0a14.818436 14.818436 0 1 0 29.636871 0 14.818436 14.818436 0 1 0-29.636871 0Z" fill="#EEDCF4" p-id="13660"></path><path d="M725.480871 681.914831m-7.41326 0a7.41326 7.41326 0 1 0 14.82652 0 7.41326 7.41326 0 1 0-14.82652 0Z" fill="#EEDCF4" p-id="13661"></path><path d="M813.736662 610.846162m-25.594745 0a25.594745 25.594745 0 1 0 51.18949 0 25.594745 25.594745 0 1 0-51.18949 0Z" fill="#EEDCF4" p-id="13662"></path><path d="M597.911357 806.000032m-16.710151 0a16.710151 16.710151 0 1 0 33.420303 0 16.710151 16.710151 0 1 0-33.420303 0Z" fill="#EEDCF4" p-id="13663"></path><path d="M617.839041 910.586014m-19.919599 0a19.9196 19.9196 0 1 0 39.839199 0 19.9196 19.9196 0 1 0-39.839199 0Z" fill="#EEDCF4" p-id="13664"></path><path d="M687.751662 821.562219m-10.105316 0a10.105316 10.105316 0 1 0 20.210632 0 10.105316 10.105316 0 1 0-20.210632 0Z" fill="#EEDCF4" p-id="13665"></path><path d="M773.315396 759.69343m-14.82652 0a14.82652 14.82652 0 1 0 29.653041 0 14.82652 14.82652 0 1 0-29.653041 0Z" fill="#EEDCF4" p-id="13666"></path><path d="M424.33436 271.638988m-28.294886 0a28.294886 28.294886 0 1 0 56.589771 0 28.294886 28.294886 0 1 0-56.589771 0Z" fill="#A8A3E5" p-id="13667"></path><path d="M332.71552 263.554734m-20.210633 0a20.210633 20.210633 0 1 0 40.421265 0 20.210633 20.210633 0 1 0-40.421265 0Z" fill="#A8A3E5" p-id="13668"></path><path d="M322.610203 342.376202m-10.105316 0a10.105316 10.105316 0 1 0 20.210633 0 10.105316 10.105316 0 1 0-20.210633 0Z" fill="#A8A3E5" p-id="13669"></path><path d="M396.718551 164.029495m-27.615808 0a27.615809 27.615809 0 1 0 55.231617 0 27.615809 27.615809 0 1 0-55.231617 0Z" fill="#A8A3E5" p-id="13670"></path><path d="M461.788704 91.376313m-12.409328 0a12.409328 12.409328 0 1 0 24.818657 0 12.409328 12.409328 0 1 0-24.818657 0Z" fill="#A8A3E5" p-id="13671"></path><path d="M410.526455 444.78752m-13.807904 0a13.807904 13.807904 0 1 0 27.615809 0 13.807904 13.807904 0 1 0-27.615809 0Z" fill="#A8A3E5" p-id="13672"></path><path d="M410.316265 599.269512m-14.010011 0a14.010011 14.010011 0 1 0 28.020021 0 14.010011 14.010011 0 1 0-28.020021 0Z" fill="#A8A3E5" p-id="13673"></path><path d="M297.686451 526.818436m-14.818436 0a14.818436 14.818436 0 1 0 29.636872 0 14.818436 14.818436 0 1 0-29.636872 0Z" fill="#A8A3E5" p-id="13674"></path><path d="M227.612145 473.41386m-14.818436 0a14.818436 14.818436 0 1 0 29.636872 0 14.818436 14.818436 0 1 0-29.636872 0Z" fill="#A8A3E5" p-id="13675"></path><path d="M305.091627 681.914831m-7.41326 0a7.41326 7.41326 0 1 0 14.82652 0 7.41326 7.41326 0 1 0-14.82652 0Z" fill="#A8A3E5" p-id="13676"></path><path d="M216.835836 610.846162m-25.594745 0a25.594745 25.594745 0 1 0 51.18949 0 25.594745 25.594745 0 1 0-51.18949 0Z" fill="#A8A3E5" p-id="13677"></path><path d="M432.66114 806.000032m-16.710151 0a16.710151 16.710151 0 1 0 33.420302 0 16.710151 16.710151 0 1 0-33.420302 0Z" fill="#A8A3E5" p-id="13678"></path><path d="M412.733456 910.586014m-19.919599 0a19.9196 19.9196 0 1 0 39.839199 0 19.9196 19.9196 0 1 0-39.839199 0Z" fill="#A8A3E5" p-id="13679"></path><path d="M342.820836 821.562219m-10.105316 0a10.105316 10.105316 0 1 0 20.210632 0 10.105316 10.105316 0 1 0-20.210632 0Z" fill="#A8A3E5" p-id="13680"></path><path d="M257.257101 759.69343m-14.82652 0a14.82652 14.82652 0 1 0 29.65304 0 14.82652 14.82652 0 1 0-29.65304 0Z" fill="#A8A3E5" p-id="13681"></path><path d="M151.191701 101.190596h-22.223612V78.975068a12.12638 12.12638 0 1 0-24.252759 0v22.215528h-22.231696a12.12638 12.12638 0 1 0 0 24.252759h22.231696v22.231696a12.12638 12.12638 0 1 0 24.252759 0v-22.231696h22.223612a12.12638 12.12638 0 1 0 0-24.252759zM934.369886 263.554734l15.723872-15.723872a12.12638 12.12638 0 1 0-17.1467-17.146701l-15.723873 15.723873-15.715788-15.715788a12.12638 12.12638 0 1 0-17.1467 17.146701l15.715788 15.715787-15.715788 15.715788a12.12638 12.12638 0 1 0 17.154785 17.146701l15.715788-15.715788 15.723872 15.723873c2.368686 2.368686 5.473039 3.548987 8.577392 3.548987s6.208706-1.180301 8.577393-3.548987a12.12638 12.12638 0 0 0 0-17.146701l-15.740041-15.723873zM149.704198 254.99351l-3.581324-3.581324 3.581324-3.581324a12.12638 12.12638 0 1 0-17.1467-17.146701l-3.57324 3.57324-3.565156-3.565155a12.134464 12.134464 0 0 0-17.154785 17.154785l3.57324 3.57324-3.565156 3.565155a12.12638 12.12638 0 1 0 17.154785 17.146701l3.565156-3.565156 3.581324 3.581325c2.368686 2.368686 5.473039 3.548987 8.577393 3.548987s6.208706-1.180301 8.577392-3.548987a12.166801 12.166801 0 0 0-0.024253-17.154786zM856.510445 66.848689h-5.03649v-5.052658a12.12638 12.12638 0 1 0-24.252759 0v5.052658h-5.068827a12.12638 12.12638 0 1 0 0 24.252759h5.052658v5.052658a12.12638 12.12638 0 1 0 24.25276 0v-5.052658h5.052658a12.12638 12.12638 0 1 0 0-24.252759zM870.73873 154.805362c-3.872357-3.872357-9.63643-4.405918-14.228285-1.940221-4.591856-2.465697-10.355928-1.932136-14.228286 1.940221-3.872357 3.872357-4.405918 9.63643-1.94022 14.228286-2.465697 4.591856-1.932136 10.355928 1.94022 14.228285 2.368686 2.368686 5.473039 3.548987 8.577393 3.548987 1.972558 0 3.872357-0.654824 5.650893-1.608766 1.78662 0.953942 3.678335 1.608766 5.650893 1.608766 3.104353 0 6.208706-1.180301 8.577392-3.548987 3.872357-3.872357 4.405918-9.63643 1.940221-14.228285 2.457613-4.591856 1.932136-10.355928-1.940221-14.228286zM247.733851 103.785641c0-5.456871-3.621745-10.01639-8.577392-11.536229a12.085958 12.085958 0 0 0-11.536229-8.577393c-5.456871 0-10.008305 3.621745-11.53623 8.577393a12.077874 12.077874 0 0 0-8.585476 11.536229c0 5.456871 3.62983 10.01639 8.585476 11.536229a12.077874 12.077874 0 0 0 11.53623 8.585477c5.456871 0 10.01639-3.62983 11.536229-8.585477a12.085958 12.085958 0 0 0 8.577392-11.536229z" fill="#33363A" p-id="13682"></path></svg>