<?xml version="1.0" standalone="no"?><!DOCTYPE svg PUBLIC "-//W3C//DTD SVG 1.1//EN" "http://www.w3.org/Graphics/SVG/1.1/DTD/svg11.dtd"><svg t="1753152694113" class="icon" viewBox="0 0 1024 1024" version="1.1" xmlns="http://www.w3.org/2000/svg" p-id="14059" xmlns:xlink="http://www.w3.org/1999/xlink" width="256" height="256"><path d="M721.88968 341.117726c0 115.910493-93.975144 209.877552-209.885637 209.877552-115.926664 0-209.885638-93.967059-209.885638-209.877552 0-115.934749 93.958974-328.989814 209.885638-328.989814 115.910493 0 209.885638 213.06315 209.885637 328.989814z" fill="#EEDCF4" p-id="14060"></path><path d="M512.004043 12.127912v538.867366c115.910493 0 209.885638-93.967059 209.885637-209.877552 0-115.926664-93.975144-328.989814-209.885637-328.989814z" fill="#A8A3E5" p-id="14061"></path><path d="M512.004043 563.12319c-122.419139 0-222.013549-99.586325-222.01355-222.005464C289.990493 224.350193 383.73925 0 512.004043 0s222.013549 224.350193 222.013549 341.117726c0 122.419139-99.59441 222.005464-222.013549 222.005464z m0-538.867367C403.77456 24.255823 314.246317 234.044437 314.246317 341.117726c0 109.03801 88.71163 197.749641 197.757726 197.749641S709.761769 450.163822 709.761769 341.117726C709.761769 234.044437 620.22544 24.255823 512.004043 24.255823z" fill="#33363A" p-id="14062"></path><path d="M561.016976 152.011244m-15.256913 0a15.256913 15.256913 0 1 0 30.513826 0 15.256913 15.256913 0 1 0-30.513826 0Z" fill="#EEDCF4" p-id="14063"></path><path d="M545.768148 96.699882a7.624414 0.016171 0 1 0 15.248828 0 7.624414 0.016171 0 1 0-15.248828 0Z" fill="#EEDCF4" p-id="14064"></path><path d="M610.409917 147.653281m-10.890864 0a10.890865 10.890865 0 1 0 21.781729 0 10.890865 10.890865 0 1 0-21.781729 0Z" fill="#EEDCF4" p-id="14065"></path><path d="M615.851307 190.141398m-5.44139 0a5.44139 5.44139 0 1 0 10.882779 0 5.44139 5.44139 0 1 0-10.882779 0Z" fill="#EEDCF4" p-id="14066"></path><path d="M575.910051 94.007485m-14.893075 0a14.893075 14.893075 0 1 0 29.786151 0 14.893075 14.893075 0 1 0-29.786151 0Z" fill="#EEDCF4" p-id="14067"></path><path d="M528.352467 94.007485a2.894528 0.008085 0 1 0 5.789057 0 2.894528 0.008085 0 1 0-5.789057 0Z" fill="#EEDCF4" p-id="14068"></path><path d="M540.836131 54.834331m-6.694607 0a6.694607 6.694607 0 1 0 13.389214 0 6.694607 6.694607 0 1 0-13.389214 0Z" fill="#EEDCF4" p-id="14069"></path><path d="M568.463514 245.339566m-7.446538 0a7.446538 7.446538 0 1 0 14.893075 0 7.446538 7.446538 0 1 0-14.893075 0Z" fill="#EEDCF4" p-id="14070"></path><path d="M568.584793 328.609807m-7.567817 0a7.567817 7.567817 0 1 0 15.135634 0 7.567817 7.567817 0 1 0-15.135634 0Z" fill="#EEDCF4" p-id="14071"></path><path d="M629.289033 289.557931m-7.988251 0a7.988251 7.988251 0 1 0 15.976502 0 7.988251 7.988251 0 1 0-15.976502 0Z" fill="#EEDCF4" p-id="14072"></path><path d="M667.055349 260.766269m-7.988251 0a7.988251 7.988251 0 1 0 15.976502 0 7.988251 7.988251 0 1 0-15.976502 0Z" fill="#EEDCF4" p-id="14073"></path><path d="M625.286822 373.151583m-3.994126 0a3.994126 3.994126 0 1 0 7.988251 0 3.994126 3.994126 0 1 0-7.988251 0Z" fill="#EEDCF4" p-id="14074"></path><path d="M672.860576 334.835468m-13.793478 0a13.793478 13.793478 0 1 0 27.586956 0 13.793478 13.793478 0 1 0-27.586956 0Z" fill="#EEDCF4" p-id="14075"></path><path d="M556.537734 440.032973m-9.006996 0a9.006996 9.006996 0 1 0 18.013992 0 9.006996 9.006996 0 1 0-18.013992 0Z" fill="#EEDCF4" p-id="14076"></path><path d="M567.283064 496.411591m-10.72916 0a10.729159 10.729159 0 1 0 21.458319 0 10.729159 10.729159 0 1 0-21.458319 0Z" fill="#EEDCF4" p-id="14077"></path><path d="M604.968527 448.425488m-5.449474 0a5.449475 5.449475 0 1 0 10.898949 0 5.449475 5.449475 0 1 0-10.898949 0Z" fill="#EEDCF4" p-id="14078"></path><path d="M651.078847 415.073731m-7.988251 0a7.988251 7.988251 0 1 0 15.976502 0 7.988251 7.988251 0 1 0-15.976502 0Z" fill="#EEDCF4" p-id="14079"></path><path d="M462.974939 152.011244m-15.248828 0a15.248827 15.248827 0 1 0 30.497655 0 15.248827 15.248827 0 1 0-30.497655 0Z" fill="#A8A3E5" p-id="14080"></path><path d="M462.991109 96.699882a7.616328 0.008085 0 1 0 15.232657 0 7.616328 0.008085 0 1 0-15.232657 0Z" fill="#A8A3E5" p-id="14081"></path><path d="M413.590083 147.653281m-10.89895 0a10.89895 10.89895 0 1 0 21.7979 0 10.89895 10.89895 0 1 0-21.7979 0Z" fill="#A8A3E5" p-id="14082"></path><path d="M408.140608 190.141398m-5.449475 0a5.449475 5.449475 0 1 0 10.89895 0 5.449475 5.449475 0 1 0-10.89895 0Z" fill="#A8A3E5" p-id="14083"></path><path d="M448.089949 94.007485m-14.893076 0a14.893075 14.893075 0 1 0 29.786151 0 14.893075 14.893075 0 1 0-29.786151 0Z" fill="#A8A3E5" p-id="14084"></path><path d="M483.155784 54.834331m-6.686522 0a6.686522 6.686522 0 1 0 13.373044 0 6.686522 6.686522 0 1 0-13.373044 0Z" fill="#A8A3E5" p-id="14085"></path><path d="M455.536486 245.339566m-7.446537 0a7.446538 7.446538 0 1 0 14.893075 0 7.446538 7.446538 0 1 0-14.893075 0Z" fill="#A8A3E5" p-id="14086"></path><path d="M455.431378 328.609807m-7.559732 0a7.559732 7.559732 0 1 0 15.119463 0 7.559732 7.559732 0 1 0-15.119463 0Z" fill="#A8A3E5" p-id="14087"></path><path d="M394.710967 289.557931m-7.980166 0a7.980166 7.980166 0 1 0 15.960332 0 7.980166 7.980166 0 1 0-15.960332 0Z" fill="#A8A3E5" p-id="14088"></path><path d="M356.944651 260.766269m-7.988251 0a7.988251 7.988251 0 1 0 15.976502 0 7.988251 7.988251 0 1 0-15.976502 0Z" fill="#A8A3E5" p-id="14089"></path><path d="M398.705093 373.151583m-3.98604 0a3.98604 3.98604 0 1 0 7.97208 0 3.98604 3.98604 0 1 0-7.97208 0Z" fill="#A8A3E5" p-id="14090"></path><path d="M351.131338 334.835468m-13.801563 0a13.801563 13.801563 0 1 0 27.603127 0 13.801563 13.801563 0 1 0-27.603127 0Z" fill="#A8A3E5" p-id="14091"></path><path d="M467.462266 440.032973m-9.006996 0a9.006996 9.006996 0 1 0 18.013992 0 9.006996 9.006996 0 1 0-18.013992 0Z" fill="#A8A3E5" p-id="14092"></path><path d="M456.725022 496.411591m-10.74533 0a10.74533 10.74533 0 1 0 21.490659 0 10.74533 10.74533 0 1 0-21.490659 0Z" fill="#A8A3E5" p-id="14093"></path><path d="M419.039558 448.425488m-5.449475 0a5.449475 5.449475 0 1 0 10.89895 0 5.449475 5.449475 0 1 0-10.89895 0Z" fill="#A8A3E5" p-id="14094"></path><path d="M372.929238 415.073731m-7.988251 0a7.988251 7.988251 0 1 0 15.976502 0 7.988251 7.988251 0 1 0-15.976502 0Z" fill="#A8A3E5" p-id="14095"></path><path d="M512.004043 801.986451c0 115.902408-93.958974 209.877552-209.885638 209.877552s-209.885638-93.975144-209.885638-209.877552c0-115.942835 93.958974-328.9979 209.885638-328.9979s209.885638 213.06315 209.885638 328.9979z" fill="#EEDCF4" p-id="14096"></path><path d="M302.118405 472.988551v538.875452c115.926664 0 209.885638-93.975144 209.885638-209.877552 0-115.934749-93.958974-328.9979-209.885638-328.9979z" fill="#A8A3E5" p-id="14097"></path><path d="M302.118405 1023.991915c-122.419139 0-222.013549-99.586325-222.013549-222.005464C80.104856 685.218918 173.853612 460.86064 302.118405 460.86064s222.013549 224.358279 222.013549 341.125811c0 122.419139-99.59441 222.005464-222.013549 222.005464z m0-538.875452C193.888922 485.116463 104.360679 694.913162 104.360679 801.986451c0 109.03801 88.71163 197.749641 197.757726 197.749641s197.757726-88.71163 197.757726-197.749641C499.876131 694.913162 410.339803 485.116463 302.118405 485.116463z" fill="#33363A" p-id="14098"></path><path d="M351.131338 612.871883m-15.256912 0a15.256913 15.256913 0 1 0 30.513825 0 15.256913 15.256913 0 1 0-30.513825 0Z" fill="#EEDCF4" p-id="14099"></path><path d="M400.52428 608.51392m-10.890865 0a10.890865 10.890865 0 1 0 21.781729 0 10.890865 10.890865 0 1 0-21.781729 0Z" fill="#EEDCF4" p-id="14100"></path><path d="M405.965669 651.002037m-5.441389 0a5.44139 5.44139 0 1 0 10.882779 0 5.44139 5.44139 0 1 0-10.882779 0Z" fill="#EEDCF4" p-id="14101"></path><path d="M366.024414 554.868125m-14.893076 0a14.893075 14.893075 0 1 0 29.786151 0 14.893075 14.893075 0 1 0-29.786151 0Z" fill="#EEDCF4" p-id="14102"></path><path d="M318.46683 554.868125a2.902614 0.016171 0 1 0 5.805227 0 2.902614 0.016171 0 1 0-5.805227 0Z" fill="#EEDCF4" p-id="14103"></path><path d="M330.958579 515.703056m-6.686522 0a6.686522 6.686522 0 1 0 13.373044 0 6.686522 6.686522 0 1 0-13.373044 0Z" fill="#EEDCF4" p-id="14104"></path><path d="M358.577876 706.200205m-7.446538 0a7.446538 7.446538 0 1 0 14.893076 0 7.446538 7.446538 0 1 0-14.893076 0Z" fill="#EEDCF4" p-id="14105"></path><path d="M358.69107 789.470446m-7.559732 0a7.559732 7.559732 0 1 0 15.119463 0 7.559732 7.559732 0 1 0-15.119463 0Z" fill="#EEDCF4" p-id="14106"></path><path d="M419.403395 750.418571m-7.988251 0a7.988251 7.988251 0 1 0 15.976502 0 7.988251 7.988251 0 1 0-15.976502 0Z" fill="#EEDCF4" p-id="14107"></path><path d="M457.169712 721.626909m-7.988251 0a7.988251 7.988251 0 1 0 15.976502 0 7.988251 7.988251 0 1 0-15.976502 0Z" fill="#EEDCF4" p-id="14108"></path><path d="M415.401184 834.012223m-3.994125 0a3.994126 3.994126 0 1 0 7.988251 0 3.994126 3.994126 0 1 0-7.988251 0Z" fill="#EEDCF4" p-id="14109"></path><path d="M476.768417 795.696107a13.793478 13.793478 0 1 1-27.595042 0.024256 13.793478 13.793478 0 0 1 27.595042-0.024256z" fill="#EEDCF4" p-id="14110"></path><path d="M346.660182 900.901698m-9.006996 0a9.006996 9.006996 0 1 0 18.013991 0 9.006996 9.006996 0 1 0-18.013991 0Z" fill="#EEDCF4" p-id="14111"></path><path d="M357.389341 957.272231m-10.737245 0a10.737244 10.737244 0 1 0 21.474489 0 10.737244 10.737244 0 1 0-21.474489 0Z" fill="#EEDCF4" p-id="14112"></path><path d="M395.08289 909.286127m-5.449475 0a5.449475 5.449475 0 1 0 10.89895 0 5.449475 5.449475 0 1 0-10.89895 0Z" fill="#EEDCF4" p-id="14113"></path><path d="M441.19321 875.942456m-7.988251 0a7.988251 7.988251 0 1 0 15.976502 0 7.988251 7.988251 0 1 0-15.976502 0Z" fill="#EEDCF4" p-id="14114"></path><path d="M253.089301 612.871883m-15.248827 0a15.248827 15.248827 0 1 0 30.497655 0 15.248827 15.248827 0 1 0-30.497655 0Z" fill="#A8A3E5" p-id="14115"></path><path d="M203.704445 608.51392m-10.89895 0a10.89895 10.89895 0 1 0 21.7979 0 10.89895 10.89895 0 1 0-21.7979 0Z" fill="#A8A3E5" p-id="14116"></path><path d="M198.25497 651.002037m-5.449475 0a5.449475 5.449475 0 1 0 10.89895 0 5.449475 5.449475 0 1 0-10.89895 0Z" fill="#A8A3E5" p-id="14117"></path><path d="M238.196226 554.868125m-14.88499 0a14.88499 14.88499 0 1 0 29.76998 0 14.88499 14.88499 0 1 0-29.76998 0Z" fill="#A8A3E5" p-id="14118"></path><path d="M273.270146 515.703056m-6.686522 0a6.686522 6.686522 0 1 0 13.373044 0 6.686522 6.686522 0 1 0-13.373044 0Z" fill="#A8A3E5" p-id="14119"></path><path d="M245.642764 706.200205m-7.438453 0a7.438452 7.438452 0 1 0 14.876905 0 7.438452 7.438452 0 1 0-14.876905 0Z" fill="#A8A3E5" p-id="14120"></path><path d="M245.537655 789.470446m-7.551646 0a7.551646 7.551646 0 1 0 15.103292 0 7.551646 7.551646 0 1 0-15.103292 0Z" fill="#A8A3E5" p-id="14121"></path><path d="M184.82533 750.418571m-7.980166 0a7.980166 7.980166 0 1 0 15.960331 0 7.980166 7.980166 0 1 0-15.960331 0Z" fill="#A8A3E5" p-id="14122"></path><path d="M147.059013 721.626909m-7.988251 0a7.988251 7.988251 0 1 0 15.976502 0 7.988251 7.988251 0 1 0-15.976502 0Z" fill="#A8A3E5" p-id="14123"></path><path d="M188.819455 834.012223m-3.98604 0a3.98604 3.98604 0 1 0 7.97208 0 3.98604 3.98604 0 1 0-7.97208 0Z" fill="#A8A3E5" p-id="14124"></path><path d="M127.444137 795.696107a13.809649 13.809649 0 0 0 27.603127 0 13.801563 13.801563 0 0 0-27.603127 0z" fill="#A8A3E5" p-id="14125"></path><path d="M257.576629 900.901698m-9.006996 0a9.006996 9.006996 0 1 0 18.013991 0 9.006996 9.006996 0 1 0-18.013991 0Z" fill="#A8A3E5" p-id="14126"></path><path d="M246.839384 957.272231m-10.729159 0a10.729159 10.729159 0 1 0 21.458318 0 10.729159 10.729159 0 1 0-21.458318 0Z" fill="#A8A3E5" p-id="14127"></path><path d="M209.15392 909.286127m-5.449475 0a5.449475 5.449475 0 1 0 10.89895 0 5.449475 5.449475 0 1 0-10.89895 0Z" fill="#A8A3E5" p-id="14128"></path><path d="M163.0436 875.942456m-7.988251 0a7.988251 7.988251 0 1 0 15.976503 0 7.988251 7.988251 0 1 0-15.976503 0Z" fill="#A8A3E5" p-id="14129"></path><path d="M931.775318 801.986451c0 115.902408-93.975144 209.877552-209.885638 209.877552-115.926664 0-209.885638-93.975144-209.885637-209.877552 0-115.942835 93.958974-328.9979 209.885637-328.9979 115.910493 0 209.885638 213.06315 209.885638 328.9979z" fill="#EEDCF4" p-id="14130"></path><path d="M721.88968 472.988551v538.875452c115.910493 0 209.885638-93.975144 209.885638-209.877552 0-115.934749-93.975144-328.9979-209.885638-328.9979z" fill="#A8A3E5" p-id="14131"></path><path d="M721.88968 1023.991915c-122.419139 0-222.013549-99.586325-222.013549-222.005464C499.876131 685.218918 593.624887 460.86064 721.88968 460.86064s222.013549 224.358279 222.013549 341.125811c0 122.419139-99.59441 222.005464-222.013549 222.005464z m0-538.875452c-108.221398 0-197.757726 209.7967-197.757726 316.869988 0 109.03801 88.71163 197.749641 197.757726 197.749641s197.757726-88.71163 197.757726-197.749641C919.647406 694.913162 830.111078 485.116463 721.88968 485.116463z" fill="#33363A" p-id="14132"></path><path d="M770.910699 612.871883m-15.248828 0a15.248827 15.248827 0 1 0 30.497655 0 15.248827 15.248827 0 1 0-30.497655 0Z" fill="#EEDCF4" p-id="14133"></path><path d="M755.669957 557.568606a7.616328 0.008085 0 1 0 15.232657 0 7.616328 0.008085 0 1 0-15.232657 0Z" fill="#EEDCF4" p-id="14134"></path><path d="M820.295555 608.51392m-10.890865 0a10.890865 10.890865 0 1 0 21.781729 0 10.890865 10.890865 0 1 0-21.781729 0Z" fill="#EEDCF4" p-id="14135"></path><path d="M825.736944 651.002037m-5.441389 0a5.44139 5.44139 0 1 0 10.882779 0 5.44139 5.44139 0 1 0-10.882779 0Z" fill="#EEDCF4" p-id="14136"></path><path d="M785.795689 554.868125m-14.893075 0a14.893075 14.893075 0 1 0 29.78615 0 14.893075 14.893075 0 1 0-29.78615 0Z" fill="#EEDCF4" p-id="14137"></path><path d="M738.238105 554.868125a2.902614 0.016171 0 1 0 5.805227 0 2.902614 0.016171 0 1 0-5.805227 0Z" fill="#EEDCF4" p-id="14138"></path><path d="M750.729854 515.703056m-6.686522 0a6.686522 6.686522 0 1 0 13.373044 0 6.686522 6.686522 0 1 0-13.373044 0Z" fill="#EEDCF4" p-id="14139"></path><path d="M778.349151 706.200205m-7.446537 0a7.446538 7.446538 0 1 0 14.893075 0 7.446538 7.446538 0 1 0-14.893075 0Z" fill="#EEDCF4" p-id="14140"></path><path d="M778.462345 789.470446m-7.559731 0a7.559732 7.559732 0 1 0 15.119463 0 7.559732 7.559732 0 1 0-15.119463 0Z" fill="#EEDCF4" p-id="14141"></path><path d="M839.17467 750.418571m-7.988251 0a7.988251 7.988251 0 1 0 15.976502 0 7.988251 7.988251 0 1 0-15.976502 0Z" fill="#EEDCF4" p-id="14142"></path><path d="M876.940987 721.626909m-7.988251 0a7.988251 7.988251 0 1 0 15.976502 0 7.988251 7.988251 0 1 0-15.976502 0Z" fill="#EEDCF4" p-id="14143"></path><path d="M835.17246 834.012223m-3.994126 0a3.994126 3.994126 0 1 0 7.988251 0 3.994126 3.994126 0 1 0-7.988251 0Z" fill="#EEDCF4" p-id="14144"></path><path d="M896.539692 795.696107a13.793478 13.793478 0 1 1-27.595041 0.024256 13.793478 13.793478 0 0 1 27.595041-0.024256z" fill="#EEDCF4" p-id="14145"></path><path d="M766.423371 900.901698m-9.006995 0a9.006996 9.006996 0 1 0 18.013991 0 9.006996 9.006996 0 1 0-18.013991 0Z" fill="#EEDCF4" p-id="14146"></path><path d="M777.168701 957.272231m-10.729159 0a10.729159 10.729159 0 1 0 21.458318 0 10.729159 10.729159 0 1 0-21.458318 0Z" fill="#EEDCF4" p-id="14147"></path><path d="M814.854165 909.286127m-5.449475 0a5.449475 5.449475 0 1 0 10.89895 0 5.449475 5.449475 0 1 0-10.89895 0Z" fill="#EEDCF4" p-id="14148"></path><path d="M860.964485 875.942456m-7.988251 0a7.988251 7.988251 0 1 0 15.976502 0 7.988251 7.988251 0 1 0-15.976502 0Z" fill="#EEDCF4" p-id="14149"></path><path d="M672.860576 612.871883m-15.248827 0a15.248827 15.248827 0 1 0 30.497655 0 15.248827 15.248827 0 1 0-30.497655 0Z" fill="#A8A3E5" p-id="14150"></path><path d="M623.47572 608.51392m-10.898949 0a10.89895 10.89895 0 1 0 21.797899 0 10.89895 10.89895 0 1 0-21.797899 0Z" fill="#A8A3E5" p-id="14151"></path><path d="M618.026246 651.002037m-5.449475 0a5.449475 5.449475 0 1 0 10.898949 0 5.449475 5.449475 0 1 0-10.898949 0Z" fill="#A8A3E5" p-id="14152"></path><path d="M657.967501 554.868125m-14.88499 0a14.88499 14.88499 0 1 0 29.76998 0 14.88499 14.88499 0 1 0-29.76998 0Z" fill="#A8A3E5" p-id="14153"></path><path d="M693.041421 515.703056m-6.686522 0a6.686522 6.686522 0 1 0 13.373044 0 6.686522 6.686522 0 1 0-13.373044 0Z" fill="#A8A3E5" p-id="14154"></path><path d="M665.414039 706.200205m-7.438453 0a7.438452 7.438452 0 1 0 14.876905 0 7.438452 7.438452 0 1 0-14.876905 0Z" fill="#A8A3E5" p-id="14155"></path><path d="M665.30893 789.470446m-7.551646 0a7.551646 7.551646 0 1 0 15.103292 0 7.551646 7.551646 0 1 0-15.103292 0Z" fill="#A8A3E5" p-id="14156"></path><path d="M604.596605 750.418571m-7.980166 0a7.980166 7.980166 0 1 0 15.960332 0 7.980166 7.980166 0 1 0-15.960332 0Z" fill="#A8A3E5" p-id="14157"></path><path d="M566.830288 721.626909m-7.988251 0a7.988251 7.988251 0 1 0 15.976502 0 7.988251 7.988251 0 1 0-15.976502 0Z" fill="#A8A3E5" p-id="14158"></path><path d="M608.59073 834.012223m-3.98604 0a3.98604 3.98604 0 1 0 7.972081 0 3.98604 3.98604 0 1 0-7.972081 0Z" fill="#A8A3E5" p-id="14159"></path><path d="M547.215413 795.696107a13.809649 13.809649 0 0 0 27.603126 0 13.801563 13.801563 0 0 0-27.603126 0z" fill="#A8A3E5" p-id="14160"></path><path d="M677.347904 900.901698m-9.006996 0a9.006996 9.006996 0 1 0 18.013991 0 9.006996 9.006996 0 1 0-18.013991 0Z" fill="#A8A3E5" p-id="14161"></path><path d="M666.618745 957.272231m-10.737245 0a10.737244 10.737244 0 1 0 21.474489 0 10.737244 10.737244 0 1 0-21.474489 0Z" fill="#A8A3E5" p-id="14162"></path><path d="M628.925195 909.286127m-5.449475 0a5.449475 5.449475 0 1 0 10.89895 0 5.449475 5.449475 0 1 0-10.89895 0Z" fill="#A8A3E5" p-id="14163"></path><path d="M582.814876 875.942456m-7.988251 0a7.988251 7.988251 0 1 0 15.976502 0 7.988251 7.988251 0 1 0-15.976502 0Z" fill="#A8A3E5" p-id="14164"></path></svg>