<?xml version="1.0" standalone="no"?><!DOCTYPE svg PUBLIC "-//W3C//DTD SVG 1.1//EN" "http://www.w3.org/Graphics/SVG/1.1/DTD/svg11.dtd"><svg t="1753152800565" class="icon" viewBox="0 0 1024 1024" version="1.1" xmlns="http://www.w3.org/2000/svg" p-id="15403" xmlns:xlink="http://www.w3.org/1999/xlink" width="256" height="256"><path d="M849.250723 190.594144a26.985917 26.985917 0 0 1-26.985917 26.985918h-168.621293a26.977779 26.977779 0 0 1-26.985917-26.985918v-11.718854a26.994055 26.994055 0 0 1 26.985917-26.994055h168.629431a27.002193 27.002193 0 0 1 26.985917 26.994055v11.718854z" fill="#FC70B0" p-id="15404"></path><path d="M653.643513 151.881235a26.977779 26.977779 0 0 0-24.829322 16.438948 26.969641 26.969641 0 0 0 24.829322 16.414534h168.629431c11.157326 0 20.719585-6.754617 24.829323-16.414534a26.977779 26.977779 0 0 0-24.829323-16.438948H653.643513z" fill="#FFA9D4" p-id="15405"></path><path d="M822.264806 229.787202h-168.621293a39.241886 39.241886 0 0 1-39.193057-39.193058v-11.718854a39.241886 39.241886 0 0 1 39.193057-39.201195h168.629431a39.241886 39.241886 0 0 1 39.193057 39.201195v11.710716a39.250024 39.250024 0 0 1-39.201195 39.201196z m-168.621293-65.698827a14.803192 14.803192 0 0 0-14.778777 14.786915v11.710716c0 8.146231 6.624408 14.778777 14.778777 14.778778h168.629431a14.803192 14.803192 0 0 0 14.778777-14.778778V178.87529a14.795054 14.795054 0 0 0-14.778777-14.786915H653.643513z" fill="#33363A" p-id="15406"></path><path d="M815.526465 256.276695a27.002193 27.002193 0 0 1-26.985918 26.994056h-168.621292a27.002193 27.002193 0 0 1-26.985917-26.994056v-11.702578a26.977779 26.977779 0 0 1 26.985917-26.985917h168.629431a26.985917 26.985917 0 0 1 26.985917 26.985917v11.702578z" fill="#FC70B0" p-id="15407"></path><path d="M619.919255 217.580062a27.002193 27.002193 0 0 0-24.837461 16.414534 27.002193 27.002193 0 0 0 24.837461 16.438948h168.629431a26.969641 26.969641 0 0 0 24.821184-16.438948 26.969641 26.969641 0 0 0-24.821184-16.414534H619.919255z" fill="#FFA9D4" p-id="15408"></path><path d="M788.548686 295.486029H619.919255a39.241886 39.241886 0 0 1-39.193057-39.201196v-11.702578a39.241886 39.241886 0 0 1 39.193057-39.193057h168.629431a39.233748 39.233748 0 0 1 39.184919 39.193057v11.702578a39.241886 39.241886 0 0 1-39.184919 39.201196z m-168.629431-65.698827a14.803192 14.803192 0 0 0-14.778778 14.778777v11.702578c0 8.154369 6.624408 14.786915 14.778778 14.786916h168.629431a14.795054 14.795054 0 0 0 14.770639-14.786916v-11.702578a14.795054 14.795054 0 0 0-14.770639-14.778777H619.919255z" fill="#33363A" p-id="15409"></path><path d="M781.794068 321.975522a26.977779 26.977779 0 0 1-26.977779 26.969641H586.186858a26.977779 26.977779 0 0 1-26.977779-26.969641v-11.726992a26.961503 26.961503 0 0 1 26.977779-26.969641h168.637569a26.961503 26.961503 0 0 1 26.977779 26.969641v11.726992z" fill="#FC70B0" p-id="15410"></path><path d="M586.186858 283.278889c-11.149188 0-20.711447 6.754617-24.821184 16.422672a26.977779 26.977779 0 0 0 24.821184 16.422672h168.637569c11.149188 0 20.719585-6.770894 24.829323-16.422672a26.953365 26.953365 0 0 0-24.829323-16.422672H586.186858z" fill="#FFA9D4" p-id="15411"></path><path d="M754.816289 361.160441H586.186858a39.22561 39.22561 0 0 1-39.184919-39.176781v-11.726992a39.22561 39.22561 0 0 1 39.184919-39.176781h168.637569a39.22561 39.22561 0 0 1 39.184919 39.176781v11.726992a39.241886 39.241886 0 0 1-39.193057 39.176781z m-168.629431-65.674412a14.786915 14.786915 0 0 0-14.770639 14.762501v11.726992c0 8.138093 6.624408 14.762501 14.770639 14.762501h168.637569a14.786915 14.786915 0 0 0 14.770639-14.762501v-11.726992c0-8.138093-6.624408-14.762501-14.770639-14.762501H586.186858z" fill="#33363A" p-id="15412"></path><path d="M869.042566 32.202435a33.081349 33.081349 0 0 0-30.38764-19.995295h-653.326128a33.081349 33.081349 0 0 0-33.089487 33.081349v270.583463a33.081349 33.081349 0 0 0 33.089487 33.081349H582.768859a33.12204 33.12204 0 0 0 24.039928-10.359792l255.886066-270.591602a33.040659 33.040659 0 0 0 6.347713-35.799472z" fill="#FC70B0" p-id="15413"></path><path d="M185.328798 348.953301H582.768859a33.12204 33.12204 0 0 0 24.039928-10.359792l249.448835-263.771879a33.032521 33.032521 0 0 0-17.610834-5.118861h-653.326128a33.073211 33.073211 0 0 0-33.089487 33.065073v213.095972a33.105763 33.105763 0 0 0 33.097625 33.089487z" fill="#E2378D" p-id="15414"></path><path d="M582.776997 361.160441H185.328798a45.337318 45.337318 0 0 1-45.288489-45.288489V45.280351A45.32918 45.32918 0 0 1 185.328798 0h653.326128a45.247799 45.247799 0 0 1 41.601933 27.376546 45.174556 45.174556 0 0 1-8.70776 49.023874L615.679308 346.975745a45.467527 45.467527 0 0 1-32.902311 14.184696zM185.328798 24.41428a20.890485 20.890485 0 0 0-20.874209 20.866071v270.583463a20.898624 20.898624 0 0 0 20.874209 20.874209H582.768859c5.704803 0 11.230569-2.384461 15.169406-6.543027l255.886067-270.591601a20.78469 20.78469 0 0 0 4.003942-22.575071A20.841657 20.841657 0 0 0 838.654926 24.41428h-653.326128z" fill="#33363A" p-id="15415"></path><path d="M694.879232 89.185364a20.361509 20.361509 0 0 0-18.717615-12.353625H273.635248a20.394062 20.394062 0 0 0-20.377785 20.394061v166.716979c0 11.238707 9.130941 20.345233 20.377785 20.345233h244.85895c5.607146 0 10.97015-2.286804 14.803192-6.355851l157.651143-166.700702a20.345233 20.345233 0 0 0 3.930699-22.046095z" fill="#7815CE" p-id="15416"></path><path d="M273.635248 284.29615h244.85895c5.607146 0 10.97015-2.286804 14.803192-6.355851l153.69603-162.52586a20.369647 20.369647 0 0 0-10.839941-3.149442H273.635248A20.377786 20.377786 0 0 0 253.257463 132.65092v131.299997a20.361509 20.361509 0 0 0 20.377785 20.345233z" fill="#A02FF2" p-id="15417"></path><path d="M518.494198 296.50329H273.635248a32.601202 32.601202 0 0 1-32.584925-32.552373V97.2258a32.633754 32.633754 0 0 1 32.584925-32.601201h402.526369a32.552373 32.552373 0 0 1 29.923769 19.726738 32.47913 32.47913 0 0 1-6.27447 35.278634L542.167912 286.322536a32.674444 32.674444 0 0 1-23.673714 10.180754zM273.635248 89.038878c-4.508504 0-8.170646 3.67028-8.170646 8.186922v166.716979c0 4.484089 3.67028 8.138093 8.170646 8.138093h244.85895a8.138093 8.138093 0 0 0 5.924532-2.530947l157.667419-166.716978a8.113679 8.113679 0 0 0 1.57879-8.821694v-0.008138a8.170646 8.170646 0 0 0-7.503322-4.964237H273.635248z" fill="#33363A" p-id="15418"></path><path d="M400.695298 213.852815a21.81009 21.81009 0 0 1-21.785675 21.801952h-50.863083a21.81009 21.81009 0 0 1-21.785676-21.801952v-50.838669a21.793814 21.793814 0 0 1 21.785676-21.81009h50.854945a21.793814 21.793814 0 0 1 21.785675 21.81009v50.838669z" fill="#7815CE" p-id="15419"></path><path d="M559.209079 109.896812H470.121372a12.20714 12.20714 0 1 0 0 24.414279h24.137585l-57.113139 57.096863h-24.24338v-28.38567a34.041644 34.041644 0 0 0-33.992815-34.017229h-50.863083a34.041644 34.041644 0 0 0-33.992816 34.017229v50.838669a34.041644 34.041644 0 0 0 33.992816 34.009092h50.854945c18.074705 0 32.755825-14.217249 33.797501-32.047811h29.500588c3.238961 0 6.339575-1.285819 8.634517-3.572623l76.701529-76.677115c0.374352-0.374352 0.520838-0.8545 0.838224-1.261405h30.835235a12.20714 12.20714 0 1 0 0-24.414279zM388.488158 213.852815a9.60295 9.60295 0 0 1-9.578535 9.594812h-50.863083a9.60295 9.60295 0 0 1-9.578536-9.594812v-50.838669c0-5.289761 4.296913-9.60295 9.578536-9.60295h50.854945a9.60295 9.60295 0 0 1 9.578535 9.60295v50.838669z" fill="#33363A" p-id="15420"></path><path d="M539.539308 210.483644h-31.486283a12.20714 12.20714 0 1 1 0-24.414279h31.486283a12.20714 12.20714 0 1 1 0 24.414279z" fill="#33363A" p-id="15421"></path><path d="M511.991862 839.086245m-172.690339 0a172.690339 172.690339 0 1 0 345.380678 0 172.690339 172.690339 0 1 0-345.380678 0Z" fill="#FC70B0" p-id="15422"></path><path d="M339.301523 839.086245c0-95.370315 77.311886-172.690339 172.690339-172.690339 95.378453 0 172.698477 77.320024 172.698477 172.690339" fill="#E2378D" p-id="15423"></path><path d="M511.991862 1024c-101.954032-0.008138-184.897479-82.959723-184.897479-184.913755s82.943447-184.897479 184.897479-184.897479c101.954032 0 184.905617 82.943447 184.905617 184.897479s-82.951585 184.905617-184.905617 184.913755z m0-345.388816c-88.493626 0-160.483199 71.997711-160.483199 160.483199 0 88.493626 71.997711 160.491337 160.483199 160.499475 88.493626-0.008138 160.491337-72.005849 160.491337-160.499475s-71.997711-160.483199-160.491337-160.483199z" fill="#33363A" p-id="15424"></path><path d="M465.303621 681.61414L511.991862 585.128906l46.688241 96.485234" fill="#E2378D" p-id="15425"></path><path d="M558.688241 693.82128a12.20714 12.20714 0 0 1-10.994564-6.892965l-35.701815-73.771816-35.701815 73.771816a12.20714 12.20714 0 1 1-21.972852-10.636488l46.688241-96.477096a12.20714 12.20714 0 0 1 21.972852 0L569.666529 676.299965a12.20714 12.20714 0 0 1-10.978288 17.521315z" fill="#33363A" p-id="15426"></path><path d="M597.132594 897.96535H533.12649a12.20714 12.20714 0 0 1-12.20714-12.20714V792.438694a12.20714 12.20714 0 0 1 12.20714-12.20714h64.006104a12.20714 12.20714 0 0 1 12.20714 12.20714v93.319516a12.20714 12.20714 0 0 1-12.20714 12.20714z m-51.790826-24.41428h39.591824v-68.905236h-39.591824v68.905236zM490.857234 897.96535h-64.006104a12.20714 12.20714 0 1 1 0-24.41428h51.798964v-68.905236h-51.798964a12.20714 12.20714 0 1 1 0-24.41428h64.006104a12.20714 12.20714 0 0 1 12.20714 12.20714v93.319516a12.20714 12.20714 0 0 1-12.20714 12.20714z" fill="#33363A" p-id="15427"></path><path d="M490.857234 851.301523h-64.006104a12.20714 12.20714 0 1 1 0-24.41428h64.006104a12.20714 12.20714 0 1 1 0 24.41428z" fill="#33363A" p-id="15428"></path><path d="M476.770194 411.266682c14.192835 0 26.652255 7.967193 31.03055 19.79998a2.417014 2.417014 0 0 0 0.244143 0.480148 2.213561 2.213561 0 0 0 0.244142-0.480148c4.378294-11.832788 16.837715-19.799981 31.046826-19.79998 17.952634 0 32.584925 12.882602 32.584926 28.686778a26.115141 26.115141 0 0 1-5.607147 16.137839c-0.122071 0.138348-0.219729 0.21159-0.309247 0.30111l-57.9595 68.555297-57.951363-68.555297c-0.089519-0.089519-0.195314-0.1709-0.309247-0.30111 0 0-0.024414-0.056967-0.056967-0.089519a26.115141 26.115141 0 0 1-5.550179-16.04832c0-15.804177 14.624154-28.686779 32.593063-28.686778z" fill="#FC70B0" p-id="15429"></path><path d="M508.289029 431.066662c4.378294-11.832788 16.837715-19.799981 31.046826-19.79998 17.952634 0 32.584925 12.882602 32.584926 28.686778a26.115141 26.115141 0 0 1-5.607147 16.137839c-0.122071 0.138348-0.219729 0.21159-0.309247 0.30111l-57.9595 68.555297V431.538672a2.156595 2.156595 0 0 0 0.244142-0.47201z" fill="#F93585" p-id="15430"></path><path d="M508.044887 537.154846c-3.588899 0-6.99876-1.57879-9.326255-4.321327L441.084655 464.652573a11.954859 11.954859 0 0 1-1.285818-1.529961 38.143243 38.143243 0 0 1-7.828846-23.161014c0-22.550656 20.10109-40.893919 44.800203-40.893918 11.971135 0 23.095909 4.313189 31.282831 11.56423 8.186922-7.259179 19.311695-11.564231 31.28283-11.56423 24.699113 0 44.792065 18.343262 44.792066 40.893918a38.208348 38.208348 0 0 1-8.658932 24.210828l-0.480147 0.5127-57.6177 68.156531c-2.319357 2.734399-5.729218 4.313189-9.326255 4.313189z m-48.942493-88.998188l0.317385 0.349938 48.633246 57.528182 48.633245-57.528182 0.30111-0.3418a13.916139 13.916139 0 0 0 2.726261-8.211336c0-8.935626-9.326255-16.479639-20.377786-16.479639-9.106526 0-16.976063 4.752646-19.596528 11.82465-0.333662 0.89519-1.009124 2.221699-1.529962 3.019233a12.20714 12.20714 0 0 1-10.042407 5.436246 12.369902 12.369902 0 0 1-10.140064-5.24907 16.56102 16.56102 0 0 1-1.692724-3.263376c-2.596052-7.006898-10.465588-11.759545-19.563976-11.759544-11.051531 0-20.385924 7.552151-20.385923 16.479638 0 2.954128 0.919605 5.712941 2.718123 8.19506z" fill="#33363A" p-id="15431"></path></svg>