<?xml version="1.0" standalone="no"?><!DOCTYPE svg PUBLIC "-//W3C//DTD SVG 1.1//EN" "http://www.w3.org/Graphics/SVG/1.1/DTD/svg11.dtd"><svg t="1753152689886" class="icon" viewBox="0 0 1024 1024" version="1.1" xmlns="http://www.w3.org/2000/svg" p-id="13861" xmlns:xlink="http://www.w3.org/1999/xlink" width="256" height="256"><path d="M980.716138 525.930991a37.512681 37.512681 0 0 1-37.504666 37.512681H708.853403a37.512681 37.512681 0 0 1-37.504665-37.512681v-16.295572a37.512681 37.512681 0 0 1 37.504665-37.504666h234.358069a37.512681 37.512681 0 0 1 37.504666 37.504666v16.295572z" fill="#FC70B0" p-id="13862"></path><path d="M708.853403 472.138769a37.512681 37.512681 0 0 0-34.514872 22.836245 37.512681 37.512681 0 0 0 34.514872 22.812199h234.358069a37.488634 37.488634 0 0 0 34.506857-22.812199 37.49665 37.49665 0 0 0-34.506857-22.836245H708.853403z" fill="#FFA9D4" p-id="13863"></path><path d="M943.211472 575.466967H708.853403a49.584069 49.584069 0 0 1-49.52796-49.535976v-16.295572a49.576054 49.576054 0 0 1 49.52796-49.527961h234.358069a49.584069 49.584069 0 0 1 49.527961 49.527961v16.295572a49.584069 49.584069 0 0 1-49.527961 49.535976zM708.853403 484.162064a25.505417 25.505417 0 0 0-25.48137 25.48137v16.295573a25.513432 25.513432 0 0 0 25.48137 25.489386h234.358069a25.513432 25.513432 0 0 0 25.48137-25.489386v-16.295573a25.505417 25.505417 0 0 0-25.48137-25.48137H708.853403z" fill="#33363A" p-id="13864"></path><path d="M933.841318 617.219863a37.512681 37.512681 0 0 1-37.504666 37.49665H661.978584a37.512681 37.512681 0 0 1-37.504666-37.49665v-16.287557a37.488634 37.488634 0 0 1 37.504666-37.488634h234.358068a37.488634 37.488634 0 0 1 37.504666 37.488634v16.287557z" fill="#FC70B0" p-id="13865"></path><path d="M661.978584 563.443672a37.504665 37.504665 0 0 0-34.514873 22.804183 37.528712 37.528712 0 0 0 34.514873 22.836245h234.358068a37.512681 37.512681 0 0 0 34.506857-22.836245 37.480619 37.480619 0 0 0-34.506857-22.804183H661.978584z" fill="#FFA9D4" p-id="13866"></path><path d="M896.336652 666.739808H661.978584a49.576054 49.576054 0 0 1-49.527961-49.519945v-16.287557a49.568038 49.568038 0 0 1 49.527961-49.511929h234.358068a49.576054 49.576054 0 0 1 49.527961 49.511929v16.287557a49.584069 49.584069 0 0 1-49.527961 49.519945zM661.978584 575.466967a25.497401 25.497401 0 0 0-25.481371 25.465339v16.287557a25.505417 25.505417 0 0 0 25.481371 25.473355h234.358068a25.505417 25.505417 0 0 0 25.48137-25.473355v-16.287557a25.505417 25.505417 0 0 0-25.48137-25.465339H661.978584z" fill="#33363A" p-id="13867"></path><path d="M886.966498 708.524767a37.504665 37.504665 0 0 1-37.504666 37.480618H615.103764a37.49665 37.49665 0 0 1-37.504666-37.480618V692.221179a37.512681 37.512681 0 0 1 37.504666-37.504666h234.358068a37.512681 37.512681 0 0 1 37.504666 37.504666v16.303588z" fill="#FC70B0" p-id="13868"></path><path d="M615.103764 654.716513a37.504665 37.504665 0 0 0-34.514873 22.836245 37.512681 37.512681 0 0 0 34.514873 22.820215h234.358068a37.49665 37.49665 0 0 0 34.506857-22.820215 37.488634 37.488634 0 0 0-34.506857-22.836245H615.103764z" fill="#FFA9D4" p-id="13869"></path><path d="M849.469848 758.028681H615.103764a49.576054 49.576054 0 0 1-49.527961-49.503914V692.221179a49.576054 49.576054 0 0 1 49.527961-49.527961h234.358068a49.584069 49.584069 0 0 1 49.527961 49.527961v16.303588a49.568038 49.568038 0 0 1-49.519945 49.503914zM615.103764 666.739808a25.505417 25.505417 0 0 0-25.481371 25.481371v16.303588a25.497401 25.497401 0 0 0 25.481371 25.457323h234.358068a25.497401 25.497401 0 0 0 25.48137-25.457323V692.221179a25.505417 25.505417 0 0 0-25.48137-25.481371H615.103764z" fill="#33363A" p-id="13870"></path><path d="M1008.217421 305.808504a45.985096 45.985096 0 0 0-42.241843-27.805874H57.99236A45.969065 45.969065 0 0 0 12.023295 323.979711v376.056609a45.969065 45.969065 0 0 0 45.969065 45.96105h552.36621a45.945018 45.945018 0 0 0 33.400714-14.387877l355.625023-376.056609a45.928987 45.928987 0 0 0 8.833114-49.74438z" fill="#FC70B0" p-id="13871"></path><path d="M57.99236 746.005385h552.36621a45.945018 45.945018 0 0 0 33.400714-14.387876l346.687707-366.598284a45.88891 45.88891 0 0 0-24.471413-7.109775H57.99236A45.96105 45.96105 0 0 0 12.023295 403.878515v296.157805a45.969065 45.969065 0 0 0 45.969065 45.969065z" fill="#E2378D" p-id="13872"></path><path d="M610.35857 758.028681H57.99236C26.018411 758.028681 0 732.01027 0 700.03632V323.979711c0-31.981965 26.018411-58.000376 57.99236-58.000376h907.983218a57.952283 57.952283 0 0 1 53.279228 35.067944 57.880143 57.880143 0 0 1-11.149602 62.777632L652.496211 739.873505a58.216795 58.216795 0 0 1-42.137641 18.155176zM57.99236 290.025925A33.985848 33.985848 0 0 0 24.04659 323.979711v376.056609a33.985848 33.985848 0 0 0 33.94577 33.937755h552.36621a34.066003 34.066003 0 0 0 24.663786-10.628593l355.625023-376.05661a33.87363 33.87363 0 0 0 6.516626-36.735174 33.921723 33.921723 0 0 0-31.196443-20.535788H57.99236z" fill="#33363A" p-id="13873"></path><path d="M766.156428 384.98591a28.318868 28.318868 0 0 0-26.010395-17.153234H180.726157a28.342914 28.342914 0 0 0-28.326883 28.334899v231.696912c0 15.630284 12.688584 28.294821 28.326883 28.294822h340.315361c7.78308 0 15.229507-3.190181 20.56785-8.849146l219.112531-231.688897a28.27879 28.27879 0 0 0 5.434529-30.635356z" fill="#7815CE" p-id="13874"></path><path d="M180.726157 656.167324h340.315361c7.78308 0 15.229507-3.190181 20.56785-8.849145l213.605862-225.869622a28.214666 28.214666 0 0 0-15.069197-4.37648H180.726157a28.318868 28.318868 0 0 0-28.326883 28.310852v182.489574c0 15.630284 12.688584 28.294821 28.326883 28.294821z" fill="#A02FF2" p-id="13875"></path><path d="M521.041518 668.190619H180.726157a40.382241 40.382241 0 0 1-40.350179-40.318116V396.17559a40.398272 40.398272 0 0 1 40.350179-40.358194h559.419876a40.302085 40.302085 0 0 1 37.055796 24.42332 40.237961 40.237961 0 0 1-7.743003 43.652577L550.346296 655.58219a40.45438 40.45438 0 0 1-29.304778 12.608429zM180.726157 379.863986a16.327635 16.327635 0 0 0-16.303588 16.311604v231.696913c0 8.977394 7.310163 16.271526 16.303588 16.271526h340.315361c4.472666 0 8.785021-1.851587 11.830922-5.081846l219.120546-231.704928c4.480681-4.729163 5.707057-11.646565 3.134073-17.61012l-0.008016-0.016031a16.279542 16.279542 0 0 0-14.964995-9.875133H180.726157z" fill="#33363A" p-id="13876"></path><path d="M357.308285 558.26564a30.282673 30.282673 0 0 1-30.282673 30.274657h-70.664913a30.290688 30.290688 0 0 1-30.290688-30.274657V487.584695a30.274657 30.274657 0 0 1 30.290688-30.274657h70.664913a30.274657 30.274657 0 0 1 30.282673 30.274657v70.680945z" fill="#7815CE" p-id="13877"></path><path d="M625.25944 471.032626H476.002254c-3.182165 0-6.244098 1.266454-8.504477 3.518817l-57.487382 57.45532h-40.678815V493.355877h33.889661c3.182165 0 6.244098-1.266454 8.504478-3.518818l47.059177-47.075208h118.822218a12.023295 12.023295 0 1 0 0-24.04659H453.799236c-3.182165 0-6.244098 1.266454-8.504477 3.518818l-47.059178 47.075208h-33.232387c-6.845263-14.155426-21.233139-24.022544-37.985597-24.022544h-70.664914a42.354061 42.354061 0 0 0-42.313983 42.297952v70.672929a42.354061 42.354061 0 0 0 42.313983 42.297952h70.664914a42.354061 42.354061 0 0 0 42.305967-42.297952v-2.204271h45.65646c3.182165 0 6.244098-1.266454 8.504477-3.518817l57.487382-57.45532h144.279542a12.023295 12.023295 0 0 0 0.008015-24.04659zM345.28499 558.26564a18.275409 18.275409 0 0 1-18.259378 18.251362h-70.664913a18.275409 18.275409 0 0 1-18.267393-18.251362V487.584695a18.275409 18.275409 0 0 1 18.267393-18.251362h70.664913a18.275409 18.275409 0 0 1 18.259378 18.251362v70.680945z" fill="#33363A" p-id="13878"></path><path d="M550.266141 548.630973h-43.756779a12.023295 12.023295 0 1 1 0-24.046591h43.756779a12.023295 12.023295 0 1 1 0 24.046591z" fill="#33363A" p-id="13879"></path><path d="M514.324504 591.578183h-43.740748a12.023295 12.023295 0 1 1 0-24.046591h43.740748a12.023295 12.023295 0 1 1 0 24.046591z" fill="#33363A" p-id="13880"></path></svg>