<?xml version="1.0" standalone="no"?><!DOCTYPE svg PUBLIC "-//W3C//DTD SVG 1.1//EN" "http://www.w3.org/Graphics/SVG/1.1/DTD/svg11.dtd"><svg t="1753152702947" class="icon" viewBox="0 0 1024 1024" version="1.1" xmlns="http://www.w3.org/2000/svg" p-id="14539" xmlns:xlink="http://www.w3.org/1999/xlink" width="256" height="256"><path d="M845.728522 855.231181a26.70408 26.70408 0 0 1-26.696026 26.70408H652.156155a26.712133 26.712133 0 0 1-26.70408-26.70408v-11.604518a26.70408 26.70408 0 0 1 26.70408-26.696027h166.868287a26.696027 26.696027 0 0 1 26.696027 26.696027v11.604518z" fill="#FC70B0" p-id="14540"></path><path d="M652.156155 816.930636c-11.032747 0-20.503193 6.684073-24.570009 16.251156a26.70408 26.70408 0 0 0 24.570009 16.251157h166.868287c11.032747 0 20.503193-6.700179 24.570009-16.251157a26.679921 26.679921 0 0 0-24.570009-16.251156H652.156155z" fill="#FFA9D4" p-id="14541"></path><path d="M819.024442 894.022964H652.156155a38.823996 38.823996 0 0 1-38.775677-38.78373v-11.604518a38.815943 38.815943 0 0 1 38.775677-38.767624h166.868287a38.815943 38.815943 0 0 1 38.775678 38.767624v11.604518a38.815943 38.815943 0 0 1-38.775678 38.78373z m-166.868287-65.012677a14.632483 14.632483 0 0 0-14.616377 14.608323v11.604517c0 8.061153 6.555224 14.62443 14.616377 14.62443h166.868287a14.640536 14.640536 0 0 0 14.616377-14.62443v-11.604517c0-8.0531-6.555224-14.608324-14.616377-14.608323H652.156155z" fill="#33363A" p-id="14542"></path><path d="M812.356476 920.227752a26.70408 26.70408 0 0 1-26.704081 26.70408h-166.860234a26.696027 26.696027 0 0 1-26.70408-26.70408v-11.588411a26.679921 26.679921 0 0 1 26.70408-26.687974H785.660449a26.696027 26.696027 0 0 1 26.70408 26.687974v11.588411z" fill="#FC70B0" p-id="14543"></path><path d="M618.792161 881.943314c-11.0408 0-20.511246 6.684073-24.586115 16.23505a26.728239 26.728239 0 0 0 24.586115 16.251156H785.660449a26.696027 26.696027 0 0 0 24.570008-16.251156 26.679921 26.679921 0 0 0-24.570008-16.23505H618.792161z" fill="#FFA9D4" p-id="14544"></path><path d="M785.660449 959.011482H618.792161a38.832049 38.832049 0 0 1-38.78373-38.78373v-11.588411a38.815943 38.815943 0 0 1 38.78373-38.767624H785.660449a38.815943 38.815943 0 0 1 38.775677 38.767624v11.588411a38.823996 38.823996 0 0 1-38.775677 38.78373z m-166.868288-64.988518a14.632483 14.632483 0 0 0-14.62443 14.608324v11.588411c0 8.061153 6.555224 14.62443 14.62443 14.624429H785.660449a14.640536 14.640536 0 0 0 14.616376-14.624429v-11.588411c0-8.0531-6.555224-14.608324-14.616376-14.608324H618.792161z" fill="#33363A" p-id="14545"></path><path d="M778.968322 985.232376a26.687974 26.687974 0 0 1-26.687973 26.687974H585.404008a26.696027 26.696027 0 0 1-26.696027-26.687974V973.619806a26.696027 26.696027 0 0 1 26.696027-26.696027h166.876341a26.696027 26.696027 0 0 1 26.687973 26.696027v11.61257z" fill="#FC70B0" p-id="14546"></path><path d="M585.404008 946.931832c-11.032747 0-20.503193 6.692126-24.561956 16.251156a26.655761 26.655761 0 0 0 24.561956 16.251156h166.876341c11.032747 0 20.511246-6.684073 24.570008-16.251156a26.687974 26.687974 0 0 0-24.570008-16.251156H585.404008z" fill="#FFA9D4" p-id="14547"></path><path d="M752.280349 1024H585.404008a38.815943 38.815943 0 0 1-38.775677-38.767624V973.619806a38.815943 38.815943 0 0 1 38.775677-38.767624h166.876341a38.815943 38.815943 0 0 1 38.767624 38.767624v11.604517a38.80789 38.80789 0 0 1-38.767624 38.775677z m-166.876341-64.988518a14.632483 14.632483 0 0 0-14.616377 14.608324v11.604517c0 8.0531 6.555224 14.608324 14.616377 14.608324h166.876341a14.62443 14.62443 0 0 0 14.608323-14.608324V973.619806c0-8.0531-6.54717-14.608324-14.608323-14.608324H585.404008z" fill="#33363A" p-id="14548"></path><path d="M865.313662 698.477587a32.760011 32.760011 0 0 0-30.070276-19.786467h-646.502878a32.735852 32.735852 0 0 0-32.735852 32.727798v267.76558a32.727799 32.727799 0 0 0 32.735852 32.727799h393.297304a32.695587 32.695587 0 0 0 23.780805-10.251597l253.213627-267.749473a32.727799 32.727799 0 0 0 6.281418-35.43364z" fill="#FC70B0" p-id="14549"></path><path d="M188.740508 1011.92035h393.297304a32.695587 32.695587 0 0 0 23.780805-10.251597l246.843625-261.009028a32.615056 32.615056 0 0 0-17.418856-5.0654h-646.502878a32.719746 32.719746 0 0 0-32.735852 32.719746v210.87848a32.727799 32.727799 0 0 0 32.735852 32.727799z" fill="#E2378D" p-id="14550"></path><path d="M582.029759 1024H188.740508a44.855768 44.855768 0 0 1-44.807449-44.807449v-267.765579a44.855768 44.855768 0 0 1 44.807449-44.80745h646.502878a44.775237 44.775237 0 0 1 41.167448 27.090629c7.086728 16.46859 3.704426 35.514172-8.608764 48.511875l-253.205574 267.749474a44.968511 44.968511 0 0 1-32.566737 14.0285zM188.740508 690.77077a20.672308 20.672308 0 0 0-20.648149 20.648148v267.76558a20.672308 20.672308 0 0 0 20.648149 20.648149h393.297304c5.653276 0 11.121331-2.351505 14.994872-6.46664l253.221681-267.765579a20.664255 20.664255 0 0 0-15.010979-34.845764h-646.502878z" fill="#33363A" p-id="14551"></path><path d="M692.969266 754.865394a20.15691 20.15691 0 0 0-18.530183-12.2085H276.124697a20.189122 20.189122 0 0 0-20.173016 20.181069v164.959703a20.173016 20.173016 0 0 0 20.173016 20.156909h242.301677c5.548586 0 10.855579-2.279027 14.648589-6.31363l156.004656-164.95165a20.15691 20.15691 0 0 0 3.889647-21.823901z" fill="#7815CE" p-id="14552"></path><path d="M276.124697 947.962629h242.301677c5.548586 0 10.855579-2.279027 14.648589-6.313631l152.090849-160.812356a20.173016 20.173016 0 0 0-10.726729-3.132656H276.124697a20.173016 20.173016 0 0 0-20.173016 20.181069v129.920664a20.173016 20.173016 0 0 0 20.173016 20.15691z" fill="#A02FF2" p-id="14553"></path><path d="M518.426374 960.042279H276.124697a32.284878 32.284878 0 0 1-32.252666-32.23656V762.846016a32.292932 32.292932 0 0 1 32.252666-32.260719h398.314386c12.893013 0 24.52169 7.658498 29.627355 19.504608a32.196294 32.196294 0 0 1-6.20894 34.902136L541.852842 949.943691a32.292932 32.292932 0 0 1-23.426468 10.098588zM276.124697 754.744597c-4.461417 0-8.093366 3.631948-8.093365 8.101419v164.959703c0 4.453364 3.631948 8.077259 8.093365 8.077259h242.301677c2.214603 0 4.348674-0.918053 5.862657-2.52062l156.020762-164.975809a8.085313 8.085313 0 0 0-5.87071-13.650005H276.124697z" fill="#33363A" p-id="14554"></path><path d="M401.849696 878.246941a21.566202 21.566202 0 0 1-21.558149 21.566202h-50.331875a21.566202 21.566202 0 0 1-21.558149-21.566202v-50.31577a21.574255 21.574255 0 0 1 21.558149-21.574255h50.331875a21.574255 21.574255 0 0 1 21.558149 21.574255v50.31577z" fill="#7815CE" p-id="14555"></path><path d="M558.707981 775.37664H470.5668a12.07965 12.07965 0 1 0 0 24.1593h23.877442l-56.508604 56.492498H413.929347v-28.097267a33.686118 33.686118 0 0 0-33.6378-33.653905h-50.331875a33.686118 33.686118 0 0 0-33.6378 33.653905v50.31577a33.678065 33.678065 0 0 0 33.6378 33.645852h50.331875c17.877882 0 32.413728-14.068766 33.436472-31.705055H442.920507c3.197081 0 6.273365-1.27239 8.544339-3.535311l75.908522-75.876309c0.36239-0.36239 0.515398-0.837522 0.821416-1.240178h30.505144a12.07965 12.07965 0 0 0 0.008053-24.1593zM389.770046 878.246941a9.502658 9.502658 0 0 1-9.478499 9.486552h-50.331875a9.502658 9.502658 0 0 1-9.478499-9.486552v-50.31577c0-5.234515 4.252037-9.494605 9.478499-9.494605h50.331875a9.502658 9.502658 0 0 1 9.478499 9.494605v50.31577zM539.251691 874.912957h-31.157445a12.07965 12.07965 0 1 1 0-24.1593h31.157445a12.07965 12.07965 0 1 1 0 24.1593z" fill="#33363A" p-id="14556"></path><path d="M845.728522 521.921419a26.70408 26.70408 0 0 1-26.696026 26.712133H652.156155a26.712133 26.712133 0 0 1-26.70408-26.712133v-11.596464a26.70408 26.70408 0 0 1 26.70408-26.70408h166.868287a26.70408 26.70408 0 0 1 26.696027 26.70408v11.596464z" fill="#FC70B0" p-id="14557"></path><path d="M652.156155 483.612822c-11.032747 0-20.503193 6.700179-24.570009 16.259209a26.696027 26.696027 0 0 0 24.570009 16.259209h166.868287c11.032747 0 20.503193-6.700179 24.570009-16.259209a26.696027 26.696027 0 0 0-24.570009-16.259209H652.156155z" fill="#FFA9D4" p-id="14558"></path><path d="M819.024442 560.713203H652.156155a38.832049 38.832049 0 0 1-38.775677-38.791784v-11.596464a38.815943 38.815943 0 0 1 38.775677-38.78373h166.868287a38.823996 38.823996 0 0 1 38.775678 38.78373v11.596464a38.815943 38.815943 0 0 1-38.775678 38.791784z m-166.868287-65.020731a14.640536 14.640536 0 0 0-14.616377 14.62443v11.596464c0 8.069206 6.555224 14.632483 14.616377 14.632483h166.868287a14.640536 14.640536 0 0 0 14.616377-14.632483v-11.596464a14.640536 14.640536 0 0 0-14.616377-14.62443H652.156155z" fill="#33363A" p-id="14559"></path><path d="M812.356476 586.91799a26.70408 26.70408 0 0 1-26.704081 26.696027h-166.860234a26.696027 26.696027 0 0 1-26.70408-26.696027v-11.588411a26.679921 26.679921 0 0 1 26.70408-26.687973H785.660449a26.696027 26.696027 0 0 1 26.70408 26.687973v11.588411z" fill="#FC70B0" p-id="14560"></path><path d="M618.792161 548.633552c-11.0408 0-20.511246 6.684073-24.586115 16.23505a26.728239 26.728239 0 0 0 24.586115 16.251156H785.660449a26.696027 26.696027 0 0 0 24.570008-16.251156 26.679921 26.679921 0 0 0-24.570008-16.23505H618.792161z" fill="#FFA9D4" p-id="14561"></path><path d="M785.660449 625.685615H618.792161a38.815943 38.815943 0 0 1-38.78373-38.767625v-11.588411a38.815943 38.815943 0 0 1 38.78373-38.767624H785.660449a38.815943 38.815943 0 0 1 38.775677 38.767624v11.588411a38.815943 38.815943 0 0 1-38.775677 38.767625z m-166.868288-64.972412a14.632483 14.632483 0 0 0-14.62443 14.608323v11.588411c0 8.0531 6.555224 14.608324 14.62443 14.608324H785.660449a14.632483 14.632483 0 0 0 14.616376-14.608324v-11.588411c0-8.0531-6.555224-14.608324-14.616376-14.608323H618.792161z" fill="#33363A" p-id="14562"></path><path d="M778.968322 651.922615a26.687974 26.687974 0 0 1-26.687973 26.687974H585.404008a26.696027 26.696027 0 0 1-26.696027-26.687974v-11.596464a26.70408 26.70408 0 0 1 26.696027-26.712134h166.876341a26.70408 26.70408 0 0 1 26.687973 26.712134v11.596464z" fill="#FC70B0" p-id="14563"></path><path d="M585.404008 613.605964c-11.032747 0-20.503193 6.700179-24.561956 16.267263a26.687974 26.687974 0 0 0 24.561956 16.251156h166.876341c11.032747 0 20.511246-6.700179 24.570008-16.251156a26.687974 26.687974 0 0 0-24.570008-16.267263H585.404008z" fill="#FFA9D4" p-id="14564"></path><path d="M752.280349 690.698292H585.404008a38.815943 38.815943 0 0 1-38.775677-38.767624v-11.596464a38.832049 38.832049 0 0 1 38.775677-38.791784h166.876341a38.823996 38.823996 0 0 1 38.767624 38.791784v11.596464a38.815943 38.815943 0 0 1-38.767624 38.767624z m-166.876341-65.012677a14.640536 14.640536 0 0 0-14.616377 14.632482v11.596465c0 8.0531 6.555224 14.608324 14.616377 14.608323h166.876341a14.62443 14.62443 0 0 0 14.608323-14.608323v-11.596465a14.632483 14.632483 0 0 0-14.608323-14.632482H585.404008z" fill="#33363A" p-id="14565"></path><path d="M865.313662 365.175878a32.735852 32.735852 0 0 0-30.070276-19.786467h-646.502878a32.735852 32.735852 0 0 0-32.735852 32.727799v267.76558a32.727799 32.727799 0 0 0 32.735852 32.727799h393.297304a32.695587 32.695587 0 0 0 23.780805-10.243544l253.213627-267.773632a32.695587 32.695587 0 0 0 6.281418-35.417535z" fill="#FC70B0" p-id="14566"></path><path d="M188.740508 678.618642h393.297304a32.695587 32.695587 0 0 0 23.780805-10.243544l246.843625-261.025134a32.816383 32.816383 0 0 0-17.418856-5.057347h-646.502878a32.727799 32.727799 0 0 0-32.735852 32.719746v210.87848a32.735852 32.735852 0 0 0 32.735852 32.727799z" fill="#E2378D" p-id="14567"></path><path d="M582.029759 690.698292H188.740508a44.855768 44.855768 0 0 1-44.807449-44.807449v-267.76558a44.855768 44.855768 0 0 1 44.807449-44.807449h646.502878a44.775237 44.775237 0 0 1 41.167448 27.090629c7.086728 16.476643 3.704426 35.514172-8.616817 48.503822l-253.197521 267.76558a45.01683 45.01683 0 0 1-32.566737 14.020447zM188.740508 357.469062a20.672308 20.672308 0 0 0-20.648149 20.648148v267.76558a20.672308 20.672308 0 0 0 20.648149 20.648148h393.297304a20.696467 20.696467 0 0 0 14.994872-6.458586l253.221681-267.781685a20.59983 20.59983 0 0 0 3.962125-22.3393 20.623989 20.623989 0 0 0-18.973104-12.482305h-646.502878z" fill="#33363A" p-id="14568"></path><path d="M692.969266 421.563686a20.15691 20.15691 0 0 0-18.530183-12.2085H276.124697a20.181069 20.181069 0 0 0-20.173016 20.181069v164.959703a20.15691 20.15691 0 0 0 20.173016 20.148856h242.301677c5.548586 0 10.855579-2.262921 14.648589-6.305577l156.004656-164.959703a20.148857 20.148857 0 0 0 3.889647-21.815848z" fill="#7815CE" p-id="14569"></path><path d="M276.124697 614.644814h242.301677c5.548586 0 10.855579-2.262921 14.648589-6.305577l152.090849-160.82041a20.213281 20.213281 0 0 0-10.726729-3.108496H276.124697a20.15691 20.15691 0 0 0-20.173016 20.148856v129.936771a20.15691 20.15691 0 0 0 20.173016 20.148856z" fill="#A02FF2" p-id="14570"></path><path d="M518.426374 626.724464H276.124697a32.276825 32.276825 0 0 1-32.252666-32.228506V429.536255a32.292932 32.292932 0 0 1 32.252666-32.260719h398.314386c12.893013 0 24.52169 7.658498 29.619302 19.504608h0.008053a32.196294 32.196294 0 0 1-6.20894 34.902136L541.852842 616.641983a32.284878 32.284878 0 0 1-23.426468 10.082481zM276.124697 421.434836c-4.461417 0-8.093366 3.631948-8.093365 8.101419v164.959703c0 4.445311 3.631948 8.069206 8.093365 8.069206h242.301677a8.0531 8.0531 0 0 0 5.854604-2.504514l156.028815-164.991916a8.028941 8.028941 0 0 0 1.570354-8.72956h-0.008053a8.085313 8.085313 0 0 0-7.433011-4.904338H276.124697z" fill="#33363A" p-id="14571"></path><path d="M401.849696 544.93718a21.582308 21.582308 0 0 1-21.558149 21.566202h-50.331875a21.582308 21.582308 0 0 1-21.558149-21.566202V494.62141a21.566202 21.566202 0 0 1 21.558149-21.566202h50.331875A21.566202 21.566202 0 0 1 401.849696 494.62141v50.31577z" fill="#7815CE" p-id="14572"></path><path d="M558.707981 442.050772H470.5668a12.07965 12.07965 0 1 0 0 24.159301H494.460348l-56.52471 56.508603H413.929347V494.62141a33.678065 33.678065 0 0 0-33.6378-33.645852h-50.331875a33.678065 33.678065 0 0 0-33.6378 33.645852v50.31577a33.678065 33.678065 0 0 0 33.6378 33.645852h50.331875c17.877882 0 32.413728-14.068766 33.436472-31.713108H442.920507c3.197081 0 6.273365-1.27239 8.544339-3.535311l75.908522-75.87631c0.370443-0.370443 0.523452-0.853629 0.837523-1.256283h30.49709a12.07965 12.07965 0 1 0 0-24.151248zM389.770046 544.93718a9.502658 9.502658 0 0 1-9.478499 9.486551h-50.331875a9.502658 9.502658 0 0 1-9.478499-9.486551V494.62141a9.502658 9.502658 0 0 1 9.478499-9.486552h50.331875A9.502658 9.502658 0 0 1 389.770046 494.62141v50.31577z" fill="#33363A" p-id="14573"></path><path d="M539.251691 541.603196h-31.157445a12.07965 12.07965 0 1 1 0-24.1593h31.157445a12.07965 12.07965 0 1 1 0 24.1593z" fill="#33363A" p-id="14574"></path><path d="M845.728522 188.603605a26.696027 26.696027 0 0 1-26.696026 26.70408H652.156155a26.70408 26.70408 0 0 1-26.70408-26.70408v-11.596464a26.712133 26.712133 0 0 1 26.70408-26.712133h166.868287a26.70408 26.70408 0 0 1 26.696027 26.712133v11.596464z" fill="#FC70B0" p-id="14575"></path><path d="M652.156155 150.295008c-11.032747 0-20.503193 6.708232-24.570009 16.267262a26.687974 26.687974 0 0 0 24.570009 16.243103h166.868287c11.032747 0 20.503193-6.684073 24.570009-16.243103a26.70408 26.70408 0 0 0-24.570009-16.267262H652.156155z" fill="#FFA9D4" p-id="14576"></path><path d="M819.024442 227.387335H652.156155a38.823996 38.823996 0 0 1-38.775677-38.78373v-11.596464a38.832049 38.832049 0 0 1 38.775677-38.791783h166.868287a38.832049 38.832049 0 0 1 38.775678 38.791783v11.588411a38.815943 38.815943 0 0 1-38.775678 38.791783z m-166.868287-65.012677a14.640536 14.640536 0 0 0-14.616377 14.632483v11.588411c0 8.061153 6.555224 14.62443 14.616377 14.62443h166.868287a14.640536 14.640536 0 0 0 14.616377-14.62443V177.007141a14.640536 14.640536 0 0 0-14.616377-14.632483H652.156155z" fill="#33363A" p-id="14577"></path><path d="M812.356476 253.600176a26.720186 26.720186 0 0 1-26.704081 26.712133h-166.860234a26.712133 26.712133 0 0 1-26.70408-26.712133v-11.580358a26.696027 26.696027 0 0 1 26.70408-26.70408H785.660449a26.70408 26.70408 0 0 1 26.70408 26.70408v11.580358z" fill="#FC70B0" p-id="14578"></path><path d="M618.792161 215.307685a26.736292 26.736292 0 0 0-24.586115 16.243103 26.736292 26.736292 0 0 0 24.586115 16.259209H785.660449a26.720186 26.720186 0 0 0 24.570008-16.259209 26.70408 26.70408 0 0 0-24.570008-16.243103H618.792161z" fill="#FFA9D4" p-id="14579"></path><path d="M785.660449 292.400013H618.792161a38.832049 38.832049 0 0 1-38.78373-38.791784v-11.580358a38.815943 38.815943 0 0 1 38.78373-38.78373H785.660449a38.823996 38.823996 0 0 1 38.775677 38.78373v11.580358a38.832049 38.832049 0 0 1-38.775677 38.791784z m-166.868288-65.012678a14.640536 14.640536 0 0 0-14.62443 14.62443v11.580358c0 8.069206 6.555224 14.632483 14.62443 14.632483H785.660449a14.640536 14.640536 0 0 0 14.616376-14.632483v-11.580358a14.640536 14.640536 0 0 0-14.616376-14.62443H618.792161z" fill="#33363A" p-id="14580"></path><path d="M778.968322 318.612854a26.687974 26.687974 0 0 1-26.687973 26.687973H585.404008a26.696027 26.696027 0 0 1-26.696027-26.687973v-11.604518a26.679921 26.679921 0 0 1 26.696027-26.687974h166.876341a26.679921 26.679921 0 0 1 26.687973 26.687974v11.604518z" fill="#FC70B0" p-id="14581"></path><path d="M585.404008 280.320362a26.655761 26.655761 0 0 0-24.561956 16.251156 26.687974 26.687974 0 0 0 24.561956 16.251157h166.876341c11.032747 0 20.511246-6.700179 24.570008-16.251157a26.671868 26.671868 0 0 0-24.570008-16.251156H585.404008z" fill="#FFA9D4" p-id="14582"></path><path d="M752.280349 357.388531H585.404008a38.815943 38.815943 0 0 1-38.775677-38.767624v-11.604518a38.815943 38.815943 0 0 1 38.775677-38.767624h166.876341a38.815943 38.815943 0 0 1 38.767624 38.767624v11.604518a38.815943 38.815943 0 0 1-38.767624 38.767624z m-166.876341-64.988518a14.632483 14.632483 0 0 0-14.616377 14.608323v11.604518c0 8.0531 6.555224 14.608324 14.616377 14.608323h166.876341a14.62443 14.62443 0 0 0 14.608323-14.608323v-11.604518c0-8.0531-6.54717-14.608324-14.608323-14.608323H585.404008z" fill="#33363A" p-id="14583"></path><path d="M865.313662 31.866117a32.735852 32.735852 0 0 0-30.070276-19.786467h-646.502878a32.735852 32.735852 0 0 0-32.735852 32.727799v267.757526a32.727799 32.727799 0 0 0 32.735852 32.735852h393.297304a32.727799 32.727799 0 0 0 23.780805-10.251596l253.213627-267.765579a32.695587 32.695587 0 0 0 6.281418-35.417535z" fill="#FC70B0" p-id="14584"></path><path d="M188.740508 345.30888h393.297304a32.727799 32.727799 0 0 0 23.780805-10.251596L852.662242 74.032149a32.67948 32.67948 0 0 0-17.418856-5.065399h-646.502878a32.719746 32.719746 0 0 0-32.735852 32.719745v210.87848a32.735852 32.735852 0 0 0 32.735852 32.743905z" fill="#E2378D" p-id="14585"></path><path d="M582.029759 357.388531H188.740508a44.863821 44.863821 0 0 1-44.807449-44.815503V44.807449A44.847715 44.847715 0 0 1 188.740508 0h646.502878a44.775237 44.775237 0 0 1 41.167448 27.090629 44.710812 44.710812 0 0 1-8.616817 48.511875L614.588443 343.351977a44.936299 44.936299 0 0 1-32.558684 14.036554zM188.740508 24.1593a20.672308 20.672308 0 0 0-20.648149 20.648149v267.757526a20.672308 20.672308 0 0 0 20.648149 20.656202h393.297304a20.696467 20.696467 0 0 0 14.994872-6.474692l253.221681-267.76558a20.583724 20.583724 0 0 0 3.962125-22.339299A20.623989 20.623989 0 0 0 835.243386 24.1593h-646.502878z" fill="#33363A" p-id="14586"></path><path d="M692.969266 88.253924a20.164963 20.164963 0 0 0-18.530183-12.224606H276.124697a20.181069 20.181069 0 0 0-20.173016 20.181069v164.975809c0 11.121331 9.035578 20.13275 20.173016 20.132751h242.301677c5.548586 0 10.855579-2.262921 14.648589-6.289471l156.004656-164.959703a20.140803 20.140803 0 0 0 3.889647-21.815849z" fill="#7815CE" p-id="14587"></path><path d="M276.124697 281.327h242.301677c5.548586 0 10.855579-2.262921 14.648589-6.289471l152.090849-160.828463a20.15691 20.15691 0 0 0-10.726729-3.11655H276.124697a20.173016 20.173016 0 0 0-20.173016 20.173016v129.928718c0 11.113278 9.035578 20.13275 20.173016 20.13275z" fill="#A02FF2" p-id="14588"></path><path d="M518.426374 293.40665H276.124697a32.268772 32.268772 0 0 1-32.252666-32.2124V96.210387a32.292932 32.292932 0 0 1 32.252666-32.260719h398.314386c12.893013 0 24.52169 7.666551 29.627355 19.520715a32.172135 32.172135 0 0 1-6.216993 34.910189l-155.98855 164.943597a32.34125 32.34125 0 0 1-23.434521 10.082481zM276.124697 88.108969c-4.461417 0-8.093366 3.631948-8.093365 8.101418v164.975809c0 4.437258 3.631948 8.0531 8.093365 8.053101h242.301677c2.222656 0 4.36478-0.91 5.87071-2.504515l156.012709-164.975809a8.077259 8.077259 0 0 0-5.87071-13.650004H276.124697z" fill="#33363A" p-id="14589"></path><path d="M401.849696 211.619365a21.582308 21.582308 0 0 1-21.558149 21.574255h-50.331875a21.582308 21.582308 0 0 1-21.558149-21.574255v-50.307716c0-11.918588 9.655667-21.582308 21.558149-21.582309h50.331875a21.574255 21.574255 0 0 1 21.558149 21.582309v50.307716z" fill="#7815CE" p-id="14590"></path><path d="M558.707981 108.749064H470.5668a12.07965 12.07965 0 1 0 0 24.159301h23.885495L437.927585 189.408915H413.929347v-28.089213a33.686118 33.686118 0 0 0-33.6378-33.661959h-50.331875a33.686118 33.686118 0 0 0-33.6378 33.661959v50.307716a33.686118 33.686118 0 0 0 33.6378 33.653906h50.331875c17.877882 0 32.413728-14.068766 33.436472-31.713109H442.920507c3.197081 0 6.273365-1.27239 8.544339-3.535311l75.908522-75.876309c0.370443-0.370443 0.515398-0.845576 0.829469-1.24823h30.505144a12.07965 12.07965 0 1 0 0-24.159301zM389.770046 211.619365a9.502658 9.502658 0 0 1-9.478499 9.494605h-50.331875a9.502658 9.502658 0 0 1-9.478499-9.494605v-50.307716c0-5.234515 4.252037-9.502658 9.478499-9.502658h50.331875a9.502658 9.502658 0 0 1 9.478499 9.502658v50.307716z" fill="#33363A" p-id="14591"></path><path d="M539.251691 208.285382h-31.157445a12.07965 12.07965 0 1 1 0-24.159301h31.157445a12.07965 12.07965 0 1 1 0 24.159301z" fill="#33363A" p-id="14592"></path></svg>