<?xml version="1.0" standalone="no"?><!DOCTYPE svg PUBLIC "-//W3C//DTD SVG 1.1//EN" "http://www.w3.org/Graphics/SVG/1.1/DTD/svg11.dtd"><svg t="1753152299101" class="icon" viewBox="0 0 1024 1024" version="1.1" xmlns="http://www.w3.org/2000/svg" p-id="8735" xmlns:xlink="http://www.w3.org/1999/xlink" width="256" height="256"><path d="M512 512m-500.054873 0a500.054873 500.054873 0 1 0 1000.109746 0 500.054873 500.054873 0 1 0-1000.109746 0Z" fill="#FFD00B" p-id="8736"></path><path d="M512.007963 78.455595c-264.998662 0-481.715121 206.149003-498.83647 466.799639 17.121349 260.650636 233.837808 466.799639 498.83647 466.799639 264.966809 0 481.691231-206.149003 498.83647-466.799639-17.137276-260.6586-233.861698-466.799639-498.83647-466.799639z" fill="#FFAA00" p-id="8737"></path><path d="M512.007963 1024C229.688867 1024 0 794.319097 0 512S229.688867 0 512.007963 0c282.311133 0 511.992037 229.680903 511.992037 512s-229.67294 512-511.992037 512zM512.007963 23.890254C242.86036 23.890254 23.890254 242.86036 23.890254 512s218.970106 488.109746 488.117709 488.109746c269.13964 0 488.101782-218.970106 488.101783-488.109746S781.147603 23.890254 512.007963 23.890254z" fill="#33363A" p-id="8738"></path><path d="M934.507108 511.97611c0 233.375929-189.163032 422.523035-422.515071 422.523035-233.328149 0-422.491181-189.147105-422.491182-422.523035 0-233.320185 189.163032-422.475254 422.491182-422.475255 233.352039 0 422.515071 189.155069 422.515071 422.475255z" fill="#D8E5EA" p-id="8739"></path><path d="M89.500855 511.97611c0 233.375929 189.163032 422.523035 422.491182 422.523035 233.352039 0 422.515071-189.147105 422.515071-422.523035H89.500855z" fill="#FFFFFF" p-id="8740"></path><path d="M511.992037 946.444272c-239.547578 0-434.436308-194.904657-434.436309-434.468162 0-239.539615 194.88873-434.420381 434.436309-434.420382 239.563505 0 434.460198 194.880766 434.460198 434.420382 0 239.563505-194.896693 434.468162-434.460198 434.468162z m0-844.990326c-226.376085 0-410.546054 184.162006-410.546054 410.530127 0 226.392012 184.169969 410.577908 410.546054 410.577908 226.384048 0 410.569944-184.177933 410.569944-410.577908 0-226.376085-184.177933-410.530127-410.569944-410.530127z" fill="#33363A" p-id="8741"></path><path d="M571.064672 480.409121c32.634087 32.650014 32.634087 85.511183 0 118.137306-32.61816 32.634087-85.495256 32.634087-118.129344 0-32.61816-32.626124-32.61816-85.487293 0-118.137306 32.634087-32.59427 85.519146-32.59427 118.129344 0z" fill="#A7BBC1" p-id="8742"></path><path d="M452.935328 452.035462c32.61816-32.634087 85.511183-32.634087 118.145271 0 32.586307 32.602233 32.586307 85.495256 0 118.113417-32.634087 32.61816-85.52711 32.61816-118.145271 0-32.626124-32.61816-32.626124-85.511183 0-118.113417z" fill="#FFAA00" p-id="8743"></path><path d="M512.007963 594.612499c-46.132081 0-83.536255-37.404175-83.536255-83.536255s37.404175-83.528292 83.520329-83.520329" fill="#FFD00B" p-id="8744"></path><path d="M512.007963 606.509845a95.24248 95.24248 0 0 1-67.513858-27.895853c-37.228979-37.244906-37.228979-97.822627 0-135.043643 37.236943-37.213053 97.8067-37.213053 135.019753 0a94.836346 94.836346 0 0 1 27.975488 67.513858c0 25.506828-9.938346 49.48468-27.975488 67.521822a95.194699 95.194699 0 0 1-67.505895 27.903816z m0-166.968986a71.376116 71.376116 0 0 0-50.623448 20.927863c-27.903817 27.903817-27.903817 73.327153 0 101.246897 27.91178 27.879927 73.327153 27.88789 101.23097 0a71.137213 71.137213 0 0 0 20.975643-50.631412 71.10536 71.10536 0 0 0-20.975643-50.615485 71.328335 71.328335 0 0 0-50.607522-20.927863z" fill="#33363A" p-id="8745"></path><path d="M534.57629 363.896351a22.57629 22.57629 0 0 1-45.136653 0V150.516565a22.57629 22.57629 0 0 1 22.568326-22.568327 22.584254 22.584254 0 0 1 22.568327 22.568327v213.379786z" fill="#7BC67B" p-id="8746"></path><path d="M512.007963 169.055402a22.568327 22.568327 0 0 0-22.568326 22.568326v172.272623a22.57629 22.57629 0 0 0 45.136653 0V191.623728a22.568327 22.568327 0 0 0-22.568327-22.568326z" fill="#0086FF" p-id="8747"></path><path d="M512.007963 398.409805a34.553271 34.553271 0 0 1-34.513453-34.513454V150.516565c0-19.032569 15.480885-34.513454 34.513453-34.513454s34.513454 15.480885 34.513454 34.513454v213.379786a34.561234 34.561234 0 0 1-34.513454 34.513454z m0-258.51644c-5.853112 0-10.6232 4.770087-10.623199 10.6232v213.379786c0 5.853112 4.770087 10.6232 10.623199 10.6232s10.6232-4.770087 10.6232-10.6232V150.516565c0-5.861076-4.762124-10.6232-10.6232-10.6232z" fill="#33363A" p-id="8748"></path><path d="M659.61788 533.660497a22.568327 22.568327 0 0 1-22.5524-22.57629 22.560363 22.560363 0 0 1 22.5524-22.57629h213.379787a22.584254 22.584254 0 0 1 0 45.15258H659.61788z" fill="#FF1A1A" p-id="8749"></path><path d="M854.466793 511.084207a22.57629 22.57629 0 0 0-22.568327-22.57629H659.61788a22.568327 22.568327 0 0 0-22.5524 22.57629 22.568327 22.568327 0 0 0 22.5524 22.57629h172.28855a22.57629 22.57629 0 0 0 22.560363-22.57629z" fill="#D60909" p-id="8750"></path><path d="M872.989704 545.605624H659.61788c-19.024606 0-34.497527-15.488848-34.497527-34.521417s15.472921-34.521417 34.497527-34.521417h213.379787c19.032569 0 34.513454 15.488848 34.513454 34.521417s-15.488848 34.521417-34.521417 34.521417z m-213.371824-45.15258a10.631163 10.631163 0 0 0 0 21.262326h213.379787c5.853112 0 10.6232-4.770087 10.6232-10.631163s-4.770087-10.631163-10.6232-10.631163H659.61788z" fill="#33363A" p-id="8751"></path></svg>