<?xml version="1.0" standalone="no"?><!DOCTYPE svg PUBLIC "-//W3C//DTD SVG 1.1//EN" "http://www.w3.org/Graphics/SVG/1.1/DTD/svg11.dtd"><svg t="1753153123676" class="icon" viewBox="0 0 1024 1024" version="1.1" xmlns="http://www.w3.org/2000/svg" p-id="22782" xmlns:xlink="http://www.w3.org/1999/xlink" width="256" height="256"><path d="M666.338661 527.066747c-31.018118 53.109581-88.494522 88.985086-154.33464 88.985086s-123.316522-35.867464-154.342682-88.985086H94.164155c41.344087 192.703175 212.953012 337.644721 417.839866 337.644722s376.495779-144.941546 417.839866-337.644722H666.338661z" fill="#FF908A" p-id="22783"></path><path d="M512.004021 616.051833c-65.84816 0-123.316522-35.875506-154.33464-88.985086H131.4631C202.305362 665.309281 346.241654 760.213302 511.995979 760.213302s309.698659-94.904022 380.532879-233.146555H666.338661c-31.018118 53.117623-88.494522 88.985086-154.33464 88.985086z" fill="#FF6155" p-id="22784"></path><path d="M512.004021 876.774517c-205.787562 0-386.483983-146.011136-429.637527-347.182572a12.07109 12.07109 0 0 1 11.797661-14.588246H357.661339a12.063048 12.063048 0 0 1 10.414432 5.983272c29.908318 51.203619 85.052532 83.009856 143.920208 83.009856s114.019932-31.806237 143.920208-83.009856c2.163307-3.699335 6.128029-5.983272 10.414432-5.983272h263.505226a12.079132 12.079132 0 0 1 11.797661 14.588246c-43.153545 201.179477-223.841924 347.182571-429.629485 347.182572zM109.363596 539.129796c46.193433 182.554131 213.154063 313.518625 402.632383 313.518624s356.43895-130.964494 402.632383-313.518624H673.118094c-34.934588 55.063794-96.021864 88.985086-161.114073 88.985086s-126.179485-33.921292-161.114073-88.985086H109.363596z" fill="#33363A" p-id="22785"></path><path d="M357.661339 349.715812c31.018118-53.109581 88.494522-89.00117 154.33464-89.001171s123.316522 35.89159 154.33464 89.001171h263.505226C888.4998 157.012636 716.882833 12.063048 512.004021 12.063048S135.5002 157.012636 94.164155 349.715812H357.661339z" fill="#FF908A" p-id="22786"></path><path d="M512.004021 260.714641c65.84816 0 123.316522 35.89159 154.33464 89.001171h226.198239c-70.842262-138.274701-214.778554-233.154597-380.532879-233.154598s-309.698659 94.879896-380.532879 233.154598H357.661339c31.02616-53.109581 88.494522-89.00117 154.342682-89.001171z" fill="#FF6155" p-id="22787"></path><path d="M929.843887 361.77886H666.338661a12.063048 12.063048 0 0 1-10.414432-5.983272c-29.91636-51.211661-85.060574-83.02594-143.920208-83.02594s-114.01189 31.814279-143.920208 83.02594c-2.163307 3.699335-6.128029 5.983272-10.414432 5.983272H94.164155a12.079132 12.079132 0 0 1-11.797661-14.588247C125.52808 146.011136 306.216459 0 512.004021 0s386.475941 146.011136 429.637527 347.190613a12.07109 12.07109 0 0 1-11.797661 14.588247z m-256.725793-24.126097h241.51831C868.442971 155.098633 701.482341 24.126097 512.004021 24.126097S155.565071 155.098633 109.363596 337.652763h241.51831c34.94263-55.071836 96.029906-89.00117 161.114073-89.00117s126.179485 33.929334 161.122115 89.00117z" fill="#33363A" p-id="22788"></path><path d="M605.162922 438.379216c0 51.48509-41.705979 93.174985-93.158901 93.174985s-93.174985-41.689895-93.174985-93.174985c0-51.436838 41.722063-93.174985 93.174985-93.174985s93.158901 41.730105 93.158901 93.174985z" fill="#FF908A" p-id="22789"></path><path d="M418.829036 438.379216c0-51.436838 41.722063-93.174985 93.174985-93.174985s93.158901 41.730105 93.158901 93.174985" fill="#FF6155" p-id="22790"></path><path d="M512.004021 543.61725c-58.031304 0-105.238033-47.206729-105.238033-105.238034s47.206729-105.238033 105.238033-105.238033c58.023262 0 105.221949 47.206729 105.221949 105.238033s-47.198687 105.238033-105.221949 105.238034z m0-186.34997c-44.729783 0-81.111937 36.382154-81.111937 81.111936S467.274238 519.491153 512.004021 519.491153c44.721741 0 81.095853-36.382154 81.095853-81.111937s-36.382154-81.111937-81.095853-81.111936zM334.307278 450.442265H202.667253a12.063048 12.063048 0 1 1 0-24.126097h131.640025a12.063048 12.063048 0 1 1 0 24.126097zM126.863058 450.426181a12.079132 12.079132 0 0 1-12.063049-12.063049c0-3.136393 1.286725-6.272785 3.466116-8.524554 4.575916-4.503538 12.617948-4.503538 17.129529 0a12.046964 12.046964 0 0 1-8.532596 20.587603zM57.782001 450.426181a12.38473 12.38473 0 0 1-8.596932-3.538495 12.296267 12.296267 0 0 1-3.466116-8.524554c0-3.136393 1.286725-6.272785 3.466116-8.524554 4.575916-4.503538 12.617948-4.503538 17.129528 0 2.243727 2.251769 3.530452 5.388162 3.530453 8.524554s-1.286725 6.272785-3.530453 8.524554c-2.332189 2.251769-5.388162 3.538494-8.532596 3.538495zM821.340789 450.442265H689.716848a12.063048 12.063048 0 1 1 0-24.126097h131.623941a12.063048 12.063048 0 1 1 0 24.126097zM897.136942 450.426181a12.055006 12.055006 0 0 1-8.524554-20.587603c4.503538-4.503538 12.54557-4.503538 17.049108 0a12.079132 12.079132 0 0 1-8.524554 20.587603zM966.209957 450.426181c-3.136393 0-6.192365-1.286725-8.524554-3.538495a12.055006 12.055006 0 0 1 0-17.049108c4.583958-4.503538 12.625991-4.503538 17.049108 0a12.079132 12.079132 0 0 1-8.524554 20.587603z" fill="#33363A" p-id="22791"></path><path d="M674.179642 816.973965a22.027126 22.027126 0 0 0-17.829185-15.0386L570.29267 789.413921l-38.481124-77.99967a22.08342 22.08342 0 0 0-39.61505 0l-38.481124 77.99967-86.057787 12.521444a22.04321 22.04321 0 0 0-17.845269 15.0386 22.139715 22.139715 0 0 0 5.589212 22.638321l62.277498 60.677133-14.700835 85.711979a22.099504 22.099504 0 0 0 8.781899 21.625024c6.835727 4.913682 15.834761 5.589212 23.281683 1.648617l76.962248-40.44338 76.962248 40.44338a22.08342 22.08342 0 0 0 32.05554-23.273641l-14.716919-85.711979 62.277498-60.677133a22.059294 22.059294 0 0 0 5.597254-22.638321z" fill="#FFD00B" p-id="22792"></path><path d="M606.30489 900.289419l50.29487-49.016186c-0.08042 0-0.160841-0.032168-0.249303-0.048252L570.29267 838.703536l-38.481124-77.991628a22.059294 22.059294 0 0 0-19.807525-12.296267 22.051252 22.051252 0 0 0-19.807525 12.296267l-38.481124 77.991628-86.057787 12.521445c-0.096504 0.016084-0.168883 0.048252-0.265387 0.048252l50.29487 49.016186-7.237829 42.220669 7.237829 7.068946-9.409178 54.814492c1.053506 1.174137 2.179391 2.275895 3.490242 3.232896 6.835727 4.913682 15.834761 5.589212 23.281683 1.648617l76.962248-40.44338 76.962248 40.44338a22.08342 22.08342 0 0 0 23.257557-1.648617 22.276429 22.276429 0 0 0 3.490242-3.232896l-9.409178-54.814492 7.237829-7.068946-7.245871-42.220669z" fill="#FFBE08" p-id="22793"></path><path d="M424.731888 1023.935664a34.210805 34.210805 0 0 1-20.016618-6.506004 34.001712 34.001712 0 0 1-13.623203-33.470938l13.631245-79.447236-57.741791-56.254015a34.009754 34.009754 0 0 1-8.653227-34.98284 33.937376 33.937376 0 0 1 27.616338-23.281683l79.760876-11.604653 35.682496-72.313953c5.685717-11.5564 17.708555-19.027448 30.624059-19.027448s24.938342 7.471048 30.632101 19.027448l35.674454 72.305911 79.785002 11.604652a34.315351 34.315351 0 0 1 27.568086 23.257558 33.91325 33.91325 0 0 1-8.653227 35.006966l-57.725707 56.245973 13.639287 79.455278a33.969544 33.969544 0 0 1-13.591034 33.430728 34.612907 34.612907 0 0 1-35.996136 2.549324l-71.324784-37.483912-71.348909 37.499996a33.985628 33.985628 0 0 1-15.939308 3.988848z m87.272133-312.754632c-3.795839 0-7.318249 2.179391-8.98295 5.565086l-38.489166 78.007713a12.063048 12.063048 0 0 1-9.079454 6.602508l-86.057787 12.521444a9.964078 9.964078 0 0 0-8.106368 6.835727c-1.166095 3.586746-0.168883 7.631889 2.53324 10.269676l62.277497 60.66909a12.063048 12.063048 0 0 1 3.474158 10.679819l-14.700835 85.711979a9.97212 9.97212 0 0 0 3.99689 9.843447c3.08814 2.227643 7.157409 2.525198 10.52702 0.739867l76.994417-40.459463a12.095216 12.095216 0 0 1 11.226676 0l76.962248 40.443379c3.409822 1.809457 7.55951 1.447566 10.559189-0.731825a9.97212 9.97212 0 0 0 3.99689-9.819321l-14.716919-85.720021a12.063048 12.063048 0 0 1 3.474158-10.679819l62.277497-60.677132c2.758417-2.677997 3.723461-6.618592 2.53324-10.28576a9.8917 9.8917 0 0 0-8.066158-6.811601l-86.081913-12.521444a12.063048 12.063048 0 0 1-9.079454-6.602508l-38.481124-77.999671a10.060582 10.060582 0 0 0-8.990992-5.58117z" fill="#33363A" p-id="22794"></path></svg>