<?xml version="1.0" standalone="no"?><!DOCTYPE svg PUBLIC "-//W3C//DTD SVG 1.1//EN" "http://www.w3.org/Graphics/SVG/1.1/DTD/svg11.dtd"><svg t="1753153106667" class="icon" viewBox="0 0 1024 1024" version="1.1" xmlns="http://www.w3.org/2000/svg" p-id="21918" xmlns:xlink="http://www.w3.org/1999/xlink" width="256" height="256"><path d="M512 880.786463m-131.128344 0a131.128344 131.128344 0 1 0 262.256688 0 131.128344 131.128344 0 1 0-262.256688 0Z" fill="#E02B7E" p-id="21919"></path><path d="M512.008003 749.650115c-64.587753 0-118.146766 46.73208-128.991426 108.214499 10.84466 61.466411 64.403673 108.198492 128.991426 108.198491s118.146766-46.740084 128.991426-108.198491c-10.84466-61.482418-64.403673-108.214498-128.991426-108.214499z" fill="#F93585" p-id="21920"></path><path d="M512.008003 749.650115c72.423119 0 131.120341 58.713228 131.120341 131.136348 0 72.407112-58.697221 131.120341-131.120341 131.120341" fill="#E02B7E" p-id="21921"></path><path d="M642.53609 868.997397a153.265856 153.265856 0 0 0-1.528657-11.132783c-10.84466 61.466411-64.403673 108.198492-128.991426 108.198491v45.835695c72.423119 0 131.120341-58.713228 131.120341-131.120341a139.515948 139.515948 0 0 0-0.600258-11.781062z" fill="#C90D6B" p-id="21922"></path><path d="M512.008003 1023.911962c-78.929915 0-143.141506-64.203587-143.141506-143.125499 0-78.921912 64.211591-143.141506 143.141506-143.141506 78.921912 0 143.125499 64.211591 143.1255 143.141506 0 78.913908-64.203587 143.125499-143.1255 143.125499z m0-262.256688c-65.692227 0-119.131189 53.446965-119.131189 119.131189 0 65.67622 53.438962 119.115182 119.131189 119.115182 65.684224 0 119.115182-53.438962 119.115183-119.115182 0-65.684224-53.438962-119.131189-119.115183-119.131189z" fill="#33363A" p-id="21923"></path><path d="M380.871656 892.791621a12.005158 12.005158 0 0 1-12.005159-12.005158c0-78.921912 64.211591-143.141506 143.141506-143.141506a12.005158 12.005158 0 1 1 0 24.010317c-65.692227 0-119.131189 53.446965-119.131189 119.131189a12.005158 12.005158 0 0 1-12.005158 12.005158z" fill="#33363A" p-id="21924"></path><path d="M418.655891 893.631982a12.005158 12.005158 0 0 1-12.005158-12.005158c0-58.096964 47.260307-105.357271 105.35727-105.357271a12.005158 12.005158 0 1 1 0 24.010317c-44.851272 0-81.346954 36.495682-81.346953 81.346954a12.005158 12.005158 0 0 1-12.005159 12.005158zM430.284888 925.813811c-3.121341 0-6.242682-1.28055-8.483645-3.521514a11.981148 11.981148 0 0 1 0-16.975294c4.481926-4.481926 12.485365-4.481926 16.96729 0 2.240963 2.240963 3.521513 5.362304 3.521514 8.491649 0 3.121341-1.28055 6.242682-3.521514 8.483645s-5.362304 3.521513-8.483645 3.521514z" fill="#FFE6EB" p-id="21925"></path><path d="M380.879659 685.702638m-131.128344 0a131.128344 131.128344 0 1 0 262.256688 0 131.128344 131.128344 0 1 0-262.256688 0Z" fill="#E02B7E" p-id="21926"></path><path d="M380.871656 554.582297c-64.571746 0-118.130759 46.740084-128.991426 108.214498 10.860667 61.466411 64.41968 108.206495 128.991426 108.206495 64.587753 0 118.146766-46.740084 128.991426-108.206495-10.84466-61.474415-64.403673-108.214498-128.991426-108.214498z" fill="#F93585" p-id="21927"></path><path d="M380.871656 554.582297c72.423119 0 131.136348 58.713228 131.136347 131.120341 0 72.423119-58.713228 131.136348-131.136347 131.136348" fill="#E02B7E" p-id="21928"></path><path d="M511.415749 673.929579a144.382039 144.382039 0 0 0-1.544664-11.132784c-10.84466 61.466411-64.403673 108.206495-128.991426 108.206495v45.835696c72.423119 0 131.136348-58.713228 131.136348-131.136348a136.714745 136.714745 0 0 0-0.600258-11.773059z" fill="#C90D6B" p-id="21929"></path><path d="M380.871656 828.844144c-78.921912 0-143.125499-64.211591-143.125499-143.141506 0-78.913908 64.203587-143.125499 143.125499-143.125499 78.929915 0 143.141506 64.203587 143.141506 143.125499 0 78.921912-64.211591 143.141506-143.141506 143.141506z m0-262.256688c-65.684224 0-119.115182 53.438962-119.115183 119.115182 0 65.684224 53.430959 119.131189 119.115183 119.131189 65.692227 0 119.131189-53.446965 119.131189-119.131189 0-65.67622-53.438962-119.115182-119.131189-119.115182z" fill="#33363A" p-id="21930"></path><path d="M249.751315 697.707796a12.005158 12.005158 0 0 1-12.005158-12.005158c0-78.913908 64.203587-143.125499 143.125499-143.125499a12.005158 12.005158 0 1 1 0 24.010317c-65.684224 0-119.115182 53.438962-119.115183 119.115182a12.005158 12.005158 0 0 1-12.005158 12.005158z" fill="#33363A" p-id="21931"></path><path d="M287.519544 698.556161a12.005158 12.005158 0 0 1-12.005159-12.005159c0-58.08896 47.260307-105.349267 105.357271-105.349267a12.005158 12.005158 0 1 1 0 24.010317c-44.851272 0-81.346954 36.495682-81.346954 81.33895a12.005158 12.005158 0 0 1-12.005158 12.005159zM299.108523 730.770003c-3.121341 0-6.242682-1.28055-8.403611-3.521513-2.240963-2.232959-3.601548-5.362304-3.601547-8.483646s1.360585-6.242682 3.601547-8.483645c4.401891-4.489929 12.485365-4.489929 16.967291 0 2.240963 2.232959 3.441479 5.362304 3.441479 8.483645s-1.200516 6.242682-3.441479 8.483646-5.362304 3.521513-8.56368 3.521513z" fill="#FFE6EB" p-id="21932"></path><path d="M643.136348 685.702638m-131.128345 0a131.128344 131.128344 0 1 0 262.256689 0 131.128344 131.128344 0 1 0-262.256689 0Z" fill="#E02B7E" p-id="21933"></path><path d="M643.128344 554.582297c-64.587753 0-118.146766 46.740084-128.991426 108.214498 10.84466 61.466411 64.403673 108.206495 128.991426 108.206495s118.146766-46.740084 129.007433-108.206495c-10.86867-61.474415-64.41968-108.214498-129.007433-108.214498z" fill="#F93585" p-id="21934"></path><path d="M643.128344 554.582297c72.423119 0 131.136348 58.713228 131.136348 131.120341 0 72.423119-58.713228 131.136348-131.136348 131.136348" fill="#E02B7E" p-id="21935"></path><path d="M773.664434 673.929579a152.657595 152.657595 0 0 0-1.528657-11.132784c-10.860667 61.466411-64.41968 108.206495-129.007433 108.206495v45.835696c72.423119 0 131.136348-58.713228 131.136348-131.136348 0-3.961702-0.272117-7.875384-0.600258-11.773059z" fill="#C90D6B" p-id="21936"></path><path d="M643.128344 828.844144c-78.921912 0-143.125499-64.211591-143.125499-143.141506 0-78.913908 64.203587-143.125499 143.125499-143.125499 78.929915 0 143.141506 64.203587 143.141506 143.125499-0.008003 78.921912-64.211591 143.141506-143.141506 143.141506z m0-262.256688c-65.684224 0-119.115182 53.438962-119.115182 119.115182 0 65.684224 53.430959 119.131189 119.115182 119.131189 65.692227 0 119.131189-53.446965 119.131189-119.131189-0.008003-65.67622-53.446965-119.115182-119.131189-119.115182z" fill="#33363A" p-id="21937"></path><path d="M512.008003 697.707796a12.005158 12.005158 0 0 1-12.005158-12.005158c0-78.913908 64.203587-143.125499 143.125499-143.125499a12.005158 12.005158 0 1 1 0 24.010317c-65.684224 0-119.115182 53.438962-119.115182 119.115182a12.005158 12.005158 0 0 1-12.005159 12.005158z" fill="#33363A" p-id="21938"></path><path d="M549.776232 698.556161a12.005158 12.005158 0 0 1-12.005158-12.005159c0-58.08896 47.260307-105.349267 105.35727-105.349267a12.005158 12.005158 0 1 1 0 24.010317c-44.851272 0-81.346954 36.495682-81.346954 81.33895a12.005158 12.005158 0 0 1-12.005158 12.005159z" fill="#FFE6EB" p-id="21939"></path><path d="M561.381218 730.770003c-3.121341 0-6.242682-1.28055-8.483645-3.521513-2.240963-2.232959-3.521513-5.362304-3.521513-8.483646s1.28055-6.242682 3.521513-8.483645c4.481926-4.489929 12.565399-4.489929 16.967291 0 2.240963 2.232959 3.521513 5.362304 3.521513 8.483645s-1.28055 6.242682-3.521513 8.483646-5.28227 3.521513-8.483646 3.521513z" fill="#FFE6EB" p-id="21940"></path><path d="M380.879659 384.429184m-131.128344 0a131.128344 131.128344 0 1 0 262.256688 0 131.128344 131.128344 0 1 0-262.256688 0Z" fill="#E02B7E" p-id="21941"></path><path d="M380.871656 253.316847c-64.571746 0-118.130759 46.73208-128.991426 108.198492 10.860667 61.482418 64.41968 108.214498 128.991426 108.214498 64.587753 0 118.146766-46.73208 128.991426-108.214498-10.84466-61.466411-64.403673-108.198492-128.991426-108.198492z" fill="#F93585" p-id="21942"></path><path d="M380.871656 253.316847c72.423119 0 131.136348 58.705225 131.136347 131.120341 0 72.423119-58.713228 131.136348-131.136347 131.136348" fill="#E02B7E" p-id="21943"></path><path d="M511.415749 372.656126a146.799078 146.799078 0 0 0-1.544664-11.140787c-10.84466 61.482418-64.403673 108.214498-128.991426 108.214498v45.843699c72.423119 0 131.136348-58.713228 131.136348-131.136348a136.250545 136.250545 0 0 0-0.600258-11.781062z" fill="#C90D6B" p-id="21944"></path><path d="M380.871656 527.570691c-78.921912 0-143.125499-64.211591-143.125499-143.141507 0-78.921912 64.203587-143.125499 143.125499-143.125499 78.929915 0 143.141506 64.203587 143.141506 143.125499 0 78.929915-64.211591 143.141506-143.141506 143.141507z m0-262.248685c-65.684224 0-119.115182 53.430959-119.115183 119.115182 0 65.692227 53.430959 119.131189 119.115183 119.131189 65.692227 0 119.131189-53.438962 119.131189-119.131189 0-65.684224-53.438962-119.115182-119.131189-119.115182z" fill="#33363A" p-id="21945"></path><path d="M249.751315 396.434343a12.005158 12.005158 0 0 1-12.005158-12.005159c0-78.921912 64.203587-143.125499 143.125499-143.125499a12.005158 12.005158 0 1 1 0 24.010317c-65.684224 0-119.115182 53.430959-119.115183 119.115182a12.005158 12.005158 0 0 1-12.005158 12.005159z" fill="#33363A" p-id="21946"></path><path d="M287.519544 397.298714a12.005158 12.005158 0 0 1-12.005159-12.005158c0-58.096964 47.260307-105.357271 105.357271-105.357271a12.005158 12.005158 0 1 1 0 24.010317c-44.851272 0-81.346954 36.495682-81.346954 81.346954a12.005158 12.005158 0 0 1-12.005158 12.005158z" fill="#FFE6EB" p-id="21947"></path><path d="M299.188558 429.52056c-3.201376 0-6.322717-1.28055-8.56368-3.521514a12.40533 12.40533 0 0 1-3.441479-8.483645c0-3.201376 1.200516-6.242682 3.441479-8.483645 4.56196-4.481926 12.565399-4.481926 17.047325 0a11.877103 11.877103 0 0 1-0.080034 16.96729c-2.160929 2.240963-5.28227 3.521513-8.403611 3.521514z" fill="#FFE6EB" p-id="21948"></path><path d="M643.136348 384.429184m-131.128345 0a131.128344 131.128344 0 1 0 262.256689 0 131.128344 131.128344 0 1 0-262.256689 0Z" fill="#E02B7E" p-id="21949"></path><path d="M643.128344 253.316847c-64.587753 0-118.146766 46.73208-128.991426 108.198492 10.84466 61.482418 64.403673 108.214498 128.991426 108.214498S761.267107 422.997757 772.135777 361.515339c-10.86867-61.466411-64.41968-108.198492-129.007433-108.198492z" fill="#F93585" p-id="21950"></path><path d="M643.128344 253.316847c72.423119 0 131.136348 58.705225 131.136348 131.120341 0 72.423119-58.713228 131.136348-131.136348 131.136348" fill="#E02B7E" p-id="21951"></path><path d="M773.664434 372.656126a155.330744 155.330744 0 0 0-1.528657-11.140787c-10.860667 61.482418-64.41968 108.214498-129.007433 108.214498v45.843699c72.423119 0 131.136348-58.713228 131.136348-131.136348 0-3.977709-0.272117-7.899394-0.600258-11.781062z" fill="#C90D6B" p-id="21952"></path><path d="M643.128344 527.570691c-78.921912 0-143.125499-64.211591-143.125499-143.141507 0-78.921912 64.203587-143.125499 143.125499-143.125499 78.929915 0 143.141506 64.203587 143.141506 143.125499-0.008003 78.929915-64.211591 143.141506-143.141506 143.141507z m0-262.248685c-65.684224 0-119.115182 53.430959-119.115182 119.115182 0 65.692227 53.430959 119.131189 119.115182 119.131189 65.692227 0 119.131189-53.438962 119.131189-119.131189-0.008003-65.684224-53.446965-119.115182-119.131189-119.115182z" fill="#33363A" p-id="21953"></path><path d="M512.008003 396.434343a12.005158 12.005158 0 0 1-12.005158-12.005159c0-78.921912 64.203587-143.125499 143.125499-143.125499a12.005158 12.005158 0 1 1 0 24.010317c-65.684224 0-119.115182 53.430959-119.115182 119.115182a12.005158 12.005158 0 0 1-12.005159 12.005159z" fill="#33363A" p-id="21954"></path><path d="M549.776232 397.298714a12.005158 12.005158 0 0 1-12.005158-12.005158c0-58.096964 47.260307-105.357271 105.35727-105.357271a12.005158 12.005158 0 1 1 0 24.010317c-44.851272 0-81.346954 36.495682-81.346954 81.346954a12.005158 12.005158 0 0 1-12.005158 12.005158z" fill="#FFE6EB" p-id="21955"></path><path d="M561.381218 429.52056c-3.121341 0-6.242682-1.28055-8.483645-3.521514s-3.521513-5.362304-3.521513-8.483645c0-3.201376 1.28055-6.242682 3.521513-8.483645 4.481926-4.481926 12.565399-4.481926 16.967291 0a11.997155 11.997155 0 0 1-8.483646 20.488804z" fill="#FFE6EB" p-id="21956"></path><path d="M249.743312 500.471046m-131.128345 0a131.128344 131.128344 0 1 0 262.256689 0 131.128344 131.128344 0 1 0-262.256689 0Z" fill="#E02B7E" p-id="21957"></path><path d="M249.751315 369.358709c-64.587753 0-118.146766 46.73208-128.991426 108.214498 10.852663 61.458408 64.403673 108.206495 128.991426 108.206495s118.146766-46.748087 128.991426-108.206495C367.898081 416.090789 314.347071 369.358709 249.751315 369.358709z" fill="#F93585" p-id="21958"></path><path d="M249.751315 369.358709c72.423119 0 131.120341 58.689218 131.120341 131.112337 0 72.423119-58.697221 131.136348-131.120341 131.136348" fill="#E02B7E" p-id="21959"></path><path d="M380.279401 488.697987c-0.376162-3.761616-0.888382-7.475212-1.528657-11.132783-10.852663 61.458408-64.403673 108.206495-128.991426 108.206495v45.835695c72.423119 0 131.120341-58.713228 131.120341-131.136348a136.058463 136.058463 0 0 0-0.600258-11.773059z" fill="#C90D6B" p-id="21960"></path><path d="M249.751315 643.604549c-78.929915 0-143.141506-64.211591-143.141506-143.141506 0-78.913908 64.211591-143.117496 143.141506-143.117496 78.921912 0 143.125499 64.203587 143.125499 143.117496 0 78.929915-64.203587 143.141506-143.125499 143.141506z m0-262.240682c-65.692227 0-119.131189 53.430959-119.131189 119.107179 0 65.684224 53.438962 119.131189 119.131189 119.131189 65.684224 0 119.115182-53.446965 119.115182-119.131189S315.435539 381.363867 249.751315 381.363867z" fill="#33363A" p-id="21961"></path><path d="M118.622971 512.468201a12.005158 12.005158 0 0 1-12.005159-12.005158c0-78.913908 64.211591-143.117496 143.141506-143.117496a12.005158 12.005158 0 1 1 0 24.010317c-65.692227 0-119.131189 53.430959-119.131189 119.107179a12.005158 12.005158 0 0 1-12.005158 12.005158z" fill="#33363A" p-id="21962"></path><path d="M156.383196 513.332573a12.005158 12.005158 0 0 1-12.005159-12.005159c0-58.104967 47.268311-105.373278 105.373278-105.373277a12.005158 12.005158 0 1 1 0 24.010316c-44.859275 0-81.362961 36.503685-81.362961 81.362961a12.005158 12.005158 0 0 1-12.005158 12.005159z" fill="#FFE6EB" p-id="21963"></path><path d="M168.012193 545.570425c-3.121341 0-6.242682-1.28055-8.483646-3.521513-2.240963-2.320997-3.521513-5.362304-3.521513-8.483646 0-3.201376 1.28055-6.322717 3.521513-8.563679 4.481926-4.401891 12.485365-4.489929 16.967291 0 2.240963 2.240963 3.521513 5.362304 3.521513 8.563679 0 3.121341-1.28055 6.162648-3.521513 8.483646-2.240963 2.240963-5.28227 3.521513-8.483645 3.521513z" fill="#FFE6EB" p-id="21964"></path><path d="M512 500.471046m-131.128344 0a131.128344 131.128344 0 1 0 262.256688 0 131.128344 131.128344 0 1 0-262.256688 0Z" fill="#E02B7E" p-id="21965"></path><path d="M512.008003 369.358709c-64.587753 0-118.146766 46.73208-128.991426 108.214498 10.84466 61.458408 64.403673 108.206495 128.991426 108.206495s118.146766-46.748087 128.991426-108.206495C630.15477 416.090789 576.595756 369.358709 512.008003 369.358709z" fill="#F93585" p-id="21966"></path><path d="M512.008003 369.358709c72.423119 0 131.120341 58.689218 131.120341 131.112337 0 72.423119-58.697221 131.136348-131.120341 131.136348" fill="#E02B7E" p-id="21967"></path><path d="M642.53609 488.697987c-0.376162-3.761616-0.888382-7.475212-1.528657-11.132783-10.84466 61.458408-64.403673 108.206495-128.991426 108.206495v45.835695c72.423119 0 131.120341-58.713228 131.120341-131.136348a139.331869 139.331869 0 0 0-0.600258-11.773059z" fill="#C90D6B" p-id="21968"></path><path d="M512.008003 643.604549c-78.929915 0-143.141506-64.211591-143.141506-143.141506 0-78.913908 64.211591-143.117496 143.141506-143.117496 78.921912 0 143.125499 64.203587 143.1255 143.117496 0 78.929915-64.203587 143.141506-143.1255 143.141506z m0-262.240682c-65.692227 0-119.131189 53.430959-119.131189 119.107179 0 65.684224 53.438962 119.131189 119.131189 119.131189 65.684224 0 119.115182-53.446965 119.115183-119.131189S577.684224 381.363867 512.008003 381.363867z" fill="#33363A" p-id="21969"></path><path d="M380.871656 512.468201a12.005158 12.005158 0 0 1-12.005159-12.005158c0-78.913908 64.211591-143.117496 143.141506-143.117496a12.005158 12.005158 0 1 1 0 24.010317c-65.692227 0-119.131189 53.430959-119.131189 119.107179a12.005158 12.005158 0 0 1-12.005158 12.005158z" fill="#33363A" p-id="21970"></path><path d="M418.655891 513.332573a12.005158 12.005158 0 0 1-12.005158-12.005159c0-58.104967 47.260307-105.373278 105.35727-105.373277a12.005158 12.005158 0 1 1 0 24.010316c-44.851272 0-81.346954 36.503685-81.346953 81.362961a12.005158 12.005158 0 0 1-12.005159 12.005159z" fill="#FFE6EB" p-id="21971"></path><path d="M430.284888 545.570425c-3.121341 0-6.242682-1.28055-8.483645-3.521513s-3.521513-5.362304-3.521513-8.483646c0-3.201376 1.28055-6.322717 3.521513-8.563679 4.481926-4.401891 12.485365-4.401891 16.96729 0 2.240963 2.240963 3.521513 5.362304 3.521514 8.563679 0 3.121341-1.28055 6.162648-3.521514 8.483646-2.240963 2.240963-5.362304 3.521513-8.483645 3.521513z" fill="#FFE6EB" p-id="21972"></path><path d="M774.256688 500.471046m-131.128344 0a131.128344 131.128344 0 1 0 262.256689 0 131.128344 131.128344 0 1 0-262.256689 0Z" fill="#E02B7E" p-id="21973"></path><path d="M774.264692 369.358709c-64.587753 0-118.146766 46.73208-129.007433 108.214498 10.860667 61.458408 64.41968 108.206495 129.007433 108.206495s118.130759-46.748087 128.991426-108.206495c-10.86867-61.482418-64.403673-108.214498-128.991426-108.214498z" fill="#F93585" p-id="21974"></path><path d="M774.264692 369.358709c72.423119 0 131.120341 58.689218 131.120341 131.112337 0 72.423119-58.697221 131.136348-131.120341 131.136348" fill="#E02B7E" p-id="21975"></path><path d="M904.784775 488.697987c-0.376162-3.761616-0.888382-7.475212-1.528657-11.132783-10.860667 61.458408-64.403673 108.206495-128.991426 108.206495v45.835695c72.423119 0 131.120341-58.713228 131.120341-131.136348a136.058463 136.058463 0 0 0-0.600258-11.773059z" fill="#C90D6B" p-id="21976"></path><path d="M774.256688 643.604549c-78.929915 0-143.141506-64.211591-143.141506-143.141506 0-78.913908 64.211591-143.117496 143.141506-143.117496 78.921912 0 143.125499 64.203587 143.1255 143.117496 0 78.929915-64.203587 143.141506-143.1255 143.141506z m0-262.240682c-65.692227 0-119.131189 53.430959-119.131189 119.107179 0 65.684224 53.438962 119.131189 119.131189 119.131189 65.684224 0 119.115182-53.446965 119.115183-119.131189S839.940912 381.363867 774.256688 381.363867z" fill="#33363A" p-id="21977"></path><path d="M643.128344 512.468201a12.005158 12.005158 0 0 1-12.005158-12.005158c0-78.913908 64.211591-143.117496 143.141506-143.117496a12.005158 12.005158 0 1 1 0 24.010317c-65.692227 0-119.131189 53.430959-119.131189 119.107179a12.005158 12.005158 0 0 1-12.005159 12.005158z" fill="#33363A" p-id="21978"></path><path d="M680.888569 513.332573a12.005158 12.005158 0 0 1-12.005158-12.005159c0-58.104967 47.268311-105.373278 105.373277-105.373277a12.005158 12.005158 0 1 1 0 24.010316c-44.859275 0-81.362961 36.503685-81.36296 81.362961a12.005158 12.005158 0 0 1-12.005159 12.005159z" fill="#FFE6EB" p-id="21979"></path><path d="M692.557583 545.570425c-3.201376 0-6.322717-1.28055-8.483645-3.521513-2.240963-2.320997-3.521513-5.362304-3.521513-8.483646 0-3.201376 1.28055-6.322717 3.521513-8.563679 4.401891-4.401891 12.40533-4.489929 16.967291 0 2.240963 2.240963 3.521513 5.362304 3.521513 8.563679 0 3.121341-1.28055 6.162648-3.521513 8.483646-2.240963 2.240963-5.362304 3.521513-8.483646 3.521513z" fill="#FFE6EB" p-id="21980"></path><path d="M606.7207 210.994662c0 80.322514-36.935871 103.348408-94.680683 150.384618-57.80884-47.036211-94.760717-70.078112-94.760717-150.376615 0-80.31451 36.935871-151.969299 94.728703-198.989503 57.744812 47.020204 94.712697 118.650983 94.712697 198.9815z" fill="#18AA67" p-id="21981"></path><path d="M512.008003 12.005158l0.032014 349.366119c-57.80884-47.036211-94.760717-70.078112-94.760717-150.376615 0-80.31451 36.935871-151.969299 94.728703-198.989504z" fill="#65E529" p-id="21982"></path><path d="M512.040017 373.384439c-2.681152 0-5.370308-0.896385-7.579257-2.689156-4.417898-3.593544-8.707742-7.043026-12.877533-10.396467-50.109531-40.289312-86.309086-69.405823-86.309086-149.296151 0-81.106851 36.14353-157.035476 99.154606-208.305506a12.005158 12.005158 0 0 1 15.158513 0c63.003072 51.310047 99.138599 127.230669 99.138599 208.289499 0 79.882324-36.151534 108.982829-86.189035 149.256134-4.177795 3.361444-8.483645 6.826933-12.91755 10.436484a11.965141 11.965141 0 0 1-7.579257 2.705163z m-0.040017-345.64452a243.528641 243.528641 0 0 0-82.715542 183.254743c0 68.389386 27.475806 90.478878 77.353238 130.58411l5.402321 4.345867 5.442339-4.385884c49.805401-40.081222 77.233186-62.162711 77.233186-130.552097 0-70.494291-30.0209-136.722748-82.715542-183.246739z" fill="#33363A" p-id="21983"></path><path d="M649.819219 334.911907c-43.70678 43.68277-76.296784 36.111517-133.289273 30.293017-5.858517-57.024503-13.429771-89.64652 30.261003-133.337293 43.65876-43.674767 102.732143-62.546876 159.740639-56.696362 5.826504 56.992489-13.037602 116.049865-56.712369 159.740638z" fill="#18AA67" p-id="21984"></path><path d="M706.531588 175.171269l-190.001642 190.033655c-5.858517-57.024503-13.429771-89.64652 30.261003-133.337293 43.65876-43.674767 102.732143-62.546876 159.740639-56.696362z" fill="#65E529" p-id="21985"></path><path d="M570.921318 381.684005c-13.413764 0-27.491813-1.520653-42.89043-3.185369l-12.725468-1.344578a12.005158 12.005158 0 0 1-10.724608-10.716604l-1.344578-12.629427c-5.426332-49.933456-9.340013-86.012959 35.063066-130.424042 44.6832-44.699207 106.429732-66.636633 169.456814-60.153847a12.005158 12.005158 0 0 1 10.716605 10.716605c6.442768 62.995068-15.486654 124.757607-60.161851 169.44881-30.685185 30.669178-57.376654 38.288452-87.38955 38.288452z m-43.482684-27.395772l3.169362 0.336145c48.004627 5.178225 74.455993 8.043456 110.719574-28.204119a184.639337 184.639337 0 0 0 54.01521-140.060182 184.703365 184.703365 0 0 0-140.060182 53.999202c-36.279589 36.271585-33.398351 62.762968-28.180109 110.855634l0.336145 3.07332z" fill="#33363A" p-id="21986"></path><path d="M374.196788 334.911907c43.674767 43.68277 76.280777 36.111517 133.273266 30.293017 5.858517-57.024503 13.429771-89.64652-30.244996-133.337293-43.674767-43.674767-102.74815-62.546876-159.756646-56.696362-5.826504 56.992489 13.021595 116.049865 56.728376 159.740638z" fill="#18AA67" p-id="21987"></path><path d="M317.468412 175.171269l190.001642 190.033655c5.858517-57.024503 13.429771-89.64652-30.244996-133.337293-43.674767-43.674767-102.74815-62.546876-159.756646-56.696362z" fill="#65E529" p-id="21988"></path><path d="M453.070679 381.684005c-30.0209 0-56.696362-7.61127-87.36554-38.280449-44.691203-44.675196-66.628629-106.437735-60.185861-169.44881a11.989152 11.989152 0 0 1 10.716605-10.716605c63.011075-6.458775 124.773614 15.454641 169.47282 60.153848 44.395076 44.411083 40.473391 80.490586 35.047059 130.416038l-1.344578 12.63743a12.005158 12.005158 0 0 1-10.724608 10.716605l-12.717464 1.344578c-15.398617 1.656712-29.484669 3.177365-42.898433 3.177365zM328.65722 186.352073a184.551299 184.551299 0 0 0 54.023213 140.060182c36.239572 36.247575 62.698941 33.398351 110.711571 28.196116l3.169362-0.336145 0.336145-3.081324c5.226246-48.092665 8.09948-74.576044-28.164102-110.855633-37.199984-37.183977-87.733698-56.520286-140.076189-53.983196z" fill="#33363A" p-id="21989"></path></svg>