<?xml version="1.0" standalone="no"?><!DOCTYPE svg PUBLIC "-//W3C//DTD SVG 1.1//EN" "http://www.w3.org/Graphics/SVG/1.1/DTD/svg11.dtd"><svg t="1753153111773" class="icon" viewBox="0 0 1024 1024" version="1.1" xmlns="http://www.w3.org/2000/svg" p-id="22168" xmlns:xlink="http://www.w3.org/1999/xlink" width="256" height="256"><path d="M811.772643 155.953678m-55.416923 0a55.416923 55.416923 0 1 0 110.833846 0 55.416923 55.416923 0 1 0-110.833846 0Z" fill="#FFBF31" p-id="22169"></path><path d="M749.91003 460.046134H610.090596a12.010603 12.010603 0 1 1 0-24.021206h139.819434a12.010603 12.010603 0 1 1 0 24.021206z" fill="#33363A" p-id="22170"></path><path d="M679.73608 534.832157a12.010603 12.010603 0 0 1-8.4955-20.498096l127.872887-127.880895a12.010603 12.010603 0 0 1 16.982993 0l104.900608 104.8926a12.010603 12.010603 0 1 1-16.982993 16.982993l-96.413115-96.397101-119.377388 119.385395a11.938539 11.938539 0 0 1-8.487492 3.515104z" fill="#33363A" p-id="22171"></path><path d="M836.01004 424.222509a12.010603 12.010603 0 0 1-8.4955-20.498096l146.153026-146.161033a12.01861 12.01861 0 0 1 16.982993-0.008007l15.878017 15.862003a12.01861 12.01861 0 0 1-16.974986 16.999007l-7.390524-7.382517-137.665533 137.665533c-2.346071 2.346071-5.420786 3.52311-8.487493 3.52311z" fill="#33363A" p-id="22172"></path><path d="M891.867352 455.858438m-71.991555 0a71.991555 71.991555 0 1 0 143.98311 0 71.991555 71.991555 0 1 0-143.98311 0Z" fill="#24D1AF" p-id="22173"></path><path d="M891.867352 383.842861c-26.647525 0-49.844003 14.524823-62.294995 36.015795 12.458999 21.506987 35.64747 35.999781 62.294995 35.999782 26.623504 0 49.819982-14.500801 62.286987-35.999782-12.467006-21.49898-35.663484-36.015795-62.286987-36.015795z" fill="#58ED9B" p-id="22174"></path><path d="M891.867352 603.484764a12.010603 12.010603 0 0 1-12.010603-12.010603V483.642966a12.010603 12.010603 0 1 1 24.021206 0v107.831195a12.010603 12.010603 0 0 1-12.010603 12.010603z" fill="#33363A" p-id="22175"></path><path d="M891.875359 495.653569a12.010603 12.010603 0 0 1-8.4955-3.515103l-27.800543-27.792536a12.010603 12.010603 0 1 1 16.991-16.982992l19.305043 19.297035 19.281021-19.297035a12.010603 12.010603 0 0 1 16.991 16.982992l-27.776521 27.792536a12.042631 12.042631 0 0 1-8.4955 3.515103z" fill="#33363A" p-id="22176"></path><path d="M891.867352 539.868603c-46.320893 0-84.010165-37.689273-84.010166-84.010165 0-46.3289 37.689273-84.026179 84.010166-84.02618 46.320893 0 84.002158 37.69728 84.002158 84.02618 0 46.320893-37.681265 84.010165-84.002158 84.010165z m0-144.015139c-33.077201 0-59.988959 26.919765-59.988959 60.004974 0 33.077201 26.911758 59.988959 59.988959 59.988959 33.069194 0 59.980952-26.911758 59.980952-59.988959 0-33.085208-26.903751-60.004973-59.980952-60.004974z" fill="#33363A" p-id="22177"></path><path d="M735.457271 389.487845m-82.656971 0a82.656971 82.656971 0 1 0 165.313941 0 82.656971 82.656971 0 1 0-165.313941 0Z" fill="#24D1AF" p-id="22178"></path><path d="M735.449264 306.822867c-30.578996 0-57.218513 16.646696-71.519138 41.324482 14.308632 24.6938 40.940142 41.332489 71.519138 41.332489 30.562981 0 57.210506-16.638689 71.503124-41.332489-14.292618-24.669779-40.940142-41.324482-71.503124-41.324482z" fill="#58ED9B" p-id="22179"></path><path d="M735.449264 566.732318a12.010603 12.010603 0 0 1-12.010603-12.010603V421.388007a12.010603 12.010603 0 1 1 24.021206 0v133.333708a12.010603 12.010603 0 0 1-12.010603 12.010603z" fill="#33363A" p-id="22180"></path><path d="M735.449264 433.39861c-3.178806 0-6.237507-1.265117-8.4955-3.515103l-31.908169-31.900162a12.010603 12.010603 0 1 1 16.991-16.982993l23.412669 23.412669 23.396655-23.412669a12.010603 12.010603 0 0 1 16.991 16.982993l-31.892155 31.900162a12.010603 12.010603 0 0 1-8.4955 3.515103z" fill="#33363A" p-id="22181"></path><path d="M735.449264 484.131397c-52.198081 0-94.659567-42.461486-94.659567-94.643552 0-52.206088 42.461486-94.667574 94.659567-94.667574 52.206088 0 94.675581 42.469493 94.675581 94.667574 0 52.182067-42.469493 94.643553-94.675581 94.643552z m0-165.297927c-38.954389 0-70.63836 31.691978-70.638361 70.646368 0 38.938375 31.691978 70.622346 70.638361 70.622346 38.954389 0 70.654375-31.683971 70.654374-70.622346 0-38.954389-31.699985-70.646367-70.654374-70.646368z" fill="#33363A" p-id="22182"></path><path d="M104.996692 375.875828c3.122757 0 6.245514-1.281131 8.487493-3.603181 2.241979-2.241979 3.52311-5.284665 3.523111-8.407422 0-3.202827-1.281131-6.245514-3.523111-8.567564-4.483958-4.403888-12.571098-4.403888-16.974985 0.080071a12.010603 12.010603 0 0 0-3.523111 8.4955c0 3.122757 1.281131 6.165443 3.523111 8.487493 2.241979 2.233972 5.284665 3.515103 8.487492 3.515103zM50.788837 375.875828c3.202827 0 6.245514-1.361202 8.487493-3.52311 2.241979-2.32205 3.52311-5.364736 3.52311-8.487493 0-3.202827-1.281131-6.325584-3.52311-8.4955-4.403888-4.483958-12.491027-4.483958-16.974986-0.080071-2.241979 2.241979-3.52311 5.364736-3.52311 8.567564 0 3.122757 1.281131 6.245514 3.52311 8.487493 2.241979 2.249986 5.364736 3.531117 8.487493 3.531117zM96.5092 424.398664a12.002596 12.002596 0 1 0 16.974985-16.982992c-4.483958-4.483958-12.491027-4.483958-17.055056 0-2.161909 2.241979-3.44304 5.364736-3.44304 8.4955 0 3.202827 1.281131 6.253521 3.523111 8.487492zM42.301344 424.398664c2.241979 2.241979 5.364736 3.52311 8.487493 3.523111s6.245514-1.281131 8.487493-3.523111c2.241979-2.161909 3.52311-5.284665 3.52311-8.487492 0-3.130764-1.281131-6.245514-3.52311-8.4955-4.483958-4.483958-12.491027-4.483958-16.974986 0a11.986582 11.986582 0 0 0 0 16.982992zM96.5092 476.61276a12.026617 12.026617 0 0 0 16.974985 0c2.241979-2.241979 3.52311-5.364736 3.523111-8.4955 0-3.19482-1.281131-6.325584-3.523111-8.559557-4.483958-4.411895-12.491027-4.491966-16.974985 0-2.241979 2.233972-3.52311 5.364736-3.523111 8.559557 0 3.130764 1.281131 6.245514 3.523111 8.4955zM42.301344 476.61276c2.241979 2.233972 5.364736 3.515103 8.487493 3.515103s6.245514-1.281131 8.487493-3.515103c2.241979-2.241979 3.52311-5.364736 3.52311-8.4955 0-3.19482-1.281131-6.325584-3.52311-8.559557-4.483958-4.411895-12.491027-4.411895-16.974986 0-2.241979 2.32205-3.52311 5.364736-3.52311 8.559557 0 3.130764 1.281131 6.17345 3.52311 8.4955zM96.5092 528.73077c2.161909 2.161909 5.284665 3.44304 8.487492 3.44304 3.122757 0 6.245514-1.281131 8.487493-3.44304 2.241979-2.241979 3.52311-5.364736 3.523111-8.567563 0-3.122757-1.281131-6.237507-3.523111-8.487493-4.483958-4.491966-12.571098-4.403888-16.974985 0-2.241979 2.241979-3.52311 5.364736-3.523111 8.487493 0 3.202827 1.281131 6.245514 3.523111 8.567563zM42.301344 528.73077c2.241979 2.161909 5.364736 3.44304 8.487493 3.44304a12.026617 12.026617 0 0 0 12.010603-12.010603c0-3.122757-1.281131-6.237507-3.52311-8.487493-4.483958-4.403888-12.491027-4.491966-16.974986 0-2.241979 2.241979-3.52311 5.364736-3.52311 8.487493 0 3.202827 1.281131 6.245514 3.52311 8.567563z" fill="#33363A" p-id="22183"></path><path d="M1023.047159 611.139522c-3.531117-8.35938-10.112928-23.909107-162.36734-36.520241-94.083058-7.790878-217.912376-12.07466-348.683823-12.07466-80.44702 0-158.235692 1.625435-228.121388 4.692143V460.046134h326.223995a12.010603 12.010603 0 1 0 0-24.021206H283.874608v-56.193608a12.010603 12.010603 0 0 0-12.010603-12.010603H168.901108V280.687795a12.010603 12.010603 0 0 0-12.010603-12.010603h-66.995144V185.755988a12.010603 12.010603 0 1 0-24.021206 0v82.913197H25.958917a12.010603 12.010603 0 1 0 0 24.021206h118.920985v85.507487c-0.072064 0.536474-0.168148 1.072947-0.168149 1.625435s0.088078 1.088961 0.168149 1.625435v194.779954C10.601359 588.519552 4.339831 603.124446 0.952841 611.131515a12.01861 12.01861 0 0 0 21.434923 10.737479c18.800597-14.909162 197.766591-35.303166 489.608232-35.303166 291.849649 0 470.823649 20.394004 489.624247 35.303166a11.994589 11.994589 0 0 0 21.426916-10.729472zM202.282578 571.720722c-11.490144 0.776686-22.603955 1.601414-33.38147 2.466177V391.84993h33.38147v179.870792z m57.570824-123.685191v120.322222c-11.458115 0.568502-22.603955 1.193053-33.549618 1.841626V391.84993h33.549618v56.185601z" fill="#33363A" p-id="22184"></path><path d="M811.764636 223.373197c-37.17682 0-67.419519-30.242699-67.419519-67.419519s30.242699-67.411512 67.419519-67.411512c37.184827 0 67.427526 30.234692 67.427526 67.411512s-30.242699 67.419519-67.427526 67.419519z m0-110.809825c-23.933128 0-43.398313 19.465184-43.398313 43.390306s19.465184 43.398313 43.398313 43.398312 43.40632-19.473191 43.40632-43.398312-19.465184-43.390306-43.40632-43.390306zM811.764636 74.457732a12.010603 12.010603 0 0 1-12.010603-12.010603V33.669724a12.010603 12.010603 0 1 1 24.021206 0v28.777405a12.010603 12.010603 0 0 1-12.010603 12.010603zM811.764636 290.248235a12.010603 12.010603 0 0 1-12.010603-12.010603v-28.753384a12.010603 12.010603 0 1 1 24.021206 0v28.753384a12.010603 12.010603 0 0 1-12.010603 12.010603z" fill="#33363A" p-id="22185"></path><path d="M877.895017 101.8339a12.010603 12.010603 0 0 1-8.4955-20.498096l20.345961-20.337954a12.010603 12.010603 0 1 1 16.982993 16.982992l-20.345961 20.337955a11.970568 11.970568 0 0 1-8.487493 3.515103zM725.296301 254.432616a12.010603 12.010603 0 0 1-8.4955-20.498096l20.345961-20.337954a12.010603 12.010603 0 1 1 16.982993 16.982993l-20.345961 20.337954a11.938539 11.938539 0 0 1-8.487493 3.515103z" fill="#33363A" p-id="22186"></path><path d="M934.040583 167.964281h-28.753384a12.010603 12.010603 0 1 1 0-24.021206h28.753384a12.010603 12.010603 0 1 1 0 24.021206zM718.25008 167.964281h-28.769398a12.010603 12.010603 0 1 1 0-24.021206h28.769398a12.010603 12.010603 0 1 1 0 24.021206z" fill="#33363A" p-id="22187"></path><path d="M898.240978 254.432616c-3.074714 0-6.149429-1.169032-8.4955-3.515103l-20.337954-20.337954a12.010603 12.010603 0 1 1 16.982993-16.982993l20.337954 20.337954a12.010603 12.010603 0 0 1-8.487493 20.498096zM745.642262 101.8339c-3.074714 0-6.149429-1.169032-8.4955-3.515103l-20.345961-20.353969a12.01861 12.01861 0 0 1 16.991-16.982992l20.345961 20.353968a12.01861 12.01861 0 0 1-8.4955 20.498096z" fill="#33363A" p-id="22188"></path><path d="M347.082409 513.044922h-18.680492a12.010603 12.010603 0 1 1 0-24.021206h18.680492a12.010603 12.010603 0 1 1 0 24.021206z" fill="#33363A" p-id="22189"></path><path d="M413.805313 513.044922h-18.680492a12.010603 12.010603 0 1 1 0-24.021206h18.680492a12.010603 12.010603 0 1 1 0 24.021206z" fill="#33363A" p-id="22190"></path><path d="M480.536223 513.044922h-18.680491a12.010603 12.010603 0 1 1 0-24.021206h18.680491a12.010603 12.010603 0 1 1 0 24.021206z" fill="#33363A" p-id="22191"></path><path d="M388.839272 184.322722c-7.534652-38.329838-41.636757-67.131264-81.519967-67.131264-43.013973 0-78.709486 33.13325-82.729034 75.226411a65.201561 65.201561 0 0 0-9.50439 7.318461 12.07466 12.07466 0 0 0-2.866531-0.38434c-23.933128 0-43.40632-19.473191-43.40632-43.398312s19.473191-43.390306 43.40632-43.390306a12.010603 12.010603 0 1 0 0-24.021206c-37.17682 0-67.427526 30.234692-67.427526 67.411512 0 32.644819 23.332598 59.924902 54.183834 66.098352a65.041419 65.041419 0 0 0-5.612955 26.183115v4.259761c0 36.175937 29.433985 65.601914 65.609921 65.601914h115.237734c36.183944 0 65.617928-29.433985 65.617928-65.601914v-4.259761c0.008007-30.843229-21.71517-57.218513-50.989014-63.912423z m26.975815 68.164177a41.636757 41.636757 0 0 1-41.596722 41.580708H258.980631a41.636757 41.636757 0 0 1-41.588715-41.580708v-4.259761a41.764871 41.764871 0 0 1 23.949143-37.609202c4.17969-1.969739 6.854051-6.157436 6.894086-10.769507 0.264233-32.332544 26.767631-58.635764 59.08416-58.635765 30.667073 0 56.529905 23.95715 58.875977 54.536145a12.010603 12.010603 0 0 0 11.105804 11.065769 41.6848 41.6848 0 0 1 38.522008 41.420567v4.251754z" fill="#33363A" p-id="22192"></path><path d="M675.17205 291.641465a191.368943 191.368943 0 0 1-83.321557 102.778734 191.441007 191.441007 0 0 1-2.938594-132.284783 191.408978 191.408978 0 0 1 83.321557-102.76272 191.344922 191.344922 0 0 1 2.938594 132.268769z" fill="#FFBF31" p-id="22193"></path><path d="M588.903892 312.563935a192.145629 192.145629 0 0 0-8.655642 36.90458 192.433883 192.433883 0 0 0 11.594236 44.943677 191.312893 191.312893 0 0 0 83.321557-102.778734c4.17969-12.226794 7.014192-24.581701 8.655642-36.920594a192.505947 192.505947 0 0 0-11.594236-44.927663 191.384957 191.384957 0 0 0-83.321557 102.778734z" fill="#FF8B00" p-id="22194"></path><path d="M697.039355 243.054572c0.024021-0.312276 0.024021-0.624551 0.040035-0.936827 0.320283-5.10851 0.400353-10.241041 0.32829-15.365565-0.016014-0.984869-0.008007-1.961732-0.040035-2.946602a207.327031 207.327031 0 0 0-1.016898-15.429621c-0.128113-1.209067-0.304269-2.410128-0.448396-3.619195a204.65267 204.65267 0 0 0-1.985753-12.843338c-0.216191-1.137004-0.384339-2.282015-0.616544-3.419019a204.316373 204.316373 0 0 0-3.611188-14.676957c-0.360318-1.281131-0.752664-2.554255-1.145011-3.835386a200.497001 200.497001 0 0 0-5.132531-14.997239 11.994589 11.994589 0 0 0-17.335304-5.925231c-0.152134 0.088078-0.288254 0.200177-0.440389 0.288254-5.268651 3.154785-10.361147 6.549782-15.285494 10.144956-1.06494 0.776686-2.04981 1.657463-3.098735 2.45817-4.04357 3.074714-8.007069 6.229499-11.794413 9.584462-0.816721 0.728643-1.577393 1.513336-2.386106 2.257993-3.995527 3.651223-7.862942 7.43056-11.546193 11.378045-0.488431 0.520459-0.944834 1.080954-1.425258 1.609421a205.589497 205.589497 0 0 0-11.161854 13.299741c-0.144127 0.19217-0.312276 0.360318-0.46441 0.552487-0.096085 0.120106-0.152134 0.264233-0.240212 0.392347a203.924027 203.924027 0 0 0-30.699102 57.218513 204.388437 204.388437 0 0 0 3.122757 140.564092 11.994589 11.994589 0 0 0 17.327297 5.925231A204.228295 204.228295 0 0 0 686.526074 295.524893a204.012104 204.012104 0 0 0 10.321111-50.764816c0.032028-0.248219 0.128113-0.472417 0.144128-0.720636 0.032028-0.32829 0.024021-0.65658 0.048042-0.984869zM598.16807 375.947891a180.375238 180.375238 0 0 1 2.105859-109.929046c5.204595-15.213431 12.499034-29.482027 21.402895-42.61362l50.540618 26.607489a179.710651 179.710651 0 0 1-8.407422 37.745322 180.28716 180.28716 0 0 1-65.64195 88.189855z" fill="#33363A" p-id="22195"></path><path d="M644.897323 930.205197c0 7.51063-6.077365 13.579989-13.571981 13.579988h-22.059474a13.579989 13.579989 0 0 1-13.587996-13.579988v-27.143963c0-7.502623 6.085372-13.571982 13.587996-13.571982h22.059474c7.502623 0 13.571982 6.077365 13.571981 13.571982v27.143963z" fill="#FF8B00" p-id="22196"></path><path d="M631.325342 955.795788h-22.059474a25.62262 25.62262 0 0 1-25.598599-25.590591v-27.143963a25.62262 25.62262 0 0 1 25.598599-25.582585h22.059474a25.614613 25.614613 0 0 1 25.582585 25.582585v27.143963a25.606606 25.606606 0 0 1-25.582585 25.590591z m-22.059474-54.295933a1.577393 1.577393 0 0 0-1.577393 1.561379v27.143963c0 0.864763 0.704622 1.569385 1.577393 1.569385h22.059474a1.561378 1.561378 0 0 0 1.561378-1.569385v-27.143963a1.561378 1.561378 0 0 0-1.561378-1.561379h-22.059474z" fill="#33363A" p-id="22197"></path><path d="M628.803115 904.838803a65.193554 65.193554 0 0 0 65.185547-65.201561v-54.055721a64.857257 64.857257 0 0 0-17.327297-44.14297V502.763846c0-84.10625-68.420402-152.518645-152.510638-152.518645h-23.460712" fill="#FFBF31" p-id="22198"></path><path d="M676.653358 781.682079V542.999367c0-84.098243-68.420402-152.518645-152.510638-152.518646h-23.460712l4.860291 514.358082c35.999781 0 188.446363 22.571927 188.446363-65.201561v-13.812193a64.865264 64.865264 0 0 0-17.335304-44.14297z" fill="#FF8B00" p-id="22199"></path><path d="M628.803115 916.849406H505.542299a12.010603 12.010603 0 1 1 0-24.021206h123.260816a53.239 53.239 0 0 0 53.174944-53.190958v-54.055721a52.870675 52.870675 0 0 0-14.140484-35.983767 12.034624 12.034624 0 0 1-3.186813-8.159203V502.763846c0-77.476397-63.031645-140.508042-140.500035-140.508042h-23.460712a12.010603 12.010603 0 1 1 0-24.021206h23.460712c90.720089 0 164.521241 73.80916 164.521241 164.529248v234.198754a76.81181 76.81181 0 0 1 17.335304 48.618921v54.055721c-0.008007 42.581592-34.638579 77.212164-77.204157 77.212164z" fill="#33363A" p-id="22200"></path><path d="M954.154339 594.853144L782.290616 521.724585l-165.442054 125.871121 76.94793 32.764925-188.254193 162.151149 366.355423-124.493905-86.188088-36.672375z" fill="#FFBF31" p-id="22201"></path><path d="M741.406523 703.220812l168.444705-86.476342-161.90293-68.900827-131.099736 99.752063 76.94793 32.764925-188.254193 162.151149 313.12443-106.397929z" fill="#FF8B00" p-id="22202"></path><path d="M505.542299 854.522383a12.010603 12.010603 0 0 1-3.859407-23.380641l336.585141-114.380977-57.258548-24.36551a12.010603 12.010603 0 0 1-0.784693-21.731184l145.648581-74.794029-141.861237-60.357285L640.565499 644.641097l57.931143 24.669779a12.010603 12.010603 0 1 1-9.408306 22.09951l-76.947931-32.764926a11.994589 11.994589 0 0 1-2.570269-20.602187l165.442054-125.871121c3.435032-2.618311 7.999062-3.202827 11.978575-1.497322l171.863724 73.128559a12.010603 12.010603 0 0 1 0.784692 21.731184l-145.64858 74.79403 62.607271 26.639517a12.010603 12.010603 0 0 1-0.840743 22.419793L509.409713 853.881818a12.090674 12.090674 0 0 1-3.867414 0.640565z" fill="#33363A" p-id="22203"></path><path d="M849.293767 829.163996a11.994589 11.994589 0 0 0-13.227677 10.649402c-4.988404 46.264843-130.987638 95.692479-312.051483 97.718267v-61.830585a12.010603 12.010603 0 1 0-24.021207 0v61.822578c-175.97135-2.145894-299.632519-49.075324-310.369998-94.203164l39.787124-39.787125 22.56392 22.571927-6.1174 6.117401a12.010603 12.010603 0 1 0 16.982992 16.982992l95.612408-95.612407 95.596394 95.612407c2.338064 2.346071 5.420786 3.515103 8.4955 3.515104s6.149429-1.169032 8.4955-3.515104a12.010603 12.010603 0 0 0 0-16.982992l-53.967643-53.967644L500.537881 694.773355a11.962561 11.962561 0 0 0 11.466123 8.623613 12.010603 12.010603 0 0 0 12.010603-12.010603v-22.932245a11.850462 11.850462 0 0 0 0-5.30068v-53.022809a12.010603 12.010603 0 1 0-24.021207 0v51.213212L400.089204 761.256046l-33.149265-33.149264a12.010603 12.010603 0 0 0-16.991 0L268.957439 809.106289l-31.051413-31.059419a12.034624 12.034624 0 0 0-16.990999 0l-52.398258 52.398257a11.874483 11.874483 0 0 0-3.394997 9.144073c-0.120106 0.912806-0.160141 1.849633-0.05605 2.810481 7.174334 66.594791 150.67702 117.119394 335.832477 119.15319a12.010603 12.010603 0 0 0 22.179581 0.008007c185.643889-1.85764 329.659027-52.4463 336.857382-119.161197a11.994589 11.994589 0 0 0-10.641395-13.235685z" fill="#33363A" p-id="22204"></path><path d="M512.004004 811.476381a12.010603 12.010603 0 0 0-12.010604 12.010604v15.445635a12.010603 12.010603 0 1 0 24.021207 0v-15.445635a12.010603 12.010603 0 0 0-12.010603-12.010604zM512.004004 983.460211a12.010603 12.010603 0 0 0-12.010604 12.010603v1.737534a12.010603 12.010603 0 1 0 24.021207 0v-1.737534a12.010603 12.010603 0 0 0-12.010603-12.010603zM524.014607 786.926709a12.010603 12.010603 0 1 0-24.021207 0v1.72152a12.010603 12.010603 0 1 0 24.021207 0v-1.72152zM512.004004 585.372774a12.010603 12.010603 0 0 0 12.010603-12.010603v-15.445635a12.010603 12.010603 0 1 0-24.021207 0v15.445635a12.010603 12.010603 0 0 0 12.010604 12.010603zM524.014607 729.916379a12.010603 12.010603 0 1 0-24.021207 0v1.729527a12.010603 12.010603 0 1 0 24.021207 0v-1.729527zM512.004004 535.09639a12.010603 12.010603 0 0 0 12.010603-12.010603v-1.72152a12.010603 12.010603 0 1 0-24.021207 0v1.72152a12.010603 12.010603 0 0 0 12.010604 12.010603zM512.004004 437.826519a12.010603 12.010603 0 0 0 12.010603-12.010603V255.785811a12.010603 12.010603 0 1 0-24.021207 0V425.815916a12.010603 12.010603 0 0 0 12.010604 12.010603zM512.004004 478.08606a12.010603 12.010603 0 0 0 12.010603-12.010603v-1.729527a12.010603 12.010603 0 1 0-24.021207 0v1.729527a12.010603 12.010603 0 0 0 12.010604 12.010603zM512.004004 172.280091a12.010603 12.010603 0 0 0 12.010603-12.010603V78.99774a12.010603 12.010603 0 1 0-24.021207 0v81.263741a12.010603 12.010603 0 0 0 12.010604 12.01861zM512.004004 54.239884a12.010603 12.010603 0 0 0 12.010603-12.010603V26.791652a12.010603 12.010603 0 1 0-24.021207 0v15.437629a12.010603 12.010603 0 0 0 12.010604 12.010603zM512.004004 212.515611a12.010603 12.010603 0 0 0 12.010603-12.010603v-1.721519a12.010603 12.010603 0 1 0-24.021207 0v1.721519a12.010603 12.010603 0 0 0 12.010604 12.010603zM571.848835 249.572326c1.897675-1.897675 3.627202-1.889668 5.524878 0 2.346071 2.354078 5.420786 3.52311 8.503507 3.52311a12.010603 12.010603 0 0 0 8.4955-20.490089 27.768514 27.768514 0 0 0-19.761446-8.199238c-7.462588 0-14.484787 2.914573-19.753439 8.199238a12.010603 12.010603 0 0 0 16.991 16.966979z" fill="#33363A" p-id="22205"></path></svg>