<?xml version="1.0" standalone="no"?><!DOCTYPE svg PUBLIC "-//W3C//DTD SVG 1.1//EN" "http://www.w3.org/Graphics/SVG/1.1/DTD/svg11.dtd"><svg t="1753152939907" class="icon" viewBox="0 0 1024 1024" version="1.1" xmlns="http://www.w3.org/2000/svg" p-id="18813" xmlns:xlink="http://www.w3.org/1999/xlink" width="256" height="256"><path d="M961.168617 770.059211H62.831383L165.470096 56.875763h693.059808z" fill="#C12727" p-id="18814"></path><path d="M165.470096 56.875763l-9.458925 65.77253h711.977658l-9.458925-65.77253zM165.470096 348.570783L79.044356 770.059211h865.903141l-86.417593-421.488428z" fill="#FF1A1A" p-id="18815"></path><path d="M961.168617 782.280045H62.831383a12.220834 12.220834 0 0 1-12.098626-13.96434L153.379618 55.132257a12.20454 12.20454 0 0 1 12.090478-10.477328h693.05166c6.077828 0 11.23502 4.464678 12.090479 10.477328l102.646861 713.183448c0.513275 3.511453-0.529569 7.063642-2.859675 9.744078a12.180098 12.180098 0 0 1-9.230804 4.220262z m-884.234392-24.441669h870.13155L847.938514 69.096597H176.061486L76.934225 757.838376z" fill="#33363A" p-id="18816"></path><path d="M1011.779166 967.124237H12.220834l114.199623-793.555801h771.159086z" fill="#F95D5D" p-id="18817"></path><path d="M126.420457 498.1375L30.258786 967.124237h963.490576L897.579543 498.1375z" fill="#FF1A1A" p-id="18818"></path><path d="M349.075911 305.154232m-45.50224 0a45.50224 45.50224 0 1 0 91.004479 0 45.50224 45.50224 0 1 0-91.004479 0Z" fill="#FFFFFF" p-id="18819"></path><path d="M674.932236 305.154232m-45.502239 0a45.50224 45.50224 0 1 0 91.004479 0 45.50224 45.50224 0 1 0-91.004479 0Z" fill="#FFFFFF" p-id="18820"></path><path d="M732.663458 305.154232c0-31.8312-25.900021-57.731221-57.731222-57.731221-31.823053 0-57.723074 25.900021-57.723074 57.731221 0 23.993571 14.713884 44.597898 35.58707 53.30728-21.598288 56.826879-76.469834 97.400049-140.792158 97.400049s-119.19387-40.57317-140.792159-97.400049c20.873185-8.709381 35.587069-29.313708 35.58707-53.30728 0-31.8312-25.900021-57.731221-57.723074-57.731221s-57.723074 25.900021-57.723074 57.731221c0 31.065361 24.677938 56.411371 55.441851 57.625308C370.69864 431.094003 435.632006 480.303229 512.004074 480.303229s141.305433-49.209226 165.209385-117.523689c30.772061-1.213936 55.449999-26.559947 55.449999-57.625308z m-416.868953 0c0-18.355693 14.925712-33.289553 33.281406-33.289552s33.281405 14.93386 33.281405 33.289552c0 12.872612-7.413973 23.936541-18.127571 29.476653a150.82139 150.82139 0 0 1-2.933-29.476653 12.220834 12.220834 0 1 0-24.441669 0c0 10.88469 1.132464 21.500521 3.047062 31.847495-13.874721-4.016581-24.107632-16.69366-24.107633-31.847495z m368.311504 31.847495a175.409708 175.409708 0 0 0 3.047062-31.847495 12.220834 12.220834 0 1 0-24.441669 0 150.886567 150.886567 0 0 1-2.933 29.476653c-10.705451-5.540112-18.127571-16.60404-18.127571-29.476653 0-18.355693 14.925712-33.289553 33.281405-33.289552s33.289553 14.93386 33.289553 33.289552c0 15.153835-10.241059 27.830913-24.11578 31.847495z" fill="#33363A" p-id="18821"></path><path d="M512.004074 747.287723m-205.187808 0a205.187808 205.187808 0 1 0 410.375615 0 205.187808 205.187808 0 1 0-410.375615 0Z" fill="#FF7676" p-id="18822"></path><path d="M717.191881 747.287723c0 86.800512-91.859938 157.184371-205.195955 157.18437-113.319723 0-205.187808-70.383858-205.187807-157.18437 0-86.784218 91.868085-157.151782 205.187807-157.151782 113.336017-0.008147 205.195955 70.359417 205.195955 157.151782z" fill="#F95D5D" p-id="18823"></path><path d="M306.808119 747.287723c0 113.32787 91.868085 205.204102 205.187807 205.204102 113.32787 0 205.195955-91.876232 205.195955-205.204102H306.808119z" fill="#FFFFFF" p-id="18824"></path><path d="M512.004074 904.472093c113.32787 0 205.195955-70.383858 205.195955-157.18437H306.808119c0 86.800512 91.868085 157.184371 205.195955 157.18437z" fill="#D8E5EA" p-id="18825"></path><path d="M559.966775 722.813465a67.833778 67.833778 0 0 1 0 95.949844 67.809336 67.809336 0 0 1-95.941697 0 67.850072 67.850072 0 0 1 95.941697-95.949844z" fill="#A7BBC1" p-id="18826"></path><path d="M511.995926 747.727673m-67.850072 0a67.850072 67.850072 0 1 0 135.700144 0 67.850072 67.850072 0 1 0-135.700144 0Z" fill="#FFFFFF" p-id="18827"></path><path d="M464.025078 795.706668a67.850072 67.850072 0 0 1 95.941697-95.949844" fill="#D8E5EA" p-id="18828"></path><path d="M1023.877792 965.380731L909.670022 171.82493a12.20454 12.20454 0 0 0-12.090479-10.477328H126.420457c-6.077828 0-11.23502 4.464678-12.090479 10.477328L0.130356 965.380731a12.220834 12.220834 0 0 0 12.098626 13.96434h999.566478a12.220834 12.220834 0 0 0 12.082332-13.96434zM590.983252 735.066888a79.410981 79.410981 0 0 0-22.372274-43.954267 79.53319 79.53319 0 0 0-56.606904-23.447707 79.516895 79.516895 0 0 0-56.615052 23.455854 79.516895 79.516895 0 0 0-22.331538 43.954268H319.460756c6.330392-100.724116 90.246788-180.754286 192.543318-180.754287S698.216999 634.334625 704.547392 735.066888H590.983252z m-91.200013 0h-41.868578a55.221877 55.221877 0 0 1 41.868578-41.567131v41.567131z m0 24.457963v42.390001a55.319643 55.319643 0 0 1-27.113957-14.84424 55.238171 55.238171 0 0 1-14.966449-27.545761h42.080406z m24.441669 0h42.121142a55.107815 55.107815 0 0 1-15.015332 27.537614 55.205582 55.205582 0 0 1-27.10581 14.852387v-42.390001z m0-24.457963V693.49161a55.18114 55.18114 0 0 1 27.10581 14.901271 55.140404 55.140404 0 0 1 14.795357 26.66586h-41.901167z m-91.297779 24.441669a79.549484 79.549484 0 0 0 22.461893 44.842315 79.842784 79.842784 0 0 0 56.615052 23.398824 79.859079 79.859079 0 0 0 56.606904-23.398824 79.419128 79.419128 0 0 0 22.50263-44.842315h113.433784C698.216999 860.24082 614.300604 940.270991 512.004074 940.270991s-186.212926-80.03017-192.543318-180.770581h113.466373z m143.708864 195.394846c88.42181-27.586497 152.776723-110.231925 152.776723-207.61568 0-119.878237-97.530405-217.416789-217.41679-217.41679S294.587284 627.401338 294.587284 747.287723c0 97.391902 64.354913 180.029184 152.776723 207.61568H26.323677l110.68817-769.114133h749.976306l110.68817 769.114133H576.635993z" fill="#33363A" p-id="18829"></path></svg>