<?xml version="1.0" standalone="no"?><!DOCTYPE svg PUBLIC "-//W3C//DTD SVG 1.1//EN" "http://www.w3.org/Graphics/SVG/1.1/DTD/svg11.dtd"><svg t="1753152943996" class="icon" viewBox="0 0 1024 1024" version="1.1" xmlns="http://www.w3.org/2000/svg" p-id="19008" xmlns:xlink="http://www.w3.org/1999/xlink" width="256" height="256"><path d="M259.285609 726.77506m-247.22095 0a247.22095 247.22095 0 1 0 494.4419 0 247.22095 247.22095 0 1 0-494.4419 0Z" fill="#FF1A1A" p-id="19009"></path><path d="M12.064659 726.77506a247.22095 189.358845 0 1 0 494.4419 0 247.22095 189.358845 0 1 0-494.4419 0Z" fill="#D60909" p-id="19010"></path><path d="M12.064659 726.77506c0 136.555854 110.681182 247.22095 247.22095 247.22095 136.531725 0 247.212907-110.673139 247.212906-247.22095H12.064659z" fill="#FFFFFF" p-id="19011"></path><path d="M259.285609 916.133905c136.531725 0 247.212907-84.782381 247.212906-189.358845H12.064659c0 104.576464 110.681182 189.358845 247.22095 189.358845z" fill="#D8E5EA" p-id="19012"></path><path d="M259.285609 467.497494C116.311356 467.497494 0 583.800807 0 726.77506c0 142.974253 116.311356 259.285609 259.285609 259.285609s259.277566-116.311356 259.277566-259.285609c0-142.974253-116.311356-259.277566-259.277566-259.277566z m0 24.129318c125.61723 0 228.544858 99.010635 234.842609 223.083589H24.434956c6.297752-124.080997 109.233423-223.083589 234.850653-223.083589z m0 470.304539c-125.61723 0-228.544858-99.010635-234.850653-223.091632h469.693262c-6.297752 124.080997-109.22538 223.091632-234.842609 223.091632z" fill="#33363A" p-id="19013"></path><path d="M259.285609 751.53174m-74.865231 0a74.865231 74.865231 0 1 0 149.730462 0 74.865231 74.865231 0 1 0-149.730462 0Z" fill="#A7BBC1" p-id="19014"></path><path d="M259.285609 726.067267m-74.865231 0a74.865231 74.865231 0 1 0 149.730462 0 74.865231 74.865231 0 1 0-149.730462 0Z" fill="#FFFFFF" p-id="19015"></path><path d="M206.345885 779.006991c-29.23669-29.228647-29.23669-76.626671 0-105.879448a74.88936 74.88936 0 0 1 105.871405 0" fill="#D8E5EA" p-id="19016"></path><path d="M259.285609 812.997157a86.326657 86.326657 0 0 1-61.465416-25.464474 86.318614 86.318614 0 0 1-25.464474-61.465416c0-23.220447 9.048494-45.049437 25.464474-61.481503 33.901692-33.877563 89.037184-33.869519 122.930832 0a86.382959 86.382959 0 0 1 25.464474 61.481503c0 23.220447-9.048494 45.049437-25.464474 61.465416a86.342743 86.342743 0 0 1-61.465416 25.464474z m0-149.690247c-16.086212 0-32.164381 6.120804-44.405989 18.354368a62.414503 62.414503 0 0 0-18.394583 44.414032c0 16.769876 6.539045 32.542407 18.394583 44.397945 11.863581 11.863581 27.636112 18.394583 44.405989 18.394584s32.542407-6.531002 44.405988-18.394584c11.863581-11.863581 18.394583-27.628069 18.394584-44.405988s-6.531002-32.55045-18.394584-44.414032a62.631667 62.631667 0 0 0-44.405988-18.346325z" fill="#33363A" p-id="19017"></path><path d="M506.498515 297.232983m-247.220949 0a247.22095 247.22095 0 1 0 494.441899 0 247.22095 247.22095 0 1 0-494.441899 0Z" fill="#FF1A1A" p-id="19018"></path><path d="M259.277566 297.232983a247.22095 189.350802 0 1 0 494.441899 0 247.22095 189.350802 0 1 0-494.441899 0Z" fill="#D60909" p-id="19019"></path><path d="M259.285609 297.232983c0 136.547811 110.681182 247.22095 247.22095 247.22095 136.531725 0 247.212907-110.673139 247.212906-247.22095H259.285609z" fill="#FFFFFF" p-id="19020"></path><path d="M506.506559 486.583785c136.531725 0 247.212907-84.782381 247.212906-189.350802H259.285609c0 104.568421 110.681182 189.350802 247.22095 189.350802z" fill="#D8E5EA" p-id="19021"></path><path d="M506.506559 37.939331c-142.96621 0-259.285609 116.311356-259.285609 259.285609s116.311356 259.285609 259.285609 259.285609S765.784124 440.199193 765.784124 297.232983 649.472768 37.939331 506.506559 37.939331z m0 24.129318c125.61723 0 228.544858 99.010635 234.842609 223.091632H271.655906c6.297752-124.080997 109.233423-223.091632 234.850653-223.091632z m0 470.320625c-125.61723 0-228.544858-99.010635-234.850653-223.091632h469.693262c-6.305795 124.080997-109.22538 223.091632-234.842609 223.091632z" fill="#33363A" p-id="19022"></path><path d="M506.498515 321.989663m-74.873273 0a74.873274 74.873274 0 1 0 149.746547 0 74.873274 74.873274 0 1 0-149.746547 0Z" fill="#A7BBC1" p-id="19023"></path><path d="M506.498515 296.52519m-74.86523 0a74.865231 74.865231 0 1 0 149.730461 0 74.865231 74.865231 0 1 0-149.730461 0Z" fill="#FFFFFF" p-id="19024"></path><path d="M453.566835 349.464914a74.857188 74.857188 0 0 1 0-105.871405 74.857188 74.857188 0 0 1 105.871404 0" fill="#D8E5EA" p-id="19025"></path><path d="M506.506559 383.45508a86.326657 86.326657 0 0 1-61.465417-25.464474c-16.424022-16.415979-25.464474-38.244969-25.464473-61.465416s9.048494-45.049437 25.464473-61.465417c16.415979-16.424022 38.244969-25.464474 61.465417-25.464473s45.049437 9.040451 61.465416 25.45643a86.326657 86.326657 0 0 1 25.464473 61.465417c0 23.220447-9.040451 45.049437-25.464473 61.473459a86.358829 86.358829 0 0 1-61.465416 25.464474z m0-149.722419c-16.769876 0-32.542407 6.531002-44.405989 18.394583s-18.394583 27.636112-18.394583 44.405989 6.539045 32.542407 18.394583 44.405988 27.636112 18.394583 44.405989 18.394584 32.542407-6.531002 44.405988-18.394584c11.863581-11.863581 18.394583-27.636112 18.394583-44.405988s-6.531002-32.542407-18.394583-44.405989a62.390373 62.390373 0 0 0-44.405988-18.394583z" fill="#33363A" p-id="19026"></path><path d="M764.722434 726.77506m-247.220949 0a247.22095 247.22095 0 1 0 494.441899 0 247.22095 247.22095 0 1 0-494.441899 0Z" fill="#FF1A1A" p-id="19027"></path><path d="M517.501485 726.77506a247.22095 189.358845 0 1 0 494.441899 0 247.22095 189.358845 0 1 0-494.441899 0Z" fill="#D60909" p-id="19028"></path><path d="M517.501485 726.77506c0 136.555854 110.681182 247.22095 247.220949 247.22095 136.531725 0 247.212907-110.673139 247.212907-247.22095H517.501485z" fill="#FFFFFF" p-id="19029"></path><path d="M764.722434 916.133905c136.531725 0 247.212907-84.782381 247.212907-189.358845H517.501485c0 104.576464 110.689225 189.358845 247.220949 189.358845z" fill="#D8E5EA" p-id="19030"></path><path d="M764.722434 467.497494c-142.96621 0-259.285609 116.311356-259.285609 259.277566 0 142.974253 116.311356 259.285609 259.285609 259.285609s259.277566-116.311356 259.277566-259.285609c0-142.974253-116.303313-259.277566-259.277566-259.277566z m0 24.129318c125.61723 0 228.544858 99.010635 234.84261 223.083589H529.871782c6.305795-124.080997 109.233423-223.083589 234.850652-223.083589z m0 470.304539c-125.61723 0-228.544858-99.010635-234.850652-223.091632h469.693262c-6.297752 124.080997-109.22538 223.091632-234.84261 223.091632z" fill="#33363A" p-id="19031"></path><path d="M764.722434 751.53174m-74.865231 0a74.865231 74.865231 0 1 0 149.730462 0 74.865231 74.865231 0 1 0-149.730462 0Z" fill="#A7BBC1" p-id="19032"></path><path d="M764.722434 726.067267m-74.865231 0a74.865231 74.865231 0 1 0 149.730462 0 74.865231 74.865231 0 1 0-149.730462 0Z" fill="#FFFFFF" p-id="19033"></path><path d="M711.790754 779.006991c-29.23669-29.228647-29.23669-76.626671 0-105.879448a74.88936 74.88936 0 0 1 105.871404 0" fill="#D8E5EA" p-id="19034"></path><path d="M764.722434 812.997157a86.326657 86.326657 0 0 1-61.465416-25.464474 86.318614 86.318614 0 0 1-25.464474-61.465416c0-23.220447 9.048494-45.049437 25.464474-61.481503 33.901692-33.877563 89.037184-33.869519 122.930833 0a86.382959 86.382959 0 0 1 25.464473 61.481503c0 23.220447-9.048494 45.049437-25.464473 61.465416a86.326657 86.326657 0 0 1-61.465417 25.464474z m0-149.690247c-16.086212 0-32.164381 6.120804-44.405988 18.354368a62.414503 62.414503 0 0 0-18.394584 44.414032c0 16.769876 6.539045 32.542407 18.394584 44.397945 11.863581 11.863581 27.636112 18.394583 44.405988 18.394584s32.542407-6.531002 44.405989-18.394584c11.863581-11.863581 18.394583-27.628069 18.394583-44.405988s-6.531002-32.55045-18.394583-44.414032a62.631667 62.631667 0 0 0-44.405989-18.346325z" fill="#33363A" p-id="19035"></path></svg>