<?xml version="1.0" standalone="no"?><!DOCTYPE svg PUBLIC "-//W3C//DTD SVG 1.1//EN" "http://www.w3.org/Graphics/SVG/1.1/DTD/svg11.dtd"><svg t="1753153016807" class="icon" viewBox="0 0 1024 1024" version="1.1" xmlns="http://www.w3.org/2000/svg" p-id="21148" xmlns:xlink="http://www.w3.org/1999/xlink" width="256" height="256"><path d="M839.923484 312.717792a56.25543 56.25543 0 0 1-47.715798-26.342594C726.994487 182.580874 622.243274 120.616274 512 120.616274s-214.994487 61.9646-280.207686 165.750883a56.271512 56.271512 0 0 1-77.604511 17.706469 56.287594 56.287594 0 0 1-17.71451-77.60451C222.408368 89.698302 362.789628 8.041085 512 8.041085s289.591632 81.657217 375.534748 218.428031a56.287594 56.287594 0 0 1-17.71451 77.60451 55.965951 55.965951 0 0 1-29.896754 8.644166zM512 1007.91783c-253.101189 0-459.017291-230.586151-459.017291-514.010271a56.287594 56.287594 0 1 1 112.575188 0c0 221.346945 155.418089 401.435082 346.442103 401.435082s346.442103-180.088138 346.442103-401.435082a56.287594 56.287594 0 1 1 112.575188 0c0 283.42412-205.916103 514.010271-459.017291 514.010271z" fill="#FF8F8F" p-id="21149"></path><path d="M512 72.369764C363.609819 72.369764 223.976379 153.158544 137.912647 288.570414a56.271512 56.271512 0 0 0 93.871626-2.195216C297.005513 182.580874 401.748685 120.616274 512 120.616274S726.994487 182.580874 792.207686 286.367157a56.25543 56.25543 0 0 0 77.604511 17.706469 56.094608 56.094608 0 0 0 16.267114-15.511253C800.023621 153.158544 660.38214 72.369764 512 72.369764zM914.729697 501.948644a56.287594 56.287594 0 0 0-56.287594 56.287594c0 221.346945-155.418089 401.435082-346.442103 401.435083S165.557897 779.583183 165.557897 558.236238a56.25543 56.25543 0 1 0-110.428219-15.237856c22.153189 260.474864 218.564729 464.911407 456.870322 464.911407s434.717133-204.444584 456.870322-464.911407a56.263471 56.263471 0 0 0-54.140625-41.049738z" fill="#FF1A1A" p-id="21150"></path><path d="M184.004146 328.816044a67.786346 67.786346 0 0 1-36.24117-10.509698 67.882839 67.882839 0 0 1-30.266643-42.657955 67.906962 67.906962 0 0 1 8.756741-51.575519C214.415529 83.763982 358.624346 0 512 0s297.584471 83.763982 385.746926 224.072872a67.866757 67.866757 0 0 1 8.756741 51.575519 67.898921 67.898921 0 0 1-30.274685 42.665997 68.107989 68.107989 0 0 1-36.305498 10.485574 68.027578 68.027578 0 0 1-57.927976-31.995477C719.001649 196.548239 618.069951 136.698444 512 136.698444S304.998351 196.548239 242.004492 296.804485a67.882839 67.882839 0 0 1-42.657956 30.274685 69.233741 69.233741 0 0 1-15.34239 1.736874zM512 24.123255c-145.029008 0-281.598794 79.550453-365.32257 212.783189a43.95257 43.95257 0 0 0-5.668965 33.370502 43.928447 43.928447 0 0 0 19.588083 27.605045 43.896283 43.896283 0 0 0 33.378543 5.677006 43.920406 43.920406 0 0 0 27.605045-19.588083C289.012674 176.654595 397.575362 112.575189 512 112.575189s222.987326 64.079406 290.419864 171.395725a44.065145 44.065145 0 0 0 37.50362 20.697752 44.000817 44.000817 0 0 0 23.463886-6.786675 43.928447 43.928447 0 0 0 19.596124-27.613086 43.95257 43.95257 0 0 0-5.668965-33.370502C793.598794 103.673708 657.029008 24.123255 512 24.123255zM512 1024c-259.751166 0-471.078919-235.997801-471.078919-526.071899 0-37.688565 30.660657-68.349222 68.349222-68.349221s68.349222 30.660657 68.349222 68.349221c0 214.696967 149.998398 389.373455 334.380475 389.373455s334.380475-174.676488 334.380475-389.373455c0-37.688565 30.660657-68.349222 68.349222-68.349221s68.349222 30.660657 68.349222 68.349221c0 290.074097-211.327753 526.071899-471.078919 526.071899zM109.270303 453.702134a44.274214 44.274214 0 0 0-44.225967 44.225967c0 276.774143 200.504452 501.948644 446.955664 501.948644s446.955664-225.174501 446.955664-501.948644c0-24.388611-19.837356-44.225967-44.225967-44.225967s-44.225967 19.837356-44.225967 44.225967c0 227.996922-160.821698 413.49671-358.50373 413.49671S153.49627 725.925023 153.49627 497.928101c0-24.388611-19.837356-44.225967-44.225967-44.225967z" fill="#33363A" p-id="21151"></path><path d="M512 509.981688m-126.534512 0a126.534512 126.534512 0 1 0 253.069024 0 126.534512 126.534512 0 1 0-253.069024 0Z" fill="#FF8F8F" p-id="21152"></path><path d="M638.534512 509.981688c0 53.537543-56.657484 96.927238-126.534512 96.927237-69.868987 0-126.526471-43.381653-126.526471-96.927237 0-53.473215 56.657484-96.927238 126.526471-96.927238 69.877028 0 126.534512 43.445982 126.534512 96.927238z" fill="#FF1A1A" p-id="21153"></path><path d="M385.465488 509.981688c0 69.885069 56.657484 126.542553 126.526471 126.542553 69.877028 0 126.534512-56.657484 126.534512-126.542553H385.465488z" fill="#FFFFFF" p-id="21154"></path><path d="M511.991959 606.908925c69.877028 0 126.534512-43.381653 126.534512-96.927237H385.465488c0 53.537543 56.657484 96.927238 126.526471 96.927237z" fill="#DCE6EA" p-id="21155"></path><path d="M511.991959 371.40163c-76.41443 0-138.588099 62.165628-138.588099 138.580058 0 76.430512 62.173669 138.604181 138.588099 138.60418 76.422471 0 138.59614-62.173669 138.59614-138.60418 0.008041-76.41443-62.173669-138.580057-138.59614-138.580058z m0 24.123255c59.045687 0 107.774661 44.933583 113.829598 102.395175h-227.643114c6.046896-57.461593 54.77587-102.395175 113.813516-102.395175z m0 228.937729c-59.045687 0-107.774661-44.941624-113.821557-102.419299h227.643114c-6.038855 57.477675-54.767829 102.419299-113.821557 102.419299z" fill="#33363A" p-id="21156"></path><path d="M541.57511 494.912695a41.8056 41.8056 0 0 1 0 59.142179 41.797559 41.797559 0 0 1-59.158261 0 41.813642 41.813642 0 0 1 0-59.142179 41.813642 41.813642 0 0 1 59.158261 0z" fill="#A7BBC1" p-id="21157"></path><path d="M511.991959 510.255085m-41.829724 0a41.829724 41.829724 0 1 0 83.659448 0 41.829724 41.829724 0 1 0-83.659448 0Z" fill="#FFFFFF" p-id="21158"></path><path d="M482.416849 539.830195a41.829724 41.829724 0 0 1 59.158261-59.150221" fill="#D8E5EA" p-id="21159"></path><path d="M512 564.154477a53.521461 53.521461 0 0 1-38.114743-15.800732c-10.171972-10.171972-15.776609-23.697077-15.776608-38.09866s5.604636-27.94277 15.78465-38.106702a53.553626 53.553626 0 0 1 38.114742-15.78465c14.401583 0 27.934729 5.604636 38.106702 15.78465a53.545584 53.545584 0 0 1 15.784649 38.114743 53.481256 53.481256 0 0 1-15.792691 38.09866 53.521461 53.521461 0 0 1-38.106701 15.792691z m0-83.667489c-7.952633 0-15.430842 3.095818-21.059601 8.716536s-8.716536 13.098927-8.716536 21.051561 3.095818 15.430842 8.708495 21.035478c11.26556 11.273601 30.877766 11.257519 42.10312 0.016082a29.534905 29.534905 0 0 0 8.724577-21.05156c0-7.952633-3.095818-15.430842-8.716536-21.04352l-0.008041-0.008041a29.510782 29.510782 0 0 0-21.035478-8.716536z" fill="#33363A" p-id="21160"></path></svg>