<?xml version="1.0" standalone="no"?><!DOCTYPE svg PUBLIC "-//W3C//DTD SVG 1.1//EN" "http://www.w3.org/Graphics/SVG/1.1/DTD/svg11.dtd"><svg t="1753152103116" class="icon" viewBox="0 0 1024 1024" version="1.1" xmlns="http://www.w3.org/2000/svg" p-id="5949" xmlns:xlink="http://www.w3.org/1999/xlink" width="256" height="256"><path d="M502.981623 970.666629m-41.327556 0a41.327556 41.327556 0 1 0 82.655111 0 41.327556 41.327556 0 1 0-82.655111 0Z" fill="#FFA9D4" p-id="5950"></path><path d="M502.981623 929.331064a41.327556 41.327556 0 0 1 0 82.647102" fill="#FC70B0" p-id="5951"></path><path d="M502.981623 1024a53.389435 53.389435 0 0 1-53.333371-53.333371 53.397445 53.397445 0 0 1 53.333371-53.34138 53.397445 53.397445 0 0 1 53.34138 53.34138 53.389435 53.389435 0 0 1-53.34138 53.333371z m0-82.655111a29.337759 29.337759 0 0 0-29.305723 29.313731 29.337759 29.337759 0 0 0 29.305723 29.305722 29.337759 29.337759 0 0 0 29.313731-29.305722 29.353777 29.353777 0 0 0-29.313731-29.313731z" fill="#33363A" p-id="5952"></path><path d="M352.015906 727.667009v0.016018L502.981623 814.839318l150.973725-87.156291v-0.016018L502.981623 640.518727z" fill="#FC70B0" p-id="5953"></path><path d="M502.981623 814.839318l150.973725-87.156291v-0.016018L502.981623 640.518727" fill="#F93585" p-id="5954"></path><path d="M659.962261 717.255028l-150.973726-87.140273a12.013824 12.013824 0 0 0-12.013825 0l-150.965716 87.140273a12.029843 12.029843 0 0 0 0 20.823962L490.967798 821.76729v40.16622a12.013824 12.013824 0 1 0 24.027649 0v-40.16622l144.966814-83.704319a12.013824 12.013824 0 0 0 0-20.807943z m-156.980638 83.712328l-126.938069-73.300347L502.981623 654.390689l126.946077 73.292338-126.946077 73.284329zM494.451807 887.715177c-2.234571 2.242581-3.516046 5.366175-3.516046 8.569861 0 3.123594 1.281475 6.247189 3.516046 8.489769 2.242581 2.242581 5.366175 3.524055 8.497779 3.524055 3.195677 0 6.239179-1.281475 8.561852-3.524055 2.242581-2.322673 3.524055-5.366175 3.524055-8.489769 0-3.203686-1.281475-6.247189-3.524055-8.569861-4.477152-4.405069-12.486368-4.405069-17.059631 0z" fill="#33363A" p-id="5955"></path><path d="M280.709854 140.343173L502.981623 12.019511l222.271768 128.323662v256.695381L502.981623 525.346198l-222.271769-128.307644z" fill="#FFA9D4" p-id="5956"></path><path d="M280.709854 140.343173L502.981623 12.019511l222.271768 128.323662v256.695381L502.981623 525.346198" fill="#FC70B0" p-id="5957"></path><path d="M502.981623 12.019511v513.326687l222.271768-128.307644v-256.695381L502.981623 12.019511z" fill="#F93585" p-id="5958"></path><path d="M725.253391 140.343173L502.981623 12.019511v513.326687" fill="#DD2466" p-id="5959"></path><path d="M280.709854 140.343173v0.024028L502.981623 268.682854l222.271768-128.315653v-0.024028L502.981623 12.019511z" fill="#FC70B0" p-id="5960"></path><path d="M280.709854 140.343173v0.024028L502.981623 268.682854l222.271768-128.315653v-0.024028" fill="#F93585" p-id="5961"></path><path d="M737.203142 139.854611a12.36623 12.36623 0 0 0-0.272313-2.082396c-0.064074-0.288332-0.112129-0.568654-0.192222-0.848977a12.05387 12.05387 0 0 0-0.929069-2.242581c-0.136157-0.256295-0.296341-0.496571-0.448516-0.744857a11.997806 11.997806 0 0 0-1.361567-1.778046c-0.240276-0.256295-0.504581-0.472544-0.760875-0.704811a11.421142 11.421142 0 0 0-1.449668-1.113281c-0.184212-0.120138-0.320369-0.288332-0.51259-0.392451L508.988535 1.615539a11.973778 11.973778 0 0 0-12.013825 0L274.702942 129.939201c-0.192221 0.112129-0.328378 0.272313-0.51259 0.392452a11.421142 11.421142 0 0 0-1.449668 1.113281c-0.256295 0.232267-0.528608 0.456525-0.760876 0.704811a11.997806 11.997806 0 0 0-1.810083 2.522903 11.74952 11.74952 0 0 0-0.929069 2.242581c-0.080092 0.280323-0.128147 0.568654-0.192221 0.848977a11.501235 11.501235 0 0 0-0.272313 2.082396c-0.008009 0.168194-0.064074 0.320369-0.064074 0.488562v256.69538a12.013824 12.013824 0 0 0 6.006912 10.403972l216.248838 124.847663v33.238247a12.013824 12.013824 0 1 0 24.027649 0v-33.238247L731.260304 407.434516a12.013824 12.013824 0 0 0 6.006912-10.403972v-256.69538c0-0.160184-0.056065-0.312359-0.064074-0.480553zM502.981623 25.891473l198.260138 114.45971L502.981623 254.810892 304.721484 140.351183 502.981623 25.891473z m-210.257945 135.275663L490.967798 275.618835v228.919419L292.723678 390.094563V161.167136zM514.995447 504.538254V275.618835l198.24412-114.451699v228.927427L514.995447 504.538254zM494.451807 591.374176a12.029843 12.029843 0 0 0 0 16.979539c2.242581 2.242581 5.366175 3.524055 8.497779 3.524055 3.195677 0 6.239179-1.281475 8.561852-3.524055a12.005815 12.005815 0 0 0 0-16.979539c-4.477152-4.485161-12.486368-4.485161-17.059631 0z" fill="#33363A" p-id="5962"></path><path d="M901.432121 562.869376c-22.626036 0-42.496901 12.702617-49.488947 31.564321a3.283779 3.283779 0 0 1-0.384443 0.768884 3.476 3.476 0 0 1-0.392451-0.768884c-6.976027-18.861704-26.854902-31.564321-49.504966-31.564321-28.632948 0-51.955786 20.53563-51.955786 45.756652a41.655934 41.655934 0 0 0 8.938286 25.725602c0.184212 0.20824 0.344396 0.344396 0.488562 0.480553l92.426355 109.325802 92.418346-109.325802c0.144166-0.136157 0.30435-0.264304 0.496572-0.480553 0 0 0.024028-0.088101 0.088101-0.136156a41.607878 41.607878 0 0 0 8.850184-25.589446c0-25.221022-23.322838-45.756652-51.979813-45.756652z" fill="#FC70B0" p-id="5963"></path><path d="M851.174289 594.433697c-6.976027-18.861704-26.854902-31.564321-49.504966-31.564321-28.632948 0-51.955786 20.53563-51.955785 45.756652a41.655934 41.655934 0 0 0 8.938285 25.725602c0.184212 0.20824 0.344396 0.344396 0.488562 0.480553l92.426356 109.325802V595.202581a3.315816 3.315816 0 0 1-0.392452-0.768884z" fill="#F93585" p-id="5964"></path><path d="M851.558731 756.1638a12.013824 12.013824 0 0 1-9.178562-4.260903l-92.081959-108.925341-0.624718-0.648746a10.708322 10.708322 0 0 1-0.881014-1.1293 53.501564 53.501564 0 0 1-11.092765-32.581491c0-31.852653 28.697022-57.770477 63.96961-57.770477 19.846838 0 38.027759 8.169401 49.929454 21.504746 11.95776-13.39141 30.082616-21.504746 49.833344-21.504746 35.288607 0 63.993638 25.917824 63.993637 57.770477a53.501564 53.501564 0 0 1-11.092764 32.581491 10.708322 10.708322 0 0 1-1.569806 1.84212l-92.025895 108.861267a11.997806 11.997806 0 0 1-9.178562 4.260903zM767.830385 626.558663c0.168194 0.160184 0.256295 0.248286 0.480553 0.504581l83.255803 98.473313 83.247793-98.473313c0.184212-0.216249 0.376433-0.432498 0.576664-0.632728a29.714192 29.714192 0 0 0 6.014921-17.812497c0-18.605409-17.924626-33.742828-39.965989-33.742828-17.596248 0-32.957925 9.530967-38.21998 23.731307a14.280433 14.280433 0 0 1-1.649898 3.251742c-4.461133 6.687696-15.52987 6.687696-19.991004 0a15.489824 15.489824 0 0 1-1.697954-3.347852c-5.205991-14.096221-20.575676-23.635197-38.203961-23.635197-22.025345 0-39.941961 15.137419-39.941962 33.742828a29.6341 29.6341 0 0 0 6.095014 17.940644z" fill="#33363A" p-id="5965"></path><path d="M222.314658 733.27346c-22.634045 0-42.504911 12.702617-49.496956 31.564321a3.283779 3.283779 0 0 1-0.384443 0.768885 3.476 3.476 0 0 1-0.392451-0.768885c-6.976027-18.861704-26.854902-31.564321-49.504966-31.564321-28.632948 0-51.955786 20.53563-51.955785 45.764662a41.59186 41.59186 0 0 0 8.946294 25.717593c0.184212 0.20824 0.344396 0.344396 0.488562 0.472544l92.426356 109.325801 92.418346-109.325801c0.144166-0.136157 0.30435-0.264304 0.496571-0.472544 0 0 0.032037-0.088101 0.088102-0.136157a41.599869 41.599869 0 0 0 8.850184-25.581436c-0.008009-25.229031-23.330847-45.764662-51.979814-45.764662z" fill="#FC70B0" p-id="5966"></path><path d="M172.048817 764.837781c-6.976027-18.861704-26.854902-31.564321-49.504965-31.564321-28.632948 0-51.955786 20.53563-51.955786 45.764662a41.59186 41.59186 0 0 0 8.946294 25.717593c0.184212 0.20824 0.344396 0.344396 0.488563 0.472544l92.426355 109.325801V765.606666a2.803226 2.803226 0 0 1-0.400461-0.768885z" fill="#F93585" p-id="5967"></path><path d="M172.433259 926.575894a12.013824 12.013824 0 0 1-9.178561-4.260903L71.172739 813.381641l-0.624719-0.648747a10.708322 10.708322 0 0 1-0.881014-1.129299 53.501564 53.501564 0 0 1-11.092764-32.573483c0-31.860662 28.697022-57.778486 63.96961-57.778485 19.846838 0 38.027759 8.169401 49.929454 21.504745 11.95776-13.39141 30.082616-21.504746 49.841352-21.504745 35.280597 0 63.985628 25.917824 63.985629 57.778485a53.501564 53.501564 0 0 1-11.092765 32.573483 10.708322 10.708322 0 0 1-1.561797 1.83411l-92.033904 108.877286a12.021834 12.021834 0 0 1-9.178562 4.260903zM88.704913 796.970757c0.168194 0.160184 0.256295 0.248286 0.480553 0.50458l83.255803 98.473314 83.247793-98.473314c0.184212-0.216249 0.376433-0.432498 0.576664-0.632728a29.690165 29.690165 0 0 0 6.014921-17.804487c0-18.613419-17.924626-33.750837-39.95798-33.750838-17.604257 0-32.965934 9.530967-38.227989 23.731308a14.280433 14.280433 0 0 1-1.649898 3.251742c-4.461133 6.687696-15.52987 6.687696-19.991004 0a15.489824 15.489824 0 0 1-1.697954-3.347852c-5.205991-14.096221-20.575676-23.635197-38.203961-23.635198-22.025345 0-39.941961 15.137419-39.941962 33.750838a29.642109 29.642109 0 0 0 6.095014 17.932635z" fill="#33363A" p-id="5968"></path><path d="M266.077016 509.58406c-13.968073 0-26.230183 7.841023-30.539142 19.486423a2.018322 2.018322 0 0 1-0.240276 0.472544 2.162488 2.162488 0 0 1-0.232268-0.472544c-4.308958-11.6454-16.571068-19.486423-30.54715-19.486423-17.67634 0-32.068902 12.678589-32.068902 28.232487a25.701575 25.701575 0 0 0 5.51835 15.882276c0.120138 0.136157 0.216249 0.20824 0.30435 0.296341l57.033629 67.469637 57.033629-67.469637c0.096111-0.088101 0.192221-0.168194 0.30435-0.296341 0 0 0.024028-0.056065 0.056064-0.088101a25.709584 25.709584 0 0 0 5.470295-15.794175c-0.016018-15.553898-14.40858-28.232487-32.092929-28.232487z" fill="#FC70B0" p-id="5969"></path><path d="M235.057321 529.070483c-4.308958-11.6454-16.571068-19.486423-30.547151-19.486423-17.67634 0-32.068902 12.678589-32.068901 28.232487a25.701575 25.701575 0 0 0 5.51835 15.882276c0.120138 0.136157 0.216249 0.20824 0.30435 0.296341l57.033629 67.469637V529.543027a2.018322 2.018322 0 0 1-0.240277-0.472544z" fill="#F93585" p-id="5970"></path><path d="M235.289588 633.478626a12.013824 12.013824 0 0 1-9.178561-4.260903l-56.729279-67.109223-0.448516-0.464535a37.611279 37.611279 0 0 1-8.521806-23.827418c0-22.193538 19.774755-40.246312 44.082726-40.246311 11.789566 0 22.738165 4.244885 30.795436 11.381096 8.057272-7.144221 18.997861-11.381096 30.779418-11.381096 24.307971 0 44.090735 18.052773 44.090736 40.246311a37.579243 37.579243 0 0 1-7.712875 22.79423c-0.168194 0.248286-0.360415 0.488562-0.544627 0.720829-0.20023 0.248286-0.480553 0.544627-0.760876 0.832959l-56.681223 67.053158a11.989797 11.989797 0 0 1-9.170553 4.260903z m-48.159417-87.58078l0.296341 0.336387 47.863076 56.61715 47.863077-56.61715 0.312359-0.360414c1.754018-2.426793 2.675078-5.197981 2.675078-8.057272 0-8.794119-9.186571-16.218663-20.063086-16.218663-8.954304 0-16.699216 4.677382-19.270175 11.637391a16.715234 16.715234 0 0 1-1.778046 3.339844c-2.306654 3.187668-5.910802 5.165944-9.963465 4.973723a12.013824 12.013824 0 0 1-9.771243-5.342147c-0.528608-0.800922-1.201382-2.130452-1.529761-3.027484-2.546931-6.895935-10.299852-11.573317-19.254156-11.573317-10.868506 0-20.055077 7.432553-20.055077 16.218662-0.008009 2.867299 0.92106 5.646497 2.675078 8.07329z" fill="#33363A" p-id="5971"></path><path d="M818.889138 814.839318c-13.968073 0-26.222174 7.841023-30.539141 19.486423a2.883318 2.883318 0 0 1-0.232267 0.472544 2.178507 2.178507 0 0 1-0.240277-0.472544c-4.300949-11.6454-16.571068-19.486423-30.547151-19.486423-17.668331 0-32.068902 12.678589-32.068901 28.232487a25.661529 25.661529 0 0 0 5.526359 15.882276c0.120138 0.136157 0.20824 0.20824 0.296341 0.296341l57.041638 67.469638 57.033629-67.469638 0.30435-0.296341s0.016018-0.056065 0.056064-0.088101a25.701575 25.701575 0 0 0 5.462286-15.794175c-0.016018-15.553898-14.40858-28.232487-32.09293-28.232487z" fill="#FC70B0" p-id="5972"></path><path d="M787.869444 834.317732c-4.300949-11.6454-16.571068-19.486423-30.547151-19.486423-17.668331 0-32.068902 12.678589-32.068902 28.232487a25.661529 25.661529 0 0 0 5.52636 15.882276c0.120138 0.136157 0.20824 0.20824 0.296341 0.296341l57.041638 67.469637v-91.921774a2.202534 2.202534 0 0 1-0.248286-0.472544z" fill="#F93585" p-id="5973"></path><path d="M788.11773 938.725875a12.013824 12.013824 0 0 1-9.178562-4.260903l-56.761316-67.133251a14.456635 14.456635 0 0 1-1.233419-1.465686 37.579243 37.579243 0 0 1-7.712875-22.79423c0-22.193538 19.774755-40.246312 44.082726-40.246311 11.797576 0 22.746174 4.244885 30.803446 11.381096 8.057272-7.144221 18.997861-11.381096 30.771408-11.381096 24.307971 0 44.090735 18.052773 44.090736 40.246311a37.539196 37.539196 0 0 1-8.521806 23.827419 13.583631 13.583631 0 0 1-0.496572 0.520599l-56.681223 67.045149a11.965769 11.965769 0 0 1-9.162543 4.260903z m-48.13539-87.540734a7.905096 7.905096 0 0 1 0.264304 0.304351l47.871086 56.617149 47.863076-56.617149a6.855889 6.855889 0 0 1 0.320368-0.360415c1.770037-2.442811 2.65906-5.149926 2.65906-8.057272 0-8.794119-9.186571-16.218663-20.063086-16.218663-8.946295 0-16.699216 4.677382-19.278184 11.645401-0.320369 0.873005-0.985134 2.178507-1.505733 2.955401-4.461133 6.687696-15.52987 6.687696-19.991003 0a17.347962 17.347962 0 0 1-1.53777-3.027484c-2.538922-6.903944-10.291843-11.573317-19.254156-11.573318-10.868506 0-20.055077 7.432553-20.055077 16.218663a13.615668 13.615668 0 0 0 2.707115 8.113336z" fill="#33363A" p-id="5974"></path></svg>