<?xml version="1.0" standalone="no"?><!DOCTYPE svg PUBLIC "-//W3C//DTD SVG 1.1//EN" "http://www.w3.org/Graphics/SVG/1.1/DTD/svg11.dtd"><svg t="1753152529347" class="icon" viewBox="0 0 1024 1024" version="1.1" xmlns="http://www.w3.org/2000/svg" p-id="12408" xmlns:xlink="http://www.w3.org/1999/xlink" width="256" height="256"><path d="M762.312895 415.315199c0 86.241718-112.064467 156.164616-250.312895 156.164616S261.687105 501.556918 261.687105 415.315199c0-86.273826 112.064467-230.446155 250.312895-230.446155S762.312895 329.041373 762.312895 415.315199z" fill="#C0C0C4" p-id="12409"></path><path d="M762.312895 418.863118c0 52.568598-112.064467 95.159677-250.312895 95.159677S261.687105 471.423689 261.687105 418.863118c0-52.53649 112.064467-140.407682 250.312895-140.407682 138.248428-0.008027 250.312895 87.871192 250.312895 140.407682z" fill="#2AF42F" p-id="12410"></path><path d="M762.312895 378.190484c0 52.552544-112.064467 95.159677-250.312895 95.159677s-250.312895-42.61516-250.312895-95.159677 112.064467-140.407682 250.312895-140.407682 250.312895 87.855138 250.312895 140.407682z" fill="#FFFFFF" p-id="12411"></path><path d="M657.384401 436.955899c0 52.552544-65.082637 36.402289-145.384401 36.402289-80.301764 0-145.392428 16.150255-145.392428-36.402289s65.090664-199.16507 145.392428-199.16507c80.301764-0.008027 145.384401 146.612526 145.384401 199.16507z" fill="#E8E8ED" p-id="12412"></path><path d="M691.338465 270.251877c-45.464733-48.033362-108.990139-85.382833-179.338465-85.382833s-133.873732 37.341444-179.338465 85.382833c45.464733 29.145912 108.990139 47.302908 179.338465 47.302909s133.873732-18.156996 179.338465-47.302909z" fill="#2AF42F" p-id="12413"></path><path d="M351.669389 281.208685c43.425884 22.668151 99.301591 36.338073 160.338638 36.338074 61.029019 0 116.904727-13.669922 160.338638-36.338074-43.425884-38.818406-99.301591-66.960947-160.338638-66.960947-61.037046 0-116.912754 28.142541-160.338638 66.960947z" fill="#1AD88F" p-id="12414"></path><path d="M512 583.520263c-144.661974 0-262.353343-75.453477-262.353343-168.205064 0-93.546257 120.067351-242.486603 262.353343-242.486603S774.353343 321.768943 774.353343 415.315199c0 92.751587-117.691369 168.205064-262.353343 168.205064z m0-386.61077c-129.226119 0-238.272446 134.146649-238.272446 218.405706 0 79.466959 106.887074 144.124167 238.272446 144.124168S750.272446 494.782159 750.272446 415.315199c0-84.251031-109.046328-218.405707-238.272446-218.405706z" fill="#33363A" p-id="12415"></path><path d="M512 583.520263c-144.661974 0-262.353343-75.453477-262.353343-168.205064 0-93.546257 120.067351-242.486603 262.353343-242.486603S774.353343 321.768943 774.353343 415.315199c0 92.751587-117.691369 168.205064-262.353343 168.205064z m0-386.61077c-129.226119 0-238.272446 134.146649-238.272446 218.405706 0 79.466959 106.887074 144.124167 238.272446 144.124168S750.272446 494.782159 750.272446 415.315199c0-84.251031-109.046328-218.405707-238.272446-218.405706z" fill="#33363A" p-id="12416"></path><path d="M512 329.595234c-70.340299 0-136.338011-17.474704-185.83228-49.205299a12.024394 12.024394 0 0 1-2.247551-18.413859c31.513867-33.287826 97.840684-89.139453 188.079831-89.139453S668.565964 228.68825 700.079831 261.976076a12.032421 12.032421 0 0 1-2.247551 18.413859c-49.49427 31.730595-115.491981 49.205299-185.83228 49.205299z m-159.929262-61.783554c44.011852 24.393948 100.160477 37.702657 159.929262 37.702657s115.91741-13.308709 159.929262-37.702657c-31.762703-30.398119-87.654464-70.902187-159.929262-70.902187s-128.16656 40.504068-159.929262 70.902187z" fill="#33363A" p-id="12417"></path><path d="M447.407008 379.1778c-41.940895 0-76.063526-35.944752-76.063526-80.12517a12.040448 12.040448 0 1 1 24.080897 0c0 30.903818 23.318335 56.044274 51.982629 56.044274a12.040448 12.040448 0 1 1 0 24.080896zM576.592992 379.1778a12.040448 12.040448 0 1 1 0-24.080896c28.664294 0 51.982629-25.140456 51.982629-56.044274a12.040448 12.040448 0 1 1 24.080897 0c0 44.180419-34.122631 80.12517-76.063526 80.12517z" fill="#33363A" p-id="12418"></path><path d="M535.519009 372.740174a23.519009 23.519009 0 0 1-23.519009 23.502955 23.519009 23.519009 0 1 1 23.519009-23.502955z" fill="#FFAA00" p-id="12419"></path><path d="M512 441.450999c-40.158909 0-72.836686-32.685804-72.836686-72.852739a12.040448 12.040448 0 1 1 24.080897 0 48.820005 48.820005 0 0 0 48.755789 48.771843 48.811978 48.811978 0 0 0 48.747762-48.771843 12.040448 12.040448 0 1 1 24.080897 0c0 40.166936-32.66975 72.85274-72.828659 72.852739z" fill="#33363A" p-id="12420"></path><path d="M535.519009 384.780622a12.040448 12.040448 0 0 1-12.040448-12.040448c0-6.341303-5.153312-11.494615-11.478561-11.494615s-11.478561 5.153312-11.478561 11.494615a12.040448 12.040448 0 1 1-24.080897 0c0-19.617904 15.949581-35.575511 35.559458-35.575511s35.559458 15.957608 35.559458 35.575511a12.040448 12.040448 0 0 1-12.040449 12.040448z" fill="#33363A" p-id="12421"></path><path d="M476.625163 219.280646c9.57617 22.636043 21.905589 36.305965 35.374837 36.305965 13.461221 0 25.798667-13.669922 35.374837-36.305965-9.57617-38.802352-21.913616-66.944893-35.374837-66.944893-13.469248 0.008027-25.798667 28.142541-35.374837 66.944893z" fill="#2AF42F" p-id="12422"></path><path d="M512 181.000047c-11.229725 0-21.672807 19.625931-30.390092 48.643411 8.725312 16.334875 19.144313 36.249777 30.390092 36.249777 11.245779 0 21.66478-19.906875 30.382065-36.249777-8.709258-29.017481-19.144313-48.643411-30.382065-48.643411z" fill="#1AD88F" p-id="12423"></path><path d="M547.36681 231.329121a12.040448 12.040448 0 0 1-11.679235-9.158767c-10.234381-41.45125-20.035306-55.1292-23.687575-57.553344-3.660296 2.416117-13.453194 16.094066-23.687575 57.553344a12.040448 12.040448 0 0 1-23.374524-5.763362c12.819064-51.918413 27.765274-76.095634 47.062099-76.095634s34.251062 24.17722 47.062099 76.095634a12.024394 12.024394 0 0 1-11.695289 14.922129zM512 485.398636c-149.56645 0-262.353343-46.090836-262.353343-107.200125a12.040448 12.040448 0 1 1 24.080897 0c0 39.316077 97.848711 83.119229 238.272446 83.119228a12.040448 12.040448 0 1 1 0 24.080897z" fill="#33363A" p-id="12424"></path><path d="M512 485.398636a12.040448 12.040448 0 1 1 0-24.080897c140.415709 0 238.272446-43.811178 238.272446-83.119228a12.040448 12.040448 0 1 1 24.080897 0c0 61.109289-112.786893 107.200125-262.353343 107.200125z" fill="#33363A" p-id="12425"></path><path d="M469.746053 130.687027a53.026135 53.026135 0 0 1-52.977973-52.961919 12.040448 12.040448 0 1 1 24.080897 0 28.921157 28.921157 0 0 0 28.897076 28.881022 12.040448 12.040448 0 1 1 0 24.080897z" fill="#33363A" p-id="12426"></path><path d="M505.080756 148.827969c-3.877024 0-7.681806-1.862256-10.009626-5.329905a28.897076 28.897076 0 0 0-24.008654-12.811037 12.040448 12.040448 0 1 1 0-24.080897 52.921784 52.921784 0 0 1 43.995798 23.46282 12.040448 12.040448 0 0 1-9.977518 18.759019z" fill="#33363A" p-id="12427"></path><path d="M469.746053 65.034475a53.042189 53.042189 0 0 1-52.977973-52.994027 12.040448 12.040448 0 1 1 24.080897 0 28.937211 28.937211 0 0 0 28.897076 28.91313 12.040448 12.040448 0 1 1 0 24.080897z" fill="#33363A" p-id="12428"></path><path d="M505.080756 83.159363c-3.877024 0-7.681806-1.862256-10.009626-5.329905a28.872995 28.872995 0 0 0-24.008654-12.80301 12.040448 12.040448 0 1 1 0-24.080897 52.913757 52.913757 0 0 1 43.995798 23.454794 12.040448 12.040448 0 0 1-9.977518 18.759018z" fill="#33363A" p-id="12429"></path><path d="M512 841.611288m-170.340237 0a170.340237 170.340237 0 1 0 340.680474 0 170.340237 170.340237 0 1 0-340.680474 0Z" fill="#2AF42F" p-id="12430"></path><path d="M341.659763 841.611288c0-94.06801 76.2642-170.324183 170.340237-170.324183s170.340237 76.256173 170.340237 170.324183" fill="#1AD88F" p-id="12431"></path><path d="M512.008027 1024c-100.569852-0.016054-182.380685-81.834914-182.380685-182.396739s81.810833-182.364631 182.380685-182.364631 182.380685 81.802806 182.380685 182.364631-81.826887 182.380685-182.380685 182.396739z m-0.008027-340.672446c-87.285224 0-158.299788 71.006538-158.299788 158.283734s71.014565 158.299788 158.299788 158.315842c87.285224-0.016054 158.291761-71.038645 158.291761-158.315842s-71.006538-158.283734-158.291761-158.283734z" fill="#33363A" p-id="12432"></path><path d="M465.949298 686.289504l46.050702-95.159677 46.050702 95.159677" fill="#1AD88F" p-id="12433"></path><path d="M558.058729 698.329952a12.040448 12.040448 0 0 1-10.844431-6.79884l-35.214298-72.764443-35.214298 72.764443a12.032421 12.032421 0 1 1-21.672807-10.491244l46.050701-95.159677a12.040448 12.040448 0 0 1 21.672808 0l46.050701 95.159677a12.040448 12.040448 0 0 1-10.828376 17.290084z" fill="#33363A" p-id="12434"></path><path d="M595.978114 899.678357h-63.124057a12.040448 12.040448 0 0 1-12.040449-12.040448V795.592694a12.040448 12.040448 0 0 1 12.040449-12.040448h63.124057a12.040448 12.040448 0 0 1 12.040448 12.040448v92.045215a12.040448 12.040448 0 0 1-12.040448 12.040448z m-51.083609-24.080897h39.043161v-67.964317h-39.043161v67.964317zM491.15397 899.678357h-63.124057a12.040448 12.040448 0 1 1 0-24.080897h51.083609v-67.964317h-51.083609a12.040448 12.040448 0 1 1 0-24.080897h63.124057a12.040448 12.040448 0 0 1 12.040449 12.040448v92.045215a12.040448 12.040448 0 0 1-12.040449 12.040448z" fill="#33363A" p-id="12435"></path><path d="M491.15397 853.66779h-63.124057a12.040448 12.040448 0 1 1 0-24.080897h63.124057a12.040448 12.040448 0 1 1 0 24.080897z" fill="#33363A" p-id="12436"></path></svg>