<?xml version="1.0" standalone="no"?><!DOCTYPE svg PUBLIC "-//W3C//DTD SVG 1.1//EN" "http://www.w3.org/Graphics/SVG/1.1/DTD/svg11.dtd"><svg t="1753152513432" class="icon" viewBox="0 0 1024 1024" version="1.1" xmlns="http://www.w3.org/2000/svg" p-id="12020" xmlns:xlink="http://www.w3.org/1999/xlink" width="256" height="256"><path d="M913.660054 761.359281c0 138.396831-179.835557 250.592242-401.66407 250.592243s-401.648006-112.195411-401.648006-250.592243S290.167471 391.575479 511.995984 391.575479c221.828513 0 401.66407 231.386971 401.66407 369.783802z" fill="#C0C0C4" p-id="12021"></path><path d="M913.660054 767.062227c0 84.331302-179.835557 152.702389-401.66407 152.702388s-401.648006-68.371087-401.648006-152.702388c0-84.323269 179.819492-225.306507 401.648006-225.306507 221.828513 0 401.66407 140.983237 401.66407 225.306507z" fill="#2AF42F" p-id="12022"></path><path d="M913.660054 701.807679c0 84.331302-179.835557 152.694356-401.66407 152.694357s-401.648006-68.363054-401.648006-152.694357c0-84.339334 179.819492-225.314539 401.648006-225.314539 221.828513 0 401.66407 140.975205 401.66407 225.314539z" fill="#FFFFFF" p-id="12023"></path><path d="M745.294646 796.074958c0 84.339334-104.452257 58.419045-233.298662 58.419045s-233.298663 25.920289-233.298663-58.419045c0-84.323269 104.452257-319.581817 233.298663-319.581818s233.298663 235.258548 233.298662 319.581818z" fill="#E8E8ED" p-id="12024"></path><path d="M799.761792 528.598784C726.796219 451.520665 624.86611 391.575479 511.995984 391.575479c-112.878158 0-214.800235 59.945186-287.765808 137.023305C297.195749 575.362937 399.125858 604.464023 511.995984 604.464023s214.800235-29.101086 287.765808-75.865239z" fill="#2AF42F" p-id="12025"></path><path d="M254.704789 546.197592c69.704452 36.338204 159.36118 58.266431 257.283163 58.266431 97.938048 0 187.594776-21.920195 257.283162-58.266431-69.688387-62.298655-159.345115-107.448312-257.283162-107.448312-97.921983 0-187.578711 45.149657-257.283163 107.448312z" fill="#1AD88F" p-id="12026"></path><path d="M511.995984 1024c-228.109785 0-413.696482-117.818033-413.696482-262.640719 0-147.296639 189.329756-381.832278 413.696482-381.832278 224.374758 0 413.712547 234.535639 413.712546 381.832278 0 144.822685-185.594729 262.640719-413.712546 262.640719z m0-620.376044c-211.298145 0-389.599529 219.732078-389.59953 357.735325 0 131.5292 174.775197 238.543766 389.59953 238.543766 214.832365 0 389.615594-107.014566 389.615594-238.543766 0-138.003247-178.309417-357.735326-389.615594-357.735325z" fill="#33363A" p-id="12027"></path><path d="M511.995984 1024c-228.109785 0-413.696482-117.818033-413.696482-262.640719 0-147.296639 189.329756-381.832278 413.696482-381.832278 224.374758 0 413.712547 234.535639 413.712546 381.832278 0 144.822685-185.594729 262.640719-413.712546 262.640719z m0-620.376044c-211.298145 0-389.599529 219.732078-389.59953 357.735325 0 131.5292 174.775197 238.543766 389.59953 238.543766 214.832365 0 389.615594-107.014566 389.615594-238.543766 0-138.003247-178.309417-357.735326-389.615594-357.735325z" fill="#33363A" p-id="12028"></path><path d="M511.995984 616.5125c-111.512664 0-216.021148-27.615108-294.271985-77.776931a12.032412 12.032412 0 0 1-2.249049-18.426137c49.776272-52.579551 154.485563-140.782429 296.521034-140.782429s246.744762 88.202879 296.521034 140.782429a12.032412 12.032412 0 0 1-2.249049 18.426137c-78.250837 50.153791-182.759321 77.776931-294.271985 77.776931zM243.379221 526.213186c72.901314 42.772091 167.602338 66.202361 268.608731 66.202361s195.715449-23.43027 268.60873-66.202361c-50.410825-50.145758-144.7022-122.58923-268.600698-122.58923S293.798078 476.067428 243.379221 526.213186z" fill="#33363A" p-id="12029"></path><path d="M408.354991 696.112766c-63.28663 0-114.773785-54.402887-114.773785-121.287994a12.048476 12.048476 0 1 1 24.096952 0c0 53.591623 40.675656 97.191042 90.676833 97.191042a12.048476 12.048476 0 1 1 0 24.096952zM615.645009 696.112766a12.048476 12.048476 0 1 1 0-24.096952c50.001177 0 90.676833-43.59942 90.676833-97.191042a12.048476 12.048476 0 1 1 24.096952 0c0 66.885108-51.487155 121.287995-114.773785 121.287994z" fill="#33363A" p-id="12030"></path><path d="M511.995984 693.012292m-37.74386 0a37.74386 37.74386 0 1 0 75.48772 0 37.74386 37.74386 0 1 0-75.48772 0Z" fill="#FFAA00" p-id="12031"></path><path d="M511.995984 796.034796c-60.427125 0-109.600973-49.173848-109.600973-109.609005a12.048476 12.048476 0 1 1 24.096953 0c0 47.149704 38.354316 85.512052 85.50402 85.512053 47.157736 0 85.512052-38.354316 85.512052-85.512053a12.048476 12.048476 0 1 1 24.096953 0c0 60.435157-49.165816 109.609005-109.609005 109.609005z" fill="#33363A" p-id="12032"></path><path d="M511.995984 742.81266a49.848563 49.848563 0 0 1-49.792337-49.792336c0-27.446429 22.337875-49.784304 49.792337-49.784304s49.792336 22.337875 49.792336 49.784304a49.848563 49.848563 0 0 1-49.792336 49.792336z m0-75.48772a25.719481 25.719481 0 0 0-25.695384 25.687352c0 14.169008 11.526376 25.695384 25.695384 25.695383s25.695384-11.526376 25.695384-25.695383a25.719481 25.719481 0 0 0-25.695384-25.687352z" fill="#33363A" p-id="12033"></path><path d="M455.215531 446.813727c15.38992 36.346237 35.173518 58.282496 56.772421 58.282496s41.398565-21.928227 56.77242-58.282496c-15.373856-62.28259-35.173518-107.432247-56.77242-107.432247s-41.3825 45.149657-56.772421 107.432247z" fill="#2AF42F" p-id="12034"></path><path d="M511.995984 385.37453c-18.024521 0-34.779935 31.486685-48.756168 78.066094 13.992297 26.20142 30.715582 58.153979 48.756168 58.153979 18.040585 0 34.76387-31.960591 48.756167-58.153979-13.976232-46.579409-30.731647-78.066094-48.756167-78.066094z" fill="#1AD88F" p-id="12035"></path><path d="M568.760372 458.862203a12.048476 12.048476 0 0 1-11.687022-9.164874c-19.189207-77.728737-37.880409-98.267373-45.077366-98.267373-7.196957 0-25.872095 20.538636-45.077366 98.275405a12.048476 12.048476 0 0 1-23.390109-5.783268c19.390015-78.451645 41.784116-116.589089 68.467475-116.589089 26.707456 0 49.109589 38.137444 68.467474 116.597121a12.032412 12.032412 0 0 1-11.703086 14.932078zM511.995984 866.550512c-231.981363 0-413.696482-72.363149-413.696482-164.742833a12.048476 12.048476 0 1 1 24.096952 0c0 67.921277 156.549869 140.64588 389.59953 140.64588a12.048476 12.048476 0 1 1 0 24.096953z" fill="#33363A" p-id="12036"></path><path d="M511.995984 866.550512a12.048476 12.048476 0 1 1 0-24.096953c233.057693 0 389.615594-72.724603 389.615594-140.64588a12.048476 12.048476 0 1 1 24.096952 0c0 92.379684-181.723152 164.742832-413.712546 164.742833z" fill="#33363A" p-id="12037"></path><path d="M511.995984 935.451732c-231.981363 0-413.696482-72.363149-413.696482-164.750865a12.048476 12.048476 0 1 1 24.096952 0c0 67.929309 156.549869 140.653912 389.59953 140.653912a12.048476 12.048476 0 1 1 0 24.096953z" fill="#33363A" p-id="12038"></path><path d="M511.995984 935.451732a12.048476 12.048476 0 1 1 0-24.096953c233.057693 0 389.615594-72.724603 389.615594-140.653912a12.048476 12.048476 0 1 1 24.096952 0c0 92.387716-181.723152 164.750865-413.712546 164.750865z" fill="#33363A" p-id="12039"></path><path d="M406.72443 211.458791c-61.929168 0-112.307864-50.378696-112.307863-112.299831a12.048476 12.048476 0 1 1 24.096952 0c0 48.635683 39.575228 88.202879 88.210911 88.202879a12.048476 12.048476 0 1 1 0 24.096952z" fill="#33363A" p-id="12040"></path><path d="M503.505824 275.500459a12.048476 12.048476 0 0 1-11.237212-7.69496 87.889618 87.889618 0 0 0-18.956269-29.542864 12.040444 12.040444 0 0 1 0.265066-17.036546 12.040444 12.040444 0 0 1 17.036546 0.265067 111.625117 111.625117 0 0 1 24.121049 37.60731 12.040444 12.040444 0 0 1-11.22918 16.401993z m-54.45108-56.129835c-1.566302 0-3.164733-0.31326-4.690874-0.955846a87.68881 87.68881 0 0 0-34.386351-6.947954 12.048476 12.048476 0 1 1 0-24.096953c15.18108 0 29.91235 2.97999 43.784163 8.859646a12.048476 12.048476 0 0 1-4.706938 23.141107z" fill="#33363A" p-id="12041"></path><path d="M406.72443 124.348308c-61.929168 0-112.307864-50.378696-112.307863-112.299832a12.048476 12.048476 0 1 1 24.096952 0c0 48.635683 39.575228 88.202879 88.210911 88.202879a12.048476 12.048476 0 1 1 0 24.096953z" fill="#33363A" p-id="12042"></path><path d="M503.505824 188.398008a12.048476 12.048476 0 0 1-11.237212-7.694961 87.889618 87.889618 0 0 0-18.956269-29.542863 12.040444 12.040444 0 0 1 0.265066-17.036546 12.040444 12.040444 0 0 1 17.036546 0.265067 111.625117 111.625117 0 0 1 24.121049 37.60731 12.040444 12.040444 0 0 1-11.22918 16.401993z m-54.45108-56.137868c-1.566302 0-3.164733-0.31326-4.690874-0.955845a87.68881 87.68881 0 0 0-34.386351-6.947955 12.048476 12.048476 0 1 1 0-24.096953c15.18108 0 29.91235 2.97999 43.784163 8.859647a12.048476 12.048476 0 0 1-4.706938 23.141106z" fill="#33363A" p-id="12043"></path></svg>