<?xml version="1.0" standalone="no"?><!DOCTYPE svg PUBLIC "-//W3C//DTD SVG 1.1//EN" "http://www.w3.org/Graphics/SVG/1.1/DTD/svg11.dtd"><svg t="1753152663519" class="icon" viewBox="0 0 1024 1024" version="1.1" xmlns="http://www.w3.org/2000/svg" p-id="12809" xmlns:xlink="http://www.w3.org/1999/xlink" width="256" height="256"><path d="M512 853.62995c0 86.139008-111.920585 155.964113-249.991514 155.964113s-249.991514-69.825105-249.991513-155.964113c0-86.155041 111.920585-230.142264 249.991513-230.142265s249.991514 143.987223 249.991514 230.142265z" fill="#C0C0C4" p-id="12810"></path><path d="M512 857.173313c0 52.493087-111.920585 95.0375-249.991514 95.0375s-249.991514-42.552429-249.991513-95.0375c0-52.477054 111.920585-140.22741 249.991513-140.22741s249.991514 87.750356 249.991514 140.22741z" fill="#2AF42F" p-id="12811"></path><path d="M512 816.560916c0 52.485071-111.920585 95.029483-249.991514 95.029483s-249.991514-42.552429-249.991513-95.029483c0-52.493087 111.920585-140.22741 249.991513-140.22741s249.991514 87.734323 249.991514 140.22741z" fill="#FFFFFF" p-id="12812"></path><path d="M407.222259 875.226831c0 52.493087-65.007093 36.363568-145.205756 36.363568s-145.205756 16.129519-145.205756-36.363568c0-52.477054 65.007093-198.901342 145.205756-198.901342s145.205756 146.424288 145.205756 198.901342z" fill="#E8E8ED" p-id="12813"></path><path d="M441.116696 708.760894c-45.40636-47.979708-108.850204-85.273208-179.10821-85.273209s-133.701849 37.285484-179.108209 85.273209c45.40636 29.108491 108.850204 47.226142 179.108209 47.226142s133.701849-18.125667 179.10821-47.226142z" fill="#2AF42F" p-id="12814"></path><path d="M101.883727 719.703634c43.370129 22.63103 99.174096 36.275385 160.132776 36.275385s116.754631-13.644355 160.132776-36.275385c-43.370129-38.776583-99.174096-66.874975-160.132776-66.874974s-116.762647 28.098392-160.132776 66.874974z" fill="#1AD88F" p-id="12815"></path><path d="M262.016503 1021.619052c-144.47624 0-262.016503-75.3566-262.016503-167.989102 0-93.418135 119.913195-242.167254 262.016503-242.167254s262.016503 148.749119 262.016503 242.167254c-0.008017 92.632502-117.540263 167.989102-262.016503 167.989102z m0-386.106377C132.948283 635.512675 24.049979 769.48709 24.049979 853.62995c0 79.36493 106.74984 143.939123 237.966524 143.939123s237.966524-64.574193 237.966524-143.939123c-0.008017-84.142859-108.906321-218.117275-237.966524-218.117275z" fill="#33363A" p-id="12816"></path><path d="M262.016503 1021.619052c-144.47624 0-262.016503-75.3566-262.016503-167.989102 0-93.418135 119.913195-242.167254 262.016503-242.167254s262.016503 148.749119 262.016503 242.167254c-0.008017 92.632502-117.540263 167.989102-262.016503 167.989102z m0-386.106377C132.948283 635.512675 24.049979 769.48709 24.049979 853.62995c0 79.36493 106.74984 143.939123 237.966524 143.939123s237.966524-64.574193 237.966524-143.939123c-0.008017-84.142859-108.906321-218.117275-237.966524-218.117275z" fill="#33363A" p-id="12817"></path><path d="M262.016503 768.004008c-70.266022 0-136.178997-17.444251-185.593687-49.12609a12.008956 12.008956 0 0 1-2.244665-18.390217c31.465389-33.245087 97.707047-89.025005 187.838352-89.025005s156.372963 55.779918 187.838352 89.025005a12.016973 12.016973 0 0 1-2.244665 18.390217c-49.422707 31.681839-115.327665 49.12609-185.593687 49.12609z m-159.731943-61.688195c43.947328 24.354612 100.015845 37.638217 159.723926 37.638216s115.776598-13.283605 159.723927-37.638216c-31.713905-30.35909-87.52589-70.811154-159.723927-70.811155s-128.010021 40.452064-159.723926 70.811155z" fill="#33363A" p-id="12818"></path><path d="M197.506443 817.546965c-41.87903 0-75.95785-35.898602-75.95785-80.022297a12.024989 12.024989 0 1 1 24.049979 0c0 30.86414 23.28038 55.972317 51.907871 55.972318a12.024989 12.024989 0 1 1 0 24.049979zM326.518546 817.546965a12.024989 12.024989 0 1 1 0-24.049979c28.619475 0 51.907871-25.108178 51.907871-55.972318a12.024989 12.024989 0 1 1 24.049979 0c0 44.123695-34.070803 80.022296-75.95785 80.022297z" fill="#33363A" p-id="12819"></path><path d="M262.016503 811.093554m-23.488813 0a23.488813 23.488813 0 1 0 46.977626 0 23.488813 23.488813 0 1 0-46.977626 0Z" fill="#FFAA00" p-id="12820"></path><path d="M262.016503 879.732193c-40.107348 0-72.743169-32.635821-72.743169-72.751186a12.024989 12.024989 0 1 1 24.049979 0c0 26.85581 21.845397 48.701207 48.69319 48.701208s48.693191-21.845397 48.693191-48.701208a12.024989 12.024989 0 1 1 24.049978 0c0 40.115365-32.635821 72.751186-72.743169 72.751186z" fill="#33363A" p-id="12821"></path><path d="M285.497299 823.118543a12.024989 12.024989 0 0 1-12.024989-12.024989c0-6.325144-5.146695-11.47184-11.463824-11.47184s-11.463823 5.146695-11.463823 11.47184a12.024989 12.024989 0 1 1-24.049979 0c0-19.584699 15.929103-35.521819 35.513802-35.521819s35.513802 15.937119 35.513803 35.521819a12.024989 12.024989 0 0 1-12.02499 12.024989z" fill="#33363A" p-id="12822"></path><path d="M226.671051 657.855105c9.579908 22.60698 21.893497 36.259351 35.337435 36.259352s25.757527-13.652371 35.337436-36.259352c-9.579908-38.760549-21.885481-66.858941-35.337436-66.858941s-25.749511 28.098392-35.337435 66.858941z" fill="#2AF42F" p-id="12823"></path><path d="M262.016503 619.607622c-11.223323 0-21.636964 19.600733-30.343057 48.596991 8.706092 16.313902 19.1037 36.195218 30.343057 36.195218 11.223323 0 21.636964-19.873299 30.343057-36.195218-8.706092-28.988241-19.135767-48.596991-30.343057-48.596991z" fill="#1AD88F" p-id="12824"></path><path d="M297.345922 669.888111a12.024989 12.024989 0 0 1-11.66424-9.147008c-10.237274-41.414064-20.017599-55.074452-23.665179-57.487467-3.64758 2.413015-13.427905 16.073403-23.665179 57.487467a12.016973 12.016973 0 1 1-23.344513-5.771995c12.818639-51.851754 27.753676-75.997933 47.009692-75.997934s34.19907 24.146179 47.009692 75.997934a12.024989 12.024989 0 0 1-11.680273 14.919003z" fill="#33363A" p-id="12825"></path><path d="M262.016503 923.615388C112.642084 923.615388 0 877.591745 0 816.560916a12.024989 12.024989 0 1 1 24.049979 0c0 39.257582 97.723081 83.004494 237.966524 83.004493a12.024989 12.024989 0 1 1 0 24.049979z" fill="#33363A" p-id="12826"></path><path d="M262.016503 923.615388a12.024989 12.024989 0 1 1 0-24.049979c140.235427 0 237.966524-43.746912 237.966524-83.004493a12.024989 12.024989 0 1 1 24.049979 0c-0.008017 61.03083-112.650101 107.054473-262.016503 107.054472z" fill="#33363A" p-id="12827"></path><path d="M1011.975011 853.62995c0 86.139008-111.920585 155.964113-249.991514 155.964113s-249.991514-69.825105-249.991514-155.964113c0-86.155041 111.920585-230.142264 249.991514-230.142265s249.991514 143.987223 249.991514 230.142265z" fill="#C0C0C4" p-id="12828"></path><path d="M1011.975011 857.173313c0 52.493087-111.920585 95.0375-249.991514 95.0375s-249.991514-42.552429-249.991514-95.0375c0-52.477054 111.920585-140.22741 249.991514-140.22741s249.991514 87.750356 249.991514 140.22741z" fill="#2AF42F" p-id="12829"></path><path d="M1011.975011 816.560916c0 52.485071-111.920585 95.029483-249.991514 95.029483s-249.991514-42.552429-249.991514-95.029483c0-52.493087 111.920585-140.22741 249.991514-140.22741s249.991514 87.734323 249.991514 140.22741z" fill="#FFFFFF" p-id="12830"></path><path d="M907.197269 875.226831c0 52.493087-65.007093 36.363568-145.205755 36.363568s-145.205756 16.129519-145.205756-36.363568c0-52.477054 65.007093-198.901342 145.205756-198.901342s145.205756 146.424288 145.205755 198.901342z" fill="#E8E8ED" p-id="12831"></path><path d="M941.099723 708.760894c-45.40636-47.979708-108.850204-85.273208-179.108209-85.273209s-133.701849 37.285484-179.10821 85.273209c45.40636 29.108491 108.850204 47.226142 179.10821 47.226142s133.693832-18.125667 179.108209-47.226142z" fill="#2AF42F" p-id="12832"></path><path d="M601.858738 719.703634c43.370129 22.63103 99.174096 36.275385 160.132776 36.275385s116.754631-13.644355 160.132776-36.275385c-43.370129-38.776583-99.174096-66.874975-160.132776-66.874974s-116.762647 28.098392-160.132776 66.874974z" fill="#1AD88F" p-id="12833"></path><path d="M761.991514 1021.619052c-144.47624 0-262.016503-75.3566-262.016503-167.989102 0-93.418135 119.913195-242.167254 262.016503-242.167254s262.016503 148.749119 262.016503 242.167254c-0.008017 92.632502-117.540263 167.989102-262.016503 167.989102z m0-386.106377c-129.060203 0-237.966524 133.974416-237.966525 218.117275 0 79.36493 106.74984 143.939123 237.966525 143.939123s237.966524-64.574193 237.966524-143.939123c-0.008017-84.142859-108.906321-218.117275-237.966524-218.117275z" fill="#33363A" p-id="12834"></path><path d="M761.991514 1021.619052c-144.47624 0-262.016503-75.3566-262.016503-167.989102 0-93.418135 119.913195-242.167254 262.016503-242.167254s262.016503 148.749119 262.016503 242.167254c-0.008017 92.632502-117.540263 167.989102-262.016503 167.989102z m0-386.106377c-129.060203 0-237.966524 133.974416-237.966525 218.117275 0 79.36493 106.74984 143.939123 237.966525 143.939123s237.966524-64.574193 237.966524-143.939123c-0.008017-84.142859-108.906321-218.117275-237.966524-218.117275z" fill="#33363A" p-id="12835"></path><path d="M761.991514 768.004008c-70.266022 0-136.178997-17.444251-185.593687-49.12609a12.008956 12.008956 0 0 1-2.244665-18.390217c31.465389-33.245087 97.707047-89.025005 187.838352-89.025005s156.372963 55.779918 187.838351 89.025005a12.016973 12.016973 0 0 1-2.244665 18.390217c-49.41469 31.681839-115.327665 49.12609-185.593686 49.12609z m-159.731943-61.688195c43.947328 24.354612 100.015845 37.638217 159.723926 37.638216s115.776598-13.283605 159.723926-37.638216c-31.713905-30.35909-87.52589-70.811154-159.723926-70.811155s-128.002004 40.452064-159.723926 70.811155z" fill="#33363A" p-id="12836"></path><path d="M697.481454 817.546965c-41.87903 0-75.95785-35.898602-75.95785-80.022297a12.024989 12.024989 0 1 1 24.049979 0c0 30.86414 23.28038 55.972317 51.907871 55.972318a12.024989 12.024989 0 1 1 0 24.049979zM826.501574 817.546965a12.024989 12.024989 0 1 1 0-24.049979c28.619475 0 51.907871-25.108178 51.907871-55.972318a12.024989 12.024989 0 1 1 24.049978 0c-0.008017 44.123695-34.07882 80.022296-75.957849 80.022297z" fill="#33363A" p-id="12837"></path><path d="M761.991514 811.093554m-23.488813 0a23.488813 23.488813 0 1 0 46.977625 0 23.488813 23.488813 0 1 0-46.977625 0Z" fill="#FFAA00" p-id="12838"></path><path d="M761.991514 879.732193c-40.107348 0-72.743169-32.635821-72.74317-72.751186a12.024989 12.024989 0 1 1 24.049979 0c0 26.85581 21.845397 48.701207 48.693191 48.701208s48.693191-21.845397 48.69319-48.701208a12.024989 12.024989 0 1 1 24.049979 0c0 40.115365-32.635821 72.751186-72.743169 72.751186z" fill="#33363A" p-id="12839"></path><path d="M785.47231 823.118543a12.024989 12.024989 0 0 1-12.02499-12.024989c0-6.325144-5.146695-11.47184-11.463823-11.47184s-11.463823 5.146695-11.463823 11.47184a12.024989 12.024989 0 1 1-24.049979 0c0-19.584699 15.929103-35.521819 35.513802-35.521819s35.513802 15.937119 35.513802 35.521819a12.024989 12.024989 0 0 1-12.024989 12.024989z" fill="#33363A" p-id="12840"></path><path d="M726.654078 657.855105c9.579908 22.60698 21.885481 36.259351 35.337436 36.259352 13.451955 0 25.757527-13.652371 35.337435-36.259352-9.579908-38.760549-21.885481-66.858941-35.337435-66.858941-13.451955 0-25.757527 28.098392-35.337436 66.858941z" fill="#2AF42F" p-id="12841"></path><path d="M761.991514 619.607622c-11.20729 0-21.636964 19.600733-30.343057 48.596991 8.706092 16.313902 19.119733 36.195218 30.343057 36.195218 11.223323 0 21.636964-19.873299 30.343056-36.195218-8.706092-28.988241-19.135767-48.596991-30.343056-48.596991z" fill="#1AD88F" p-id="12842"></path><path d="M797.320933 669.888111a12.024989 12.024989 0 0 1-11.66424-9.147008c-10.237274-41.414064-20.017599-55.074452-23.665179-57.487467-3.64758 2.413015-13.427905 16.073403-23.66518 57.487467a12.016973 12.016973 0 1 1-23.344512-5.771995c12.818639-51.851754 27.753676-75.997933 47.009692-75.997934s34.19907 24.146179 47.009692 75.997934a12.024989 12.024989 0 0 1-11.680273 14.919003z" fill="#33363A" p-id="12843"></path><path d="M761.991514 923.615388c-149.374419 0-262.016503-46.023643-262.016503-107.054472a12.024989 12.024989 0 1 1 24.049978 0c0 39.257582 97.723081 83.004494 237.966525 83.004493a12.024989 12.024989 0 1 1 0 24.049979z" fill="#33363A" p-id="12844"></path><path d="M761.991514 923.615388a12.024989 12.024989 0 1 1 0-24.049979c140.235427 0 237.966524-43.746912 237.966524-83.004493a12.024989 12.024989 0 1 1 24.049979 0c-0.008017 61.03083-112.642084 107.054473-262.016503 107.054472z" fill="#33363A" p-id="12845"></path><path d="M761.991514 527.19157c0 86.130991-111.920585 155.956096-249.991514 155.956096s-249.991514-69.825105-249.991514-155.956096c0-86.163058 111.920585-230.150281 249.991514-230.150281s249.991514 143.987223 249.991514 230.150281z" fill="#C0C0C4" p-id="12846"></path><path d="M761.991514 530.734934c0 52.493087-111.920585 95.0375-249.991514 95.037499s-249.991514-42.552429-249.991514-95.037499c0-52.477054 111.920585-140.22741 249.991514-140.227411 138.070929-0.008017 249.991514 87.750356 249.991514 140.227411z" fill="#2AF42F" p-id="12847"></path><path d="M761.991514 490.114519c0 52.485071-111.920585 95.029483-249.991514 95.029483s-249.991514-42.552429-249.991514-95.029483c0-52.493087 111.920585-140.22741 249.991514-140.22741s249.991514 87.734323 249.991514 140.22741z" fill="#FFFFFF" p-id="12848"></path><path d="M657.205756 548.788451c0 52.493087-65.007093 36.363568-145.205756 36.363568s-145.205756 16.129519-145.205756-36.363568c0-52.477054 65.007093-198.901342 145.205756-198.901342S657.205756 496.311397 657.205756 548.788451z" fill="#E8E8ED" p-id="12849"></path><path d="M691.108209 382.314497c-45.40636-47.979708-108.850204-85.273208-179.108209-85.273208S378.298151 334.326773 332.891791 382.314497c45.40636 29.108491 108.850204 47.226142 179.108209 47.226142s133.701849-18.117651 179.108209-47.226142z" fill="#2AF42F" p-id="12850"></path><path d="M351.875241 393.257238c43.370129 22.63103 99.174096 36.275385 160.132776 36.275384 60.950663 0 116.754631-13.644355 160.132776-36.275384-43.370129-38.776583-99.174096-66.874975-160.132776-66.874975-60.95868 0-116.762647 28.098392-160.132776 66.874975z" fill="#1AD88F" p-id="12851"></path><path d="M512 695.172656c-144.47624 0-262.016503-75.3566-262.016503-167.981086 0-93.426151 119.913195-242.17527 262.016503-242.175271s262.016503 148.749119 262.016503 242.175271c0 92.624485-117.540263 167.981086-262.016503 167.981086z m0-386.106378c-129.060203 0-237.966524 133.974416-237.966524 218.125292 0 79.36493 106.74984 143.931107 237.966524 143.931107s237.966524-64.566177 237.966524-143.931107c0-84.142859-108.906321-218.125292-237.966524-218.125292z" fill="#33363A" p-id="12852"></path><path d="M512 695.172656c-144.47624 0-262.016503-75.3566-262.016503-167.981086 0-93.426151 119.913195-242.17527 262.016503-242.175271s262.016503 148.749119 262.016503 242.175271c0 92.624485-117.540263 167.981086-262.016503 167.981086z m0-386.106378c-129.060203 0-237.966524 133.974416-237.966524 218.125292 0 79.36493 106.74984 143.931107 237.966524 143.931107s237.966524-64.566177 237.966524-143.931107c0-84.142859-108.906321-218.125292-237.966524-218.125292z" fill="#33363A" p-id="12853"></path><path d="M512 441.565629c-70.266022 0-136.178997-17.444251-185.593687-49.126091a12.008956 12.008956 0 0 1-2.244665-18.390217c31.465389-33.245087 97.707047-89.025005 187.838352-89.025005s156.372963 55.779918 187.838352 89.025005a12.016973 12.016973 0 0 1-2.244665 18.390217c-49.41469 31.673822-115.327665 49.12609-185.593687 49.126091z m-159.723926-61.688196c43.947328 24.354612 100.015845 37.638217 159.723926 37.638217s115.776598-13.283605 159.723926-37.638217c-31.713905-30.35909-87.52589-70.811154-159.723926-70.811155s-128.010021 40.452064-159.723926 70.811155z" fill="#33363A" p-id="12854"></path><path d="M447.48994 491.100568c-41.87903 0-75.95785-35.898602-75.95785-80.022296a12.024989 12.024989 0 1 1 24.049979 0c0 30.86414 23.28038 55.972317 51.907871 55.972318a12.024989 12.024989 0 1 1 0 24.049978zM576.51006 491.100568a12.024989 12.024989 0 1 1 0-24.049978c28.619475 0 51.907871-25.108178 51.907871-55.972318a12.024989 12.024989 0 1 1 24.049979 0c0 44.123695-34.07882 80.022296-75.95785 80.022296z" fill="#33363A" p-id="12855"></path><path d="M512 484.655174m-23.488813 0a23.488813 23.488813 0 1 0 46.977626 0 23.488813 23.488813 0 1 0-46.977626 0Z" fill="#FFAA00" p-id="12856"></path><path d="M512 553.285797c-40.107348 0-72.743169-32.635821-72.743169-72.751186a12.024989 12.024989 0 1 1 24.049978 0c0 26.85581 21.845397 48.701207 48.693191 48.701207s48.693191-21.845397 48.693191-48.701207a12.024989 12.024989 0 1 1 24.049978 0c0 40.115365-32.627805 72.751186-72.743169 72.751186z" fill="#33363A" p-id="12857"></path><path d="M535.488813 496.680163a12.024989 12.024989 0 0 1-12.02499-12.024989c0-6.325144-5.146695-11.47184-11.463823-11.47184s-11.463823 5.146695-11.463823 11.47184a12.024989 12.024989 0 1 1-24.049979 0c0-19.584699 15.929103-35.521819 35.513802-35.521819s35.513802 15.937119 35.513802 35.521819a12.024989 12.024989 0 0 1-12.024989 12.024989z" fill="#33363A" p-id="12858"></path><path d="M476.662564 331.408709c9.579908 22.60698 21.885481 36.267368 35.337436 36.267368 13.451955 0 25.757527-13.652371 35.337436-36.267368-9.579908-38.760549-21.885481-66.858941-35.337436-66.858942-13.451955 0-25.757527 28.098392-35.337436 66.858942z" fill="#2AF42F" p-id="12859"></path><path d="M512 293.169242c-11.20729 0-21.636964 19.600733-30.343057 48.596991 8.706092 16.305886 19.119733 36.195218 30.343057 36.195218 11.223323 0 21.636964-19.881316 30.343057-36.195218-8.706092-28.996258-19.12775-48.596991-30.343057-48.596991z" fill="#1AD88F" p-id="12860"></path><path d="M547.329419 343.441715a12.024989 12.024989 0 0 1-11.66424-9.147009c-10.237274-41.414064-20.017599-55.074452-23.665179-57.487466-3.64758 2.413015-13.427905 16.073403-23.665179 57.487466a12.024989 12.024989 0 0 1-23.344513-5.771995c12.818639-51.851754 27.753676-75.997933 47.009692-75.997933s34.19907 24.146179 47.009692 75.997933a12.024989 12.024989 0 0 1-11.680273 14.919004zM512 597.177008c-149.374419 0-262.016503-46.023643-262.016503-107.054472a12.024989 12.024989 0 1 1 24.049979 0c0 39.257582 97.723081 83.004494 237.966524 83.004494a12.024989 12.024989 0 1 1 0 24.049978z" fill="#33363A" p-id="12861"></path><path d="M512 597.177008a12.024989 12.024989 0 1 1 0-24.049978c140.235427 0 237.966524-43.746912 237.966524-83.004494a12.024989 12.024989 0 1 1 24.049979 0c0 61.022813-112.642084 107.054473-262.016503 107.054472z" fill="#33363A" p-id="12862"></path><path d="M433.404669 166.425854c-47.939625 0-86.94869-38.993032-86.94869-86.932657a12.024989 12.024989 0 1 1 24.049979 0c0 34.672053 28.218642 62.882678 62.898711 62.882678a12.024989 12.024989 0 1 1 0 24.049979z" fill="#33363A" p-id="12863"></path><path d="M510.733368 241.333521a12.024989 12.024989 0 0 1-12.02499-12.024989 62.930778 62.930778 0 0 0-7.712026-30.198757 12.024989 12.024989 0 0 1 21.083815-11.576056 87.012824 87.012824 0 0 1 10.67819 41.758779 12.024989 12.024989 0 0 1-12.024989 12.041023z m-36.732335-64.453943c-2.084332 0-4.20073-0.537116-6.124728-1.683499a62.770445 62.770445 0 0 0-32.050605-8.770225 12.024989 12.024989 0 1 1 0-24.049979c15.62447 0 30.952323 4.192713 44.324111 12.137223a12.024989 12.024989 0 0 1-6.148778 22.36648z" fill="#33363A" p-id="12864"></path><path d="M433.404669 101.346611c-47.939625 0-86.94869-39.001049-86.94869-86.940674a12.024989 12.024989 0 1 1 24.049979 0c0 34.68007 28.218642 62.890695 62.898711 62.890695a12.024989 12.024989 0 1 1 0 24.049979z" fill="#33363A" p-id="12865"></path><path d="M510.733368 176.254278a12.024989 12.024989 0 0 1-12.02499-12.024989 62.930778 62.930778 0 0 0-7.712026-30.198757 12.024989 12.024989 0 0 1 21.083815-11.576056 87.012824 87.012824 0 0 1 10.67819 41.75878c0 6.653827-5.379179 12.033006-12.024989 12.041022z m-36.732335-64.453943c-2.084332 0-4.20073-0.537116-6.124728-1.683498a62.770445 62.770445 0 0 0-32.050605-8.770226 12.024989 12.024989 0 1 1 0-24.049979c15.62447 0 30.952323 4.192713 44.324111 12.137223a12.024989 12.024989 0 0 1-6.148778 22.36648z" fill="#33363A" p-id="12866"></path></svg>